<?xml version="1.0" encoding="UTF-8" standalone="no"?>
<!DOCTYPE svg PUBLIC "-//W3C//DTD SVG 1.1//EN"
 "http://www.w3.org/Graphics/SVG/1.1/DTD/svg11.dtd">
<!-- Generated by graphviz version 2.38.0 (20140413.2041)
 -->
<!-- Title: Tree Pages: 1 -->
<svg width="1205pt" height="790pt"
 viewBox="0.00 0.00 1205.00 790.00" xmlns="http://www.w3.org/2000/svg" xmlns:xlink="http://www.w3.org/1999/xlink">
<g id="graph0" class="graph" transform="scale(1 1) rotate(0) translate(4 786)">
<title>Tree</title>
<polygon fill="white" stroke="none" points="-4,4 -4,-786 1201,-786 1201,4 -4,4"/>
<!-- 0 -->
<g id="node1" class="node"><title>0</title>
<path fill="#e5fcee" stroke="black" d="M732,-782C732,-782 624,-782 624,-782 618,-782 612,-776 612,-770 612,-770 612,-711 612,-711 612,-705 618,-699 624,-699 624,-699 732,-699 732,-699 738,-699 744,-705 744,-711 744,-711 744,-770 744,-770 744,-776 738,-782 732,-782"/>
<text text-anchor="middle" x="678" y="-766.8" font-family="Helvetica,sans-Serif" font-size="14.00">脯氨酸 &lt;= 760.0</text>
<text text-anchor="middle" x="678" y="-751.8" font-family="Helvetica,sans-Serif" font-size="14.00">gini = 0.656</text>
<text text-anchor="middle" x="678" y="-736.8" font-family="Helvetica,sans-Serif" font-size="14.00">samples = 124</text>
<text text-anchor="middle" x="678" y="-721.8" font-family="Helvetica,sans-Serif" font-size="14.00">value = [40, 51, 33]</text>
<text text-anchor="middle" x="678" y="-706.8" font-family="Helvetica,sans-Serif" font-size="14.00">class = 雪梨</text>
</g>
<!-- 1 -->
<g id="node2" class="node"><title>1</title>
<path fill="#a8f4c8" stroke="black" d="M625.5,-663C625.5,-663 524.5,-663 524.5,-663 518.5,-663 512.5,-657 512.5,-651 512.5,-651 512.5,-592 512.5,-592 512.5,-586 518.5,-580 524.5,-580 524.5,-580 625.5,-580 625.5,-580 631.5,-580 637.5,-586 637.5,-592 637.5,-592 637.5,-651 637.5,-651 637.5,-657 631.5,-663 625.5,-663"/>
<text text-anchor="middle" x="575" y="-647.8" font-family="Helvetica,sans-Serif" font-size="14.00">颜色强度 &lt;= 4.85</text>
<text text-anchor="middle" x="575" y="-632.8" font-family="Helvetica,sans-Serif" font-size="14.00">gini = 0.472</text>
<text text-anchor="middle" x="575" y="-617.8" font-family="Helvetica,sans-Serif" font-size="14.00">samples = 77</text>
<text text-anchor="middle" x="575" y="-602.8" font-family="Helvetica,sans-Serif" font-size="14.00">value = [1, 49, 27]</text>
<text text-anchor="middle" x="575" y="-587.8" font-family="Helvetica,sans-Serif" font-size="14.00">class = 雪梨</text>
</g>
<!-- 0&#45;&gt;1 -->
<g id="edge1" class="edge"><title>0&#45;&gt;1</title>
<path fill="none" stroke="black" d="M642.265,-698.907C634.275,-689.832 625.726,-680.121 617.494,-670.769"/>
<polygon fill="black" stroke="black" points="619.907,-668.214 610.672,-663.021 614.653,-672.839 619.907,-668.214"/>
<text text-anchor="middle" x="609.084" y="-684.27" font-family="Helvetica,sans-Serif" font-size="14.00">True</text>
</g>
<!-- 16 -->
<g id="node17" class="node"><title>16</title>
<path fill="#ea9a60" stroke="black" d="M828.5,-663C828.5,-663 735.5,-663 735.5,-663 729.5,-663 723.5,-657 723.5,-651 723.5,-651 723.5,-592 723.5,-592 723.5,-586 729.5,-580 735.5,-580 735.5,-580 828.5,-580 828.5,-580 834.5,-580 840.5,-586 840.5,-592 840.5,-592 840.5,-651 840.5,-651 840.5,-657 834.5,-663 828.5,-663"/>
<text text-anchor="middle" x="782" y="-647.8" font-family="Helvetica,sans-Serif" font-size="14.00">类黄素 &lt;= 2.165</text>
<text text-anchor="middle" x="782" y="-632.8" font-family="Helvetica,sans-Serif" font-size="14.00">gini = 0.293</text>
<text text-anchor="middle" x="782" y="-617.8" font-family="Helvetica,sans-Serif" font-size="14.00">samples = 47</text>
<text text-anchor="middle" x="782" y="-602.8" font-family="Helvetica,sans-Serif" font-size="14.00">value = [39, 2, 6]</text>
<text text-anchor="middle" x="782" y="-587.8" font-family="Helvetica,sans-Serif" font-size="14.00">class = 琴酒</text>
</g>
<!-- 0&#45;&gt;16 -->
<g id="edge16" class="edge"><title>0&#45;&gt;16</title>
<path fill="none" stroke="black" d="M714.082,-698.907C722.149,-689.832 730.781,-680.121 739.094,-670.769"/>
<polygon fill="black" stroke="black" points="741.954,-672.82 745.982,-663.021 736.722,-668.17 741.954,-672.82"/>
<text text-anchor="middle" x="747.45" y="-684.278" font-family="Helvetica,sans-Serif" font-size="14.00">False</text>
</g>
<!-- 2 -->
<g id="node3" class="node"><title>2</title>
<path fill="#4ae78c" stroke="black" d="M378.5,-544C378.5,-544 285.5,-544 285.5,-544 279.5,-544 273.5,-538 273.5,-532 273.5,-532 273.5,-473 273.5,-473 273.5,-467 279.5,-461 285.5,-461 285.5,-461 378.5,-461 378.5,-461 384.5,-461 390.5,-467 390.5,-473 390.5,-473 390.5,-532 390.5,-532 390.5,-538 384.5,-544 378.5,-544"/>
<text text-anchor="middle" x="332" y="-528.8" font-family="Helvetica,sans-Serif" font-size="14.00">类黄素 &lt;= 0.895</text>
<text text-anchor="middle" x="332" y="-513.8" font-family="Helvetica,sans-Serif" font-size="14.00">gini = 0.147</text>
<text text-anchor="middle" x="332" y="-498.8" font-family="Helvetica,sans-Serif" font-size="14.00">samples = 51</text>
<text text-anchor="middle" x="332" y="-483.8" font-family="Helvetica,sans-Serif" font-size="14.00">value = [1, 47, 3]</text>
<text text-anchor="middle" x="332" y="-468.8" font-family="Helvetica,sans-Serif" font-size="14.00">class = 雪梨</text>
</g>
<!-- 1&#45;&gt;2 -->
<g id="edge2" class="edge"><title>1&#45;&gt;2</title>
<path fill="none" stroke="black" d="M512.421,-590.37C477.955,-573.775 435.142,-553.161 399.872,-536.179"/>
<polygon fill="black" stroke="black" points="401.137,-532.903 390.608,-531.719 398.1,-539.21 401.137,-532.903"/>
</g>
<!-- 13 -->
<g id="node14" class="node"><title>13</title>
<path fill="#8c49e7" stroke="black" d="M636,-544C636,-544 514,-544 514,-544 508,-544 502,-538 502,-532 502,-532 502,-473 502,-473 502,-467 508,-461 514,-461 514,-461 636,-461 636,-461 642,-461 648,-467 648,-473 648,-473 648,-532 648,-532 648,-538 642,-544 636,-544"/>
<text text-anchor="middle" x="575" y="-528.8" font-family="Helvetica,sans-Serif" font-size="14.00">稀释葡萄酒 &lt;= 2.665</text>
<text text-anchor="middle" x="575" y="-513.8" font-family="Helvetica,sans-Serif" font-size="14.00">gini = 0.142</text>
<text text-anchor="middle" x="575" y="-498.8" font-family="Helvetica,sans-Serif" font-size="14.00">samples = 26</text>
<text text-anchor="middle" x="575" y="-483.8" font-family="Helvetica,sans-Serif" font-size="14.00">value = [0, 2, 24]</text>
<text text-anchor="middle" x="575" y="-468.8" font-family="Helvetica,sans-Serif" font-size="14.00">class = 贝尔摩德</text>
</g>
<!-- 1&#45;&gt;13 -->
<g id="edge13" class="edge"><title>1&#45;&gt;13</title>
<path fill="none" stroke="black" d="M575,-579.907C575,-571.649 575,-562.864 575,-554.302"/>
<polygon fill="black" stroke="black" points="578.5,-554.021 575,-544.021 571.5,-554.021 578.5,-554.021"/>
</g>
<!-- 3 -->
<g id="node4" class="node"><title>3</title>
<path fill="#c09cf2" stroke="black" d="M233,-425C233,-425 137,-425 137,-425 131,-425 125,-419 125,-413 125,-413 125,-354 125,-354 125,-348 131,-342 137,-342 137,-342 233,-342 233,-342 239,-342 245,-348 245,-354 245,-354 245,-413 245,-413 245,-419 239,-425 233,-425"/>
<text text-anchor="middle" x="185" y="-409.8" font-family="Helvetica,sans-Serif" font-size="14.00">酒精 &lt;= 12.65</text>
<text text-anchor="middle" x="185" y="-394.8" font-family="Helvetica,sans-Serif" font-size="14.00">gini = 0.444</text>
<text text-anchor="middle" x="185" y="-379.8" font-family="Helvetica,sans-Serif" font-size="14.00">samples = 3</text>
<text text-anchor="middle" x="185" y="-364.8" font-family="Helvetica,sans-Serif" font-size="14.00">value = [0, 1, 2]</text>
<text text-anchor="middle" x="185" y="-349.8" font-family="Helvetica,sans-Serif" font-size="14.00">class = 贝尔摩德</text>
</g>
<!-- 2&#45;&gt;3 -->
<g id="edge3" class="edge"><title>2&#45;&gt;3</title>
<path fill="none" stroke="black" d="M280.999,-460.907C269.027,-451.379 256.173,-441.148 243.887,-431.37"/>
<polygon fill="black" stroke="black" points="245.915,-428.51 235.911,-425.021 241.555,-433.987 245.915,-428.51"/>
</g>
<!-- 6 -->
<g id="node7" class="node"><title>6</title>
<path fill="#41e686" stroke="black" d="M389,-425C389,-425 275,-425 275,-425 269,-425 263,-419 263,-413 263,-413 263,-354 263,-354 263,-348 269,-342 275,-342 275,-342 389,-342 389,-342 395,-342 401,-348 401,-354 401,-354 401,-413 401,-413 401,-419 395,-425 389,-425"/>
<text text-anchor="middle" x="332" y="-409.8" font-family="Helvetica,sans-Serif" font-size="14.00">稀释葡萄酒 &lt;= 1.48</text>
<text text-anchor="middle" x="332" y="-394.8" font-family="Helvetica,sans-Serif" font-size="14.00">gini = 0.081</text>
<text text-anchor="middle" x="332" y="-379.8" font-family="Helvetica,sans-Serif" font-size="14.00">samples = 48</text>
<text text-anchor="middle" x="332" y="-364.8" font-family="Helvetica,sans-Serif" font-size="14.00">value = [1, 46, 1]</text>
<text text-anchor="middle" x="332" y="-349.8" font-family="Helvetica,sans-Serif" font-size="14.00">class = 雪梨</text>
</g>
<!-- 2&#45;&gt;6 -->
<g id="edge6" class="edge"><title>2&#45;&gt;6</title>
<path fill="none" stroke="black" d="M332,-460.907C332,-452.649 332,-443.864 332,-435.302"/>
<polygon fill="black" stroke="black" points="335.5,-435.021 332,-425.021 328.5,-435.021 335.5,-435.021"/>
</g>
<!-- 4 -->
<g id="node5" class="node"><title>4</title>
<path fill="#39e581" stroke="black" d="M98,-298.5C98,-298.5 12,-298.5 12,-298.5 6,-298.5 0,-292.5 0,-286.5 0,-286.5 0,-242.5 0,-242.5 0,-236.5 6,-230.5 12,-230.5 12,-230.5 98,-230.5 98,-230.5 104,-230.5 110,-236.5 110,-242.5 110,-242.5 110,-286.5 110,-286.5 110,-292.5 104,-298.5 98,-298.5"/>
<text text-anchor="middle" x="55" y="-283.3" font-family="Helvetica,sans-Serif" font-size="14.00">gini = 0.0</text>
<text text-anchor="middle" x="55" y="-268.3" font-family="Helvetica,sans-Serif" font-size="14.00">samples = 1</text>
<text text-anchor="middle" x="55" y="-253.3" font-family="Helvetica,sans-Serif" font-size="14.00">value = [0, 1, 0]</text>
<text text-anchor="middle" x="55" y="-238.3" font-family="Helvetica,sans-Serif" font-size="14.00">class = 雪梨</text>
</g>
<!-- 3&#45;&gt;4 -->
<g id="edge4" class="edge"><title>3&#45;&gt;4</title>
<path fill="none" stroke="black" d="M139.897,-341.907C126.778,-330.101 112.463,-317.217 99.3884,-305.45"/>
<polygon fill="black" stroke="black" points="101.627,-302.755 91.8522,-298.667 96.9437,-307.958 101.627,-302.755"/>
</g>
<!-- 5 -->
<g id="node6" class="node"><title>5</title>
<path fill="#8139e5" stroke="black" d="M236,-298.5C236,-298.5 140,-298.5 140,-298.5 134,-298.5 128,-292.5 128,-286.5 128,-286.5 128,-242.5 128,-242.5 128,-236.5 134,-230.5 140,-230.5 140,-230.5 236,-230.5 236,-230.5 242,-230.5 248,-236.5 248,-242.5 248,-242.5 248,-286.5 248,-286.5 248,-292.5 242,-298.5 236,-298.5"/>
<text text-anchor="middle" x="188" y="-283.3" font-family="Helvetica,sans-Serif" font-size="14.00">gini = 0.0</text>
<text text-anchor="middle" x="188" y="-268.3" font-family="Helvetica,sans-Serif" font-size="14.00">samples = 2</text>
<text text-anchor="middle" x="188" y="-253.3" font-family="Helvetica,sans-Serif" font-size="14.00">value = [0, 0, 2]</text>
<text text-anchor="middle" x="188" y="-238.3" font-family="Helvetica,sans-Serif" font-size="14.00">class = 贝尔摩德</text>
</g>
<!-- 3&#45;&gt;5 -->
<g id="edge5" class="edge"><title>3&#45;&gt;5</title>
<path fill="none" stroke="black" d="M186.041,-341.907C186.315,-331.204 186.612,-319.615 186.89,-308.776"/>
<polygon fill="black" stroke="black" points="190.392,-308.753 187.15,-298.667 183.394,-308.574 190.392,-308.753"/>
</g>
<!-- 7 -->
<g id="node8" class="node"><title>7</title>
<path fill="#8139e5" stroke="black" d="M376,-298.5C376,-298.5 280,-298.5 280,-298.5 274,-298.5 268,-292.5 268,-286.5 268,-286.5 268,-242.5 268,-242.5 268,-236.5 274,-230.5 280,-230.5 280,-230.5 376,-230.5 376,-230.5 382,-230.5 388,-236.5 388,-242.5 388,-242.5 388,-286.5 388,-286.5 388,-292.5 382,-298.5 376,-298.5"/>
<text text-anchor="middle" x="328" y="-283.3" font-family="Helvetica,sans-Serif" font-size="14.00">gini = 0.0</text>
<text text-anchor="middle" x="328" y="-268.3" font-family="Helvetica,sans-Serif" font-size="14.00">samples = 1</text>
<text text-anchor="middle" x="328" y="-253.3" font-family="Helvetica,sans-Serif" font-size="14.00">value = [0, 0, 1]</text>
<text text-anchor="middle" x="328" y="-238.3" font-family="Helvetica,sans-Serif" font-size="14.00">class = 贝尔摩德</text>
</g>
<!-- 6&#45;&gt;7 -->
<g id="edge7" class="edge"><title>6&#45;&gt;7</title>
<path fill="none" stroke="black" d="M330.612,-341.907C330.246,-331.204 329.85,-319.615 329.48,-308.776"/>
<polygon fill="black" stroke="black" points="332.974,-308.541 329.134,-298.667 325.978,-308.781 332.974,-308.541"/>
</g>
<!-- 8 -->
<g id="node9" class="node"><title>8</title>
<path fill="#3de684" stroke="black" d="M511.5,-306C511.5,-306 418.5,-306 418.5,-306 412.5,-306 406.5,-300 406.5,-294 406.5,-294 406.5,-235 406.5,-235 406.5,-229 412.5,-223 418.5,-223 418.5,-223 511.5,-223 511.5,-223 517.5,-223 523.5,-229 523.5,-235 523.5,-235 523.5,-294 523.5,-294 523.5,-300 517.5,-306 511.5,-306"/>
<text text-anchor="middle" x="465" y="-290.8" font-family="Helvetica,sans-Serif" font-size="14.00">苹果酸 &lt;= 3.925</text>
<text text-anchor="middle" x="465" y="-275.8" font-family="Helvetica,sans-Serif" font-size="14.00">gini = 0.042</text>
<text text-anchor="middle" x="465" y="-260.8" font-family="Helvetica,sans-Serif" font-size="14.00">samples = 47</text>
<text text-anchor="middle" x="465" y="-245.8" font-family="Helvetica,sans-Serif" font-size="14.00">value = [1, 46, 0]</text>
<text text-anchor="middle" x="465" y="-230.8" font-family="Helvetica,sans-Serif" font-size="14.00">class = 雪梨</text>
</g>
<!-- 6&#45;&gt;8 -->
<g id="edge8" class="edge"><title>6&#45;&gt;8</title>
<path fill="none" stroke="black" d="M378.144,-341.907C388.872,-332.469 400.384,-322.343 411.403,-312.649"/>
<polygon fill="black" stroke="black" points="413.741,-315.254 418.938,-306.021 409.118,-309.998 413.741,-315.254"/>
</g>
<!-- 9 -->
<g id="node10" class="node"><title>9</title>
<path fill="#39e581" stroke="black" d="M445.5,-179.5C445.5,-179.5 352.5,-179.5 352.5,-179.5 346.5,-179.5 340.5,-173.5 340.5,-167.5 340.5,-167.5 340.5,-123.5 340.5,-123.5 340.5,-117.5 346.5,-111.5 352.5,-111.5 352.5,-111.5 445.5,-111.5 445.5,-111.5 451.5,-111.5 457.5,-117.5 457.5,-123.5 457.5,-123.5 457.5,-167.5 457.5,-167.5 457.5,-173.5 451.5,-179.5 445.5,-179.5"/>
<text text-anchor="middle" x="399" y="-164.3" font-family="Helvetica,sans-Serif" font-size="14.00">gini = 0.0</text>
<text text-anchor="middle" x="399" y="-149.3" font-family="Helvetica,sans-Serif" font-size="14.00">samples = 44</text>
<text text-anchor="middle" x="399" y="-134.3" font-family="Helvetica,sans-Serif" font-size="14.00">value = [0, 44, 0]</text>
<text text-anchor="middle" x="399" y="-119.3" font-family="Helvetica,sans-Serif" font-size="14.00">class = 雪梨</text>
</g>
<!-- 8&#45;&gt;9 -->
<g id="edge9" class="edge"><title>8&#45;&gt;9</title>
<path fill="none" stroke="black" d="M442.102,-222.907C435.815,-211.763 428.987,-199.658 422.658,-188.439"/>
<polygon fill="black" stroke="black" points="425.671,-186.657 417.71,-179.667 419.574,-190.096 425.671,-186.657"/>
</g>
<!-- 10 -->
<g id="node11" class="node"><title>10</title>
<path fill="#9cf2c0" stroke="black" d="M574,-187C574,-187 488,-187 488,-187 482,-187 476,-181 476,-175 476,-175 476,-116 476,-116 476,-110 482,-104 488,-104 488,-104 574,-104 574,-104 580,-104 586,-110 586,-116 586,-116 586,-175 586,-175 586,-181 580,-187 574,-187"/>
<text text-anchor="middle" x="531" y="-171.8" font-family="Helvetica,sans-Serif" font-size="14.00">酒精 &lt;= 12.64</text>
<text text-anchor="middle" x="531" y="-156.8" font-family="Helvetica,sans-Serif" font-size="14.00">gini = 0.444</text>
<text text-anchor="middle" x="531" y="-141.8" font-family="Helvetica,sans-Serif" font-size="14.00">samples = 3</text>
<text text-anchor="middle" x="531" y="-126.8" font-family="Helvetica,sans-Serif" font-size="14.00">value = [1, 2, 0]</text>
<text text-anchor="middle" x="531" y="-111.8" font-family="Helvetica,sans-Serif" font-size="14.00">class = 雪梨</text>
</g>
<!-- 8&#45;&gt;10 -->
<g id="edge10" class="edge"><title>8&#45;&gt;10</title>
<path fill="none" stroke="black" d="M487.898,-222.907C492.813,-214.195 498.058,-204.897 503.137,-195.893"/>
<polygon fill="black" stroke="black" points="506.277,-197.45 508.142,-187.021 500.18,-194.011 506.277,-197.45"/>
</g>
<!-- 11 -->
<g id="node12" class="node"><title>11</title>
<path fill="#39e581" stroke="black" d="M510,-68C510,-68 424,-68 424,-68 418,-68 412,-62 412,-56 412,-56 412,-12 412,-12 412,-6 418,-0 424,-0 424,-0 510,-0 510,-0 516,-0 522,-6 522,-12 522,-12 522,-56 522,-56 522,-62 516,-68 510,-68"/>
<text text-anchor="middle" x="467" y="-52.8" font-family="Helvetica,sans-Serif" font-size="14.00">gini = 0.0</text>
<text text-anchor="middle" x="467" y="-37.8" font-family="Helvetica,sans-Serif" font-size="14.00">samples = 2</text>
<text text-anchor="middle" x="467" y="-22.8" font-family="Helvetica,sans-Serif" font-size="14.00">value = [0, 2, 0]</text>
<text text-anchor="middle" x="467" y="-7.8" font-family="Helvetica,sans-Serif" font-size="14.00">class = 雪梨</text>
</g>
<!-- 10&#45;&gt;11 -->
<g id="edge11" class="edge"><title>10&#45;&gt;11</title>
<path fill="none" stroke="black" d="M507.169,-103.726C502.104,-95.0615 496.748,-85.8962 491.653,-77.1802"/>
<polygon fill="black" stroke="black" points="494.531,-75.167 486.463,-68.2996 488.487,-78.6992 494.531,-75.167"/>
</g>
<!-- 12 -->
<g id="node13" class="node"><title>12</title>
<path fill="#e58139" stroke="black" d="M638,-68C638,-68 552,-68 552,-68 546,-68 540,-62 540,-56 540,-56 540,-12 540,-12 540,-6 546,-0 552,-0 552,-0 638,-0 638,-0 644,-0 650,-6 650,-12 650,-12 650,-56 650,-56 650,-62 644,-68 638,-68"/>
<text text-anchor="middle" x="595" y="-52.8" font-family="Helvetica,sans-Serif" font-size="14.00">gini = 0.0</text>
<text text-anchor="middle" x="595" y="-37.8" font-family="Helvetica,sans-Serif" font-size="14.00">samples = 1</text>
<text text-anchor="middle" x="595" y="-22.8" font-family="Helvetica,sans-Serif" font-size="14.00">value = [1, 0, 0]</text>
<text text-anchor="middle" x="595" y="-7.8" font-family="Helvetica,sans-Serif" font-size="14.00">class = 琴酒</text>
</g>
<!-- 10&#45;&gt;12 -->
<g id="edge12" class="edge"><title>10&#45;&gt;12</title>
<path fill="none" stroke="black" d="M554.831,-103.726C559.896,-95.0615 565.252,-85.8962 570.347,-77.1802"/>
<polygon fill="black" stroke="black" points="573.513,-78.6992 575.537,-68.2996 567.469,-75.167 573.513,-78.6992"/>
</g>
<!-- 14 -->
<g id="node15" class="node"><title>14</title>
<path fill="#8139e5" stroke="black" d="M527,-417.5C527,-417.5 431,-417.5 431,-417.5 425,-417.5 419,-411.5 419,-405.5 419,-405.5 419,-361.5 419,-361.5 419,-355.5 425,-349.5 431,-349.5 431,-349.5 527,-349.5 527,-349.5 533,-349.5 539,-355.5 539,-361.5 539,-361.5 539,-405.5 539,-405.5 539,-411.5 533,-417.5 527,-417.5"/>
<text text-anchor="middle" x="479" y="-402.3" font-family="Helvetica,sans-Serif" font-size="14.00">gini = 0.0</text>
<text text-anchor="middle" x="479" y="-387.3" font-family="Helvetica,sans-Serif" font-size="14.00">samples = 24</text>
<text text-anchor="middle" x="479" y="-372.3" font-family="Helvetica,sans-Serif" font-size="14.00">value = [0, 0, 24]</text>
<text text-anchor="middle" x="479" y="-357.3" font-family="Helvetica,sans-Serif" font-size="14.00">class = 贝尔摩德</text>
</g>
<!-- 13&#45;&gt;14 -->
<g id="edge14" class="edge"><title>13&#45;&gt;14</title>
<path fill="none" stroke="black" d="M541.693,-460.907C532.277,-449.432 522.026,-436.938 512.593,-425.442"/>
<polygon fill="black" stroke="black" points="515.263,-423.178 506.214,-417.667 509.851,-427.618 515.263,-423.178"/>
</g>
<!-- 15 -->
<g id="node16" class="node"><title>15</title>
<path fill="#39e581" stroke="black" d="M655,-417.5C655,-417.5 569,-417.5 569,-417.5 563,-417.5 557,-411.5 557,-405.5 557,-405.5 557,-361.5 557,-361.5 557,-355.5 563,-349.5 569,-349.5 569,-349.5 655,-349.5 655,-349.5 661,-349.5 667,-355.5 667,-361.5 667,-361.5 667,-405.5 667,-405.5 667,-411.5 661,-417.5 655,-417.5"/>
<text text-anchor="middle" x="612" y="-402.3" font-family="Helvetica,sans-Serif" font-size="14.00">gini = 0.0</text>
<text text-anchor="middle" x="612" y="-387.3" font-family="Helvetica,sans-Serif" font-size="14.00">samples = 2</text>
<text text-anchor="middle" x="612" y="-372.3" font-family="Helvetica,sans-Serif" font-size="14.00">value = [0, 2, 0]</text>
<text text-anchor="middle" x="612" y="-357.3" font-family="Helvetica,sans-Serif" font-size="14.00">class = 雪梨</text>
</g>
<!-- 13&#45;&gt;15 -->
<g id="edge15" class="edge"><title>13&#45;&gt;15</title>
<path fill="none" stroke="black" d="M587.837,-460.907C591.257,-450.094 594.962,-438.376 598.42,-427.441"/>
<polygon fill="black" stroke="black" points="601.833,-428.257 601.511,-417.667 595.159,-426.146 601.833,-428.257"/>
</g>
<!-- 17 -->
<g id="node18" class="node"><title>17</title>
<path fill="#965ae9" stroke="black" d="M830,-544C830,-544 734,-544 734,-544 728,-544 722,-538 722,-532 722,-532 722,-473 722,-473 722,-467 728,-461 734,-461 734,-461 830,-461 830,-461 836,-461 842,-467 842,-473 842,-473 842,-532 842,-532 842,-538 836,-544 830,-544"/>
<text text-anchor="middle" x="782" y="-528.8" font-family="Helvetica,sans-Serif" font-size="14.00">脯氨酸 &lt;= 883.0</text>
<text text-anchor="middle" x="782" y="-513.8" font-family="Helvetica,sans-Serif" font-size="14.00">gini = 0.245</text>
<text text-anchor="middle" x="782" y="-498.8" font-family="Helvetica,sans-Serif" font-size="14.00">samples = 7</text>
<text text-anchor="middle" x="782" y="-483.8" font-family="Helvetica,sans-Serif" font-size="14.00">value = [0, 1, 6]</text>
<text text-anchor="middle" x="782" y="-468.8" font-family="Helvetica,sans-Serif" font-size="14.00">class = 贝尔摩德</text>
</g>
<!-- 16&#45;&gt;17 -->
<g id="edge17" class="edge"><title>16&#45;&gt;17</title>
<path fill="none" stroke="black" d="M782,-579.907C782,-571.649 782,-562.864 782,-554.302"/>
<polygon fill="black" stroke="black" points="785.5,-554.021 782,-544.021 778.5,-554.021 785.5,-554.021"/>
</g>
<!-- 20 -->
<g id="node21" class="node"><title>20</title>
<path fill="#e6843e" stroke="black" d="M1056.5,-544C1056.5,-544 963.5,-544 963.5,-544 957.5,-544 951.5,-538 951.5,-532 951.5,-532 951.5,-473 951.5,-473 951.5,-467 957.5,-461 963.5,-461 963.5,-461 1056.5,-461 1056.5,-461 1062.5,-461 1068.5,-467 1068.5,-473 1068.5,-473 1068.5,-532 1068.5,-532 1068.5,-538 1062.5,-544 1056.5,-544"/>
<text text-anchor="middle" x="1010" y="-528.8" font-family="Helvetica,sans-Serif" font-size="14.00">花青素 &lt;= 3.12</text>
<text text-anchor="middle" x="1010" y="-513.8" font-family="Helvetica,sans-Serif" font-size="14.00">gini = 0.049</text>
<text text-anchor="middle" x="1010" y="-498.8" font-family="Helvetica,sans-Serif" font-size="14.00">samples = 40</text>
<text text-anchor="middle" x="1010" y="-483.8" font-family="Helvetica,sans-Serif" font-size="14.00">value = [39, 1, 0]</text>
<text text-anchor="middle" x="1010" y="-468.8" font-family="Helvetica,sans-Serif" font-size="14.00">class = 琴酒</text>
</g>
<!-- 16&#45;&gt;20 -->
<g id="edge20" class="edge"><title>16&#45;&gt;20</title>
<path fill="none" stroke="black" d="M840.716,-590.37C871.832,-574.402 910.198,-554.714 942.534,-538.121"/>
<polygon fill="black" stroke="black" points="944.184,-541.208 951.483,-533.528 940.988,-534.98 944.184,-541.208"/>
</g>
<!-- 18 -->
<g id="node19" class="node"><title>18</title>
<path fill="#8139e5" stroke="black" d="M793,-417.5C793,-417.5 697,-417.5 697,-417.5 691,-417.5 685,-411.5 685,-405.5 685,-405.5 685,-361.5 685,-361.5 685,-355.5 691,-349.5 697,-349.5 697,-349.5 793,-349.5 793,-349.5 799,-349.5 805,-355.5 805,-361.5 805,-361.5 805,-405.5 805,-405.5 805,-411.5 799,-417.5 793,-417.5"/>
<text text-anchor="middle" x="745" y="-402.3" font-family="Helvetica,sans-Serif" font-size="14.00">gini = 0.0</text>
<text text-anchor="middle" x="745" y="-387.3" font-family="Helvetica,sans-Serif" font-size="14.00">samples = 6</text>
<text text-anchor="middle" x="745" y="-372.3" font-family="Helvetica,sans-Serif" font-size="14.00">value = [0, 0, 6]</text>
<text text-anchor="middle" x="745" y="-357.3" font-family="Helvetica,sans-Serif" font-size="14.00">class = 贝尔摩德</text>
</g>
<!-- 17&#45;&gt;18 -->
<g id="edge18" class="edge"><title>17&#45;&gt;18</title>
<path fill="none" stroke="black" d="M769.163,-460.907C765.743,-450.094 762.038,-438.376 758.58,-427.441"/>
<polygon fill="black" stroke="black" points="761.841,-426.146 755.489,-417.667 755.167,-428.257 761.841,-426.146"/>
</g>
<!-- 19 -->
<g id="node20" class="node"><title>19</title>
<path fill="#39e581" stroke="black" d="M921,-417.5C921,-417.5 835,-417.5 835,-417.5 829,-417.5 823,-411.5 823,-405.5 823,-405.5 823,-361.5 823,-361.5 823,-355.5 829,-349.5 835,-349.5 835,-349.5 921,-349.5 921,-349.5 927,-349.5 933,-355.5 933,-361.5 933,-361.5 933,-405.5 933,-405.5 933,-411.5 927,-417.5 921,-417.5"/>
<text text-anchor="middle" x="878" y="-402.3" font-family="Helvetica,sans-Serif" font-size="14.00">gini = 0.0</text>
<text text-anchor="middle" x="878" y="-387.3" font-family="Helvetica,sans-Serif" font-size="14.00">samples = 1</text>
<text text-anchor="middle" x="878" y="-372.3" font-family="Helvetica,sans-Serif" font-size="14.00">value = [0, 1, 0]</text>
<text text-anchor="middle" x="878" y="-357.3" font-family="Helvetica,sans-Serif" font-size="14.00">class = 雪梨</text>
</g>
<!-- 17&#45;&gt;19 -->
<g id="edge19" class="edge"><title>17&#45;&gt;19</title>
<path fill="none" stroke="black" d="M815.307,-460.907C824.723,-449.432 834.974,-436.938 844.407,-425.442"/>
<polygon fill="black" stroke="black" points="847.149,-427.618 850.786,-417.667 841.737,-423.178 847.149,-427.618"/>
</g>
<!-- 21 -->
<g id="node22" class="node"><title>21</title>
<path fill="#e58139" stroke="black" d="M1056.5,-417.5C1056.5,-417.5 963.5,-417.5 963.5,-417.5 957.5,-417.5 951.5,-411.5 951.5,-405.5 951.5,-405.5 951.5,-361.5 951.5,-361.5 951.5,-355.5 957.5,-349.5 963.5,-349.5 963.5,-349.5 1056.5,-349.5 1056.5,-349.5 1062.5,-349.5 1068.5,-355.5 1068.5,-361.5 1068.5,-361.5 1068.5,-405.5 1068.5,-405.5 1068.5,-411.5 1062.5,-417.5 1056.5,-417.5"/>
<text text-anchor="middle" x="1010" y="-402.3" font-family="Helvetica,sans-Serif" font-size="14.00">gini = 0.0</text>
<text text-anchor="middle" x="1010" y="-387.3" font-family="Helvetica,sans-Serif" font-size="14.00">samples = 39</text>
<text text-anchor="middle" x="1010" y="-372.3" font-family="Helvetica,sans-Serif" font-size="14.00">value = [39, 0, 0]</text>
<text text-anchor="middle" x="1010" y="-357.3" font-family="Helvetica,sans-Serif" font-size="14.00">class = 琴酒</text>
</g>
<!-- 20&#45;&gt;21 -->
<g id="edge21" class="edge"><title>20&#45;&gt;21</title>
<path fill="none" stroke="black" d="M1010,-460.907C1010,-450.204 1010,-438.615 1010,-427.776"/>
<polygon fill="black" stroke="black" points="1013.5,-427.667 1010,-417.667 1006.5,-427.667 1013.5,-427.667"/>
</g>
<!-- 22 -->
<g id="node23" class="node"><title>22</title>
<path fill="#39e581" stroke="black" d="M1185,-417.5C1185,-417.5 1099,-417.5 1099,-417.5 1093,-417.5 1087,-411.5 1087,-405.5 1087,-405.5 1087,-361.5 1087,-361.5 1087,-355.5 1093,-349.5 1099,-349.5 1099,-349.5 1185,-349.5 1185,-349.5 1191,-349.5 1197,-355.5 1197,-361.5 1197,-361.5 1197,-405.5 1197,-405.5 1197,-411.5 1191,-417.5 1185,-417.5"/>
<text text-anchor="middle" x="1142" y="-402.3" font-family="Helvetica,sans-Serif" font-size="14.00">gini = 0.0</text>
<text text-anchor="middle" x="1142" y="-387.3" font-family="Helvetica,sans-Serif" font-size="14.00">samples = 1</text>
<text text-anchor="middle" x="1142" y="-372.3" font-family="Helvetica,sans-Serif" font-size="14.00">value = [0, 1, 0]</text>
<text text-anchor="middle" x="1142" y="-357.3" font-family="Helvetica,sans-Serif" font-size="14.00">class = 雪梨</text>
</g>
<!-- 20&#45;&gt;22 -->
<g id="edge22" class="edge"><title>20&#45;&gt;22</title>
<path fill="none" stroke="black" d="M1055.8,-460.907C1069.12,-449.101 1083.65,-436.217 1096.93,-424.45"/>
<polygon fill="black" stroke="black" points="1099.42,-426.919 1104.58,-417.667 1094.78,-421.681 1099.42,-426.919"/>
</g>
</g>
</svg>
