<?xml version="1.0" encoding="UTF-8" standalone="no"?>
<!DOCTYPE svg PUBLIC "-//W3C//DTD SVG 1.1//EN"
 "http://www.w3.org/Graphics/SVG/1.1/DTD/svg11.dtd">
<!-- Generated by graphviz version 2.38.0 (20140413.2041)
 -->
<!-- Title: Tree Pages: 1 -->
<svg width="741pt" height="671pt"
 viewBox="0.00 0.00 740.50 671.00" xmlns="http://www.w3.org/2000/svg" xmlns:xlink="http://www.w3.org/1999/xlink">
<g id="graph0" class="graph" transform="scale(1 1) rotate(0) translate(4 667)">
<title>Tree</title>
<polygon fill="white" stroke="none" points="-4,4 -4,-667 736.5,-667 736.5,4 -4,4"/>
<!-- 0 -->
<g id="node1" class="node"><title>0</title>
<path fill="#e1fbec" stroke="black" d="M350,-663C350,-663 242,-663 242,-663 236,-663 230,-657 230,-651 230,-651 230,-592 230,-592 230,-586 236,-580 242,-580 242,-580 350,-580 350,-580 356,-580 362,-586 362,-592 362,-592 362,-651 362,-651 362,-657 356,-663 350,-663"/>
<text text-anchor="start" x="256.5" y="-647.8" font-family="Helvetica,sans-Serif" font-size="14.00">总酚 ≤ 2.025</text>
<text text-anchor="start" x="260.5" y="-632.8" font-family="Helvetica,sans-Serif" font-size="14.00">gini = 0.659</text>
<text text-anchor="start" x="255" y="-617.8" font-family="Helvetica,sans-Serif" font-size="14.00">samples = 83</text>
<text text-anchor="start" x="238" y="-602.8" font-family="Helvetica,sans-Serif" font-size="14.00">value = [37, 50, 37]</text>
<text text-anchor="start" x="258" y="-587.8" font-family="Helvetica,sans-Serif" font-size="14.00">class = 雪梨</text>
</g>
<!-- 1 -->
<g id="node2" class="node"><title>1</title>
<path fill="#be99f2" stroke="black" d="M275.5,-544C275.5,-544 174.5,-544 174.5,-544 168.5,-544 162.5,-538 162.5,-532 162.5,-532 162.5,-473 162.5,-473 162.5,-467 168.5,-461 174.5,-461 174.5,-461 275.5,-461 275.5,-461 281.5,-461 287.5,-467 287.5,-473 287.5,-473 287.5,-532 287.5,-532 287.5,-538 281.5,-544 275.5,-544"/>
<text text-anchor="start" x="182.5" y="-528.8" font-family="Helvetica,sans-Serif" font-size="14.00">花青素 ≤ 1.55</text>
<text text-anchor="start" x="193" y="-513.8" font-family="Helvetica,sans-Serif" font-size="14.00">gini = 0.44</text>
<text text-anchor="start" x="184" y="-498.8" font-family="Helvetica,sans-Serif" font-size="14.00">samples = 31</text>
<text text-anchor="start" x="170.5" y="-483.8" font-family="Helvetica,sans-Serif" font-size="14.00">value = [0, 16, 33]</text>
<text text-anchor="start" x="173" y="-468.8" font-family="Helvetica,sans-Serif" font-size="14.00">class = 贝尔摩德</text>
</g>
<!-- 0&#45;&gt;1 -->
<g id="edge1" class="edge"><title>0&#45;&gt;1</title>
<path fill="none" stroke="black" d="M271.367,-579.907C266.025,-571.105 260.32,-561.703 254.803,-552.612"/>
<polygon fill="black" stroke="black" points="257.77,-550.754 249.59,-544.021 251.785,-554.386 257.77,-550.754"/>
<text text-anchor="middle" x="243.648" y="-564.604" font-family="Helvetica,sans-Serif" font-size="14.00">True</text>
</g>
<!-- 6 -->
<g id="node7" class="node"><title>6</title>
<path fill="#fdf6f1" stroke="black" d="M418.5,-544C418.5,-544 317.5,-544 317.5,-544 311.5,-544 305.5,-538 305.5,-532 305.5,-532 305.5,-473 305.5,-473 305.5,-467 311.5,-461 317.5,-461 317.5,-461 418.5,-461 418.5,-461 424.5,-461 430.5,-467 430.5,-473 430.5,-473 430.5,-532 430.5,-532 430.5,-538 424.5,-544 418.5,-544"/>
<text text-anchor="start" x="318" y="-528.8" font-family="Helvetica,sans-Serif" font-size="14.00">颜色强度 ≤ 3.45</text>
<text text-anchor="start" x="332.5" y="-513.8" font-family="Helvetica,sans-Serif" font-size="14.00">gini = 0.548</text>
<text text-anchor="start" x="327" y="-498.8" font-family="Helvetica,sans-Serif" font-size="14.00">samples = 52</text>
<text text-anchor="start" x="313.5" y="-483.8" font-family="Helvetica,sans-Serif" font-size="14.00">value = [37, 34, 4]</text>
<text text-anchor="start" x="330" y="-468.8" font-family="Helvetica,sans-Serif" font-size="14.00">class = 琴酒</text>
</g>
<!-- 0&#45;&gt;6 -->
<g id="edge6" class="edge"><title>0&#45;&gt;6</title>
<path fill="none" stroke="black" d="M320.98,-579.907C326.397,-571.105 332.183,-561.703 337.777,-552.612"/>
<polygon fill="black" stroke="black" points="340.804,-554.372 343.064,-544.021 334.842,-550.703 340.804,-554.372"/>
<text text-anchor="middle" x="348.855" y="-564.641" font-family="Helvetica,sans-Serif" font-size="14.00">False</text>
</g>
<!-- 2 -->
<g id="node3" class="node"><title>2</title>
<path fill="#9051e8" stroke="black" d="M138,-425C138,-425 42,-425 42,-425 36,-425 30,-419 30,-413 30,-413 30,-354 30,-354 30,-348 36,-342 42,-342 42,-342 138,-342 138,-342 144,-342 150,-348 150,-354 150,-354 150,-413 150,-413 150,-419 144,-425 138,-425"/>
<text text-anchor="start" x="40" y="-409.8" font-family="Helvetica,sans-Serif" font-size="14.00">颜色强度 ≤ 4.05</text>
<text text-anchor="start" x="54.5" y="-394.8" font-family="Helvetica,sans-Serif" font-size="14.00">gini = 0.193</text>
<text text-anchor="start" x="49" y="-379.8" font-family="Helvetica,sans-Serif" font-size="14.00">samples = 24</text>
<text text-anchor="start" x="39.5" y="-364.8" font-family="Helvetica,sans-Serif" font-size="14.00">value = [0, 4, 33]</text>
<text text-anchor="start" x="38" y="-349.8" font-family="Helvetica,sans-Serif" font-size="14.00">class = 贝尔摩德</text>
</g>
<!-- 1&#45;&gt;2 -->
<g id="edge2" class="edge"><title>1&#45;&gt;2</title>
<path fill="none" stroke="black" d="M178.162,-460.907C167.272,-451.469 155.588,-441.343 144.403,-431.649"/>
<polygon fill="black" stroke="black" points="146.604,-428.925 136.755,-425.021 142.019,-434.215 146.604,-428.925"/>
</g>
<!-- 5 -->
<g id="node6" class="node"><title>5</title>
<path fill="#39e581" stroke="black" d="M273.5,-417.5C273.5,-417.5 180.5,-417.5 180.5,-417.5 174.5,-417.5 168.5,-411.5 168.5,-405.5 168.5,-405.5 168.5,-361.5 168.5,-361.5 168.5,-355.5 174.5,-349.5 180.5,-349.5 180.5,-349.5 273.5,-349.5 273.5,-349.5 279.5,-349.5 285.5,-355.5 285.5,-361.5 285.5,-361.5 285.5,-405.5 285.5,-405.5 285.5,-411.5 279.5,-417.5 273.5,-417.5"/>
<text text-anchor="start" x="199" y="-402.3" font-family="Helvetica,sans-Serif" font-size="14.00">gini = 0.0</text>
<text text-anchor="start" x="189.5" y="-387.3" font-family="Helvetica,sans-Serif" font-size="14.00">samples = 7</text>
<text text-anchor="start" x="176.5" y="-372.3" font-family="Helvetica,sans-Serif" font-size="14.00">value = [0, 12, 0]</text>
<text text-anchor="start" x="189" y="-357.3" font-family="Helvetica,sans-Serif" font-size="14.00">class = 雪梨</text>
</g>
<!-- 1&#45;&gt;5 -->
<g id="edge5" class="edge"><title>1&#45;&gt;5</title>
<path fill="none" stroke="black" d="M225.694,-460.907C225.877,-450.204 226.075,-438.615 226.26,-427.776"/>
<polygon fill="black" stroke="black" points="229.762,-427.725 226.433,-417.667 222.763,-427.606 229.762,-427.725"/>
</g>
<!-- 3 -->
<g id="node4" class="node"><title>3</title>
<path fill="#cef8e0" stroke="black" d="M98,-298.5C98,-298.5 12,-298.5 12,-298.5 6,-298.5 0,-292.5 0,-286.5 0,-286.5 0,-242.5 0,-242.5 0,-236.5 6,-230.5 12,-230.5 12,-230.5 98,-230.5 98,-230.5 104,-230.5 110,-236.5 110,-242.5 110,-242.5 110,-286.5 110,-286.5 110,-292.5 104,-298.5 98,-298.5"/>
<text text-anchor="start" x="23" y="-283.3" font-family="Helvetica,sans-Serif" font-size="14.00">gini = 0.49</text>
<text text-anchor="start" x="17.5" y="-268.3" font-family="Helvetica,sans-Serif" font-size="14.00">samples = 4</text>
<text text-anchor="start" x="8" y="-253.3" font-family="Helvetica,sans-Serif" font-size="14.00">value = [0, 4, 3]</text>
<text text-anchor="start" x="17" y="-238.3" font-family="Helvetica,sans-Serif" font-size="14.00">class = 雪梨</text>
</g>
<!-- 2&#45;&gt;3 -->
<g id="edge3" class="edge"><title>2&#45;&gt;3</title>
<path fill="none" stroke="black" d="M77.8569,-341.907C74.622,-331.094 71.1168,-319.376 67.8457,-308.441"/>
<polygon fill="black" stroke="black" points="71.141,-307.244 64.9217,-298.667 64.4346,-309.251 71.141,-307.244"/>
</g>
<!-- 4 -->
<g id="node5" class="node"><title>4</title>
<path fill="#8139e5" stroke="black" d="M236,-298.5C236,-298.5 140,-298.5 140,-298.5 134,-298.5 128,-292.5 128,-286.5 128,-286.5 128,-242.5 128,-242.5 128,-236.5 134,-230.5 140,-230.5 140,-230.5 236,-230.5 236,-230.5 242,-230.5 248,-236.5 248,-242.5 248,-242.5 248,-286.5 248,-286.5 248,-292.5 242,-298.5 236,-298.5"/>
<text text-anchor="start" x="160" y="-283.3" font-family="Helvetica,sans-Serif" font-size="14.00">gini = 0.0</text>
<text text-anchor="start" x="147" y="-268.3" font-family="Helvetica,sans-Serif" font-size="14.00">samples = 20</text>
<text text-anchor="start" x="137.5" y="-253.3" font-family="Helvetica,sans-Serif" font-size="14.00">value = [0, 0, 30]</text>
<text text-anchor="start" x="136" y="-238.3" font-family="Helvetica,sans-Serif" font-size="14.00">class = 贝尔摩德</text>
</g>
<!-- 2&#45;&gt;4 -->
<g id="edge4" class="edge"><title>2&#45;&gt;4</title>
<path fill="none" stroke="black" d="M124.001,-341.907C133.613,-330.432 144.077,-317.938 153.707,-306.442"/>
<polygon fill="black" stroke="black" points="156.481,-308.58 160.219,-298.667 151.115,-304.086 156.481,-308.58"/>
</g>
<!-- 7 -->
<g id="node8" class="node"><title>7</title>
<path fill="#39e581" stroke="black" d="M412.5,-417.5C412.5,-417.5 319.5,-417.5 319.5,-417.5 313.5,-417.5 307.5,-411.5 307.5,-405.5 307.5,-405.5 307.5,-361.5 307.5,-361.5 307.5,-355.5 313.5,-349.5 319.5,-349.5 319.5,-349.5 412.5,-349.5 412.5,-349.5 418.5,-349.5 424.5,-355.5 424.5,-361.5 424.5,-361.5 424.5,-405.5 424.5,-405.5 424.5,-411.5 418.5,-417.5 412.5,-417.5"/>
<text text-anchor="start" x="338" y="-402.3" font-family="Helvetica,sans-Serif" font-size="14.00">gini = 0.0</text>
<text text-anchor="start" x="325" y="-387.3" font-family="Helvetica,sans-Serif" font-size="14.00">samples = 18</text>
<text text-anchor="start" x="315.5" y="-372.3" font-family="Helvetica,sans-Serif" font-size="14.00">value = [0, 24, 0]</text>
<text text-anchor="start" x="328" y="-357.3" font-family="Helvetica,sans-Serif" font-size="14.00">class = 雪梨</text>
</g>
<!-- 6&#45;&gt;7 -->
<g id="edge7" class="edge"><title>6&#45;&gt;7</title>
<path fill="none" stroke="black" d="M367.306,-460.907C367.123,-450.204 366.925,-438.615 366.74,-427.776"/>
<polygon fill="black" stroke="black" points="370.237,-427.606 366.567,-417.667 363.238,-427.725 370.237,-427.606"/>
</g>
<!-- 8 -->
<g id="node9" class="node"><title>8</title>
<path fill="#eeac7d" stroke="black" d="M555.5,-425C555.5,-425 454.5,-425 454.5,-425 448.5,-425 442.5,-419 442.5,-413 442.5,-413 442.5,-354 442.5,-354 442.5,-348 448.5,-342 454.5,-342 454.5,-342 555.5,-342 555.5,-342 561.5,-342 567.5,-348 567.5,-354 567.5,-354 567.5,-413 567.5,-413 567.5,-419 561.5,-425 555.5,-425"/>
<text text-anchor="start" x="473" y="-409.8" font-family="Helvetica,sans-Serif" font-size="14.00">色调 ≤ 0.9</text>
<text text-anchor="start" x="469.5" y="-394.8" font-family="Helvetica,sans-Serif" font-size="14.00">gini = 0.429</text>
<text text-anchor="start" x="464" y="-379.8" font-family="Helvetica,sans-Serif" font-size="14.00">samples = 34</text>
<text text-anchor="start" x="450.5" y="-364.8" font-family="Helvetica,sans-Serif" font-size="14.00">value = [37, 10, 4]</text>
<text text-anchor="start" x="467" y="-349.8" font-family="Helvetica,sans-Serif" font-size="14.00">class = 琴酒</text>
</g>
<!-- 6&#45;&gt;8 -->
<g id="edge8" class="edge"><title>6&#45;&gt;8</title>
<path fill="none" stroke="black" d="M415.531,-460.907C426.583,-451.469 438.44,-441.343 449.791,-431.649"/>
<polygon fill="black" stroke="black" points="452.221,-434.177 457.553,-425.021 447.675,-428.854 452.221,-434.177"/>
</g>
<!-- 9 -->
<g id="node10" class="node"><title>9</title>
<path fill="#e0cef8" stroke="black" d="M444,-298.5C444,-298.5 348,-298.5 348,-298.5 342,-298.5 336,-292.5 336,-286.5 336,-286.5 336,-242.5 336,-242.5 336,-236.5 342,-230.5 348,-230.5 348,-230.5 444,-230.5 444,-230.5 450,-230.5 456,-236.5 456,-242.5 456,-242.5 456,-286.5 456,-286.5 456,-292.5 450,-298.5 444,-298.5"/>
<text text-anchor="start" x="364" y="-283.3" font-family="Helvetica,sans-Serif" font-size="14.00">gini = 0.49</text>
<text text-anchor="start" x="358.5" y="-268.3" font-family="Helvetica,sans-Serif" font-size="14.00">samples = 6</text>
<text text-anchor="start" x="349" y="-253.3" font-family="Helvetica,sans-Serif" font-size="14.00">value = [3, 0, 4]</text>
<text text-anchor="start" x="344" y="-238.3" font-family="Helvetica,sans-Serif" font-size="14.00">class = 贝尔摩德</text>
</g>
<!-- 8&#45;&gt;9 -->
<g id="edge9" class="edge"><title>8&#45;&gt;9</title>
<path fill="none" stroke="black" d="M467.183,-341.907C456.389,-330.321 444.629,-317.698 433.834,-306.111"/>
<polygon fill="black" stroke="black" points="436.277,-303.598 426.899,-298.667 431.155,-308.37 436.277,-303.598"/>
</g>
<!-- 10 -->
<g id="node11" class="node"><title>10</title>
<path fill="#eda673" stroke="black" d="M587.5,-306C587.5,-306 486.5,-306 486.5,-306 480.5,-306 474.5,-300 474.5,-294 474.5,-294 474.5,-235 474.5,-235 474.5,-229 480.5,-223 486.5,-223 486.5,-223 587.5,-223 587.5,-223 593.5,-223 599.5,-229 599.5,-235 599.5,-235 599.5,-294 599.5,-294 599.5,-300 593.5,-306 587.5,-306"/>
<text text-anchor="start" x="508.5" y="-290.8" font-family="Helvetica,sans-Serif" font-size="14.00">镁 ≤ 88.5</text>
<text text-anchor="start" x="501.5" y="-275.8" font-family="Helvetica,sans-Serif" font-size="14.00">gini = 0.351</text>
<text text-anchor="start" x="496" y="-260.8" font-family="Helvetica,sans-Serif" font-size="14.00">samples = 28</text>
<text text-anchor="start" x="482.5" y="-245.8" font-family="Helvetica,sans-Serif" font-size="14.00">value = [34, 10, 0]</text>
<text text-anchor="start" x="499" y="-230.8" font-family="Helvetica,sans-Serif" font-size="14.00">class = 琴酒</text>
</g>
<!-- 8&#45;&gt;10 -->
<g id="edge10" class="edge"><title>8&#45;&gt;10</title>
<path fill="none" stroke="black" d="M516.102,-341.907C518.411,-333.468 520.869,-324.477 523.26,-315.738"/>
<polygon fill="black" stroke="black" points="526.655,-316.59 525.917,-306.021 519.903,-314.743 526.655,-316.59"/>
</g>
<!-- 11 -->
<g id="node12" class="node"><title>11</title>
<path fill="#39e581" stroke="black" d="M509,-179.5C509,-179.5 423,-179.5 423,-179.5 417,-179.5 411,-173.5 411,-167.5 411,-167.5 411,-123.5 411,-123.5 411,-117.5 417,-111.5 423,-111.5 423,-111.5 509,-111.5 509,-111.5 515,-111.5 521,-117.5 521,-123.5 521,-123.5 521,-167.5 521,-167.5 521,-173.5 515,-179.5 509,-179.5"/>
<text text-anchor="start" x="438" y="-164.3" font-family="Helvetica,sans-Serif" font-size="14.00">gini = 0.0</text>
<text text-anchor="start" x="428.5" y="-149.3" font-family="Helvetica,sans-Serif" font-size="14.00">samples = 5</text>
<text text-anchor="start" x="419" y="-134.3" font-family="Helvetica,sans-Serif" font-size="14.00">value = [0, 9, 0]</text>
<text text-anchor="start" x="428" y="-119.3" font-family="Helvetica,sans-Serif" font-size="14.00">class = 雪梨</text>
</g>
<!-- 10&#45;&gt;11 -->
<g id="edge11" class="edge"><title>10&#45;&gt;11</title>
<path fill="none" stroke="black" d="M512.367,-222.907C505.604,-211.763 498.258,-199.658 491.45,-188.439"/>
<polygon fill="black" stroke="black" points="494.307,-186.4 486.127,-179.667 488.323,-190.032 494.307,-186.4"/>
</g>
<!-- 12 -->
<g id="node13" class="node"><title>12</title>
<path fill="#e6853f" stroke="black" d="M664.5,-187C664.5,-187 551.5,-187 551.5,-187 545.5,-187 539.5,-181 539.5,-175 539.5,-175 539.5,-116 539.5,-116 539.5,-110 545.5,-104 551.5,-104 551.5,-104 664.5,-104 664.5,-104 670.5,-104 676.5,-110 676.5,-116 676.5,-116 676.5,-175 676.5,-175 676.5,-181 670.5,-187 664.5,-187"/>
<text text-anchor="start" x="547.5" y="-171.8" font-family="Helvetica,sans-Serif" font-size="14.00">稀释葡萄酒 ≤ 2.875</text>
<text text-anchor="start" x="572.5" y="-156.8" font-family="Helvetica,sans-Serif" font-size="14.00">gini = 0.056</text>
<text text-anchor="start" x="567" y="-141.8" font-family="Helvetica,sans-Serif" font-size="14.00">samples = 23</text>
<text text-anchor="start" x="557.5" y="-126.8" font-family="Helvetica,sans-Serif" font-size="14.00">value = [34, 1, 0]</text>
<text text-anchor="start" x="570" y="-111.8" font-family="Helvetica,sans-Serif" font-size="14.00">class = 琴酒</text>
</g>
<!-- 10&#45;&gt;12 -->
<g id="edge12" class="edge"><title>10&#45;&gt;12</title>
<path fill="none" stroke="black" d="M561.633,-222.907C566.975,-214.105 572.68,-204.703 578.197,-195.612"/>
<polygon fill="black" stroke="black" points="581.215,-197.386 583.41,-187.021 575.23,-193.754 581.215,-197.386"/>
</g>
<!-- 13 -->
<g id="node14" class="node"><title>13</title>
<path fill="#e9965a" stroke="black" d="M585,-68C585,-68 499,-68 499,-68 493,-68 487,-62 487,-56 487,-56 487,-12 487,-12 487,-6 493,-0 499,-0 499,-0 585,-0 585,-0 591,-0 597,-6 597,-12 597,-12 597,-56 597,-56 597,-62 591,-68 585,-68"/>
<text text-anchor="start" x="506.5" y="-52.8" font-family="Helvetica,sans-Serif" font-size="14.00">gini = 0.245</text>
<text text-anchor="start" x="504.5" y="-37.8" font-family="Helvetica,sans-Serif" font-size="14.00">samples = 5</text>
<text text-anchor="start" x="495" y="-22.8" font-family="Helvetica,sans-Serif" font-size="14.00">value = [6, 1, 0]</text>
<text text-anchor="start" x="504" y="-7.8" font-family="Helvetica,sans-Serif" font-size="14.00">class = 琴酒</text>
</g>
<!-- 12&#45;&gt;13 -->
<g id="edge13" class="edge"><title>12&#45;&gt;13</title>
<path fill="none" stroke="black" d="M583.424,-103.726C578.146,-94.9703 572.561,-85.7032 567.258,-76.9051"/>
<polygon fill="black" stroke="black" points="570.231,-75.0574 562.071,-68.2996 564.236,-78.671 570.231,-75.0574"/>
</g>
<!-- 14 -->
<g id="node15" class="node"><title>14</title>
<path fill="#e58139" stroke="black" d="M720.5,-68C720.5,-68 627.5,-68 627.5,-68 621.5,-68 615.5,-62 615.5,-56 615.5,-56 615.5,-12 615.5,-12 615.5,-6 621.5,-0 627.5,-0 627.5,-0 720.5,-0 720.5,-0 726.5,-0 732.5,-6 732.5,-12 732.5,-12 732.5,-56 732.5,-56 732.5,-62 726.5,-68 720.5,-68"/>
<text text-anchor="start" x="646" y="-52.8" font-family="Helvetica,sans-Serif" font-size="14.00">gini = 0.0</text>
<text text-anchor="start" x="633" y="-37.8" font-family="Helvetica,sans-Serif" font-size="14.00">samples = 18</text>
<text text-anchor="start" x="623.5" y="-22.8" font-family="Helvetica,sans-Serif" font-size="14.00">value = [28, 0, 0]</text>
<text text-anchor="start" x="636" y="-7.8" font-family="Helvetica,sans-Serif" font-size="14.00">class = 琴酒</text>
</g>
<!-- 12&#45;&gt;14 -->
<g id="edge14" class="edge"><title>12&#45;&gt;14</title>
<path fill="none" stroke="black" d="M632.576,-103.726C637.854,-94.9703 643.439,-85.7032 648.742,-76.9051"/>
<polygon fill="black" stroke="black" points="651.764,-78.671 653.929,-68.2996 645.769,-75.0574 651.764,-78.671"/>
</g>
</g>
</svg>
