<?xml version="1.0" encoding="UTF-8" standalone="no"?>
<!DOCTYPE svg PUBLIC "-//W3C//DTD SVG 1.1//EN"
 "http://www.w3.org/Graphics/SVG/1.1/DTD/svg11.dtd">
<!-- Generated by graphviz version 2.38.0 (20140413.2041)
 -->
<!-- Title: Tree Pages: 1 -->
<svg width="416pt" height="671pt"
 viewBox="0.00 0.00 415.50 671.00" xmlns="http://www.w3.org/2000/svg" xmlns:xlink="http://www.w3.org/1999/xlink">
<g id="graph0" class="graph" transform="scale(1 1) rotate(0) translate(4 667)">
<title>Tree</title>
<polygon fill="white" stroke="none" points="-4,4 -4,-667 411.5,-667 411.5,4 -4,4"/>
<!-- 0 -->
<g id="node1" class="node"><title>0</title>
<path fill="#f5fef9" stroke="black" d="M181.5,-663C181.5,-663 73.5,-663 73.5,-663 67.5,-663 61.5,-657 61.5,-651 61.5,-651 61.5,-592 61.5,-592 61.5,-586 67.5,-580 73.5,-580 73.5,-580 181.5,-580 181.5,-580 187.5,-580 193.5,-586 193.5,-592 193.5,-592 193.5,-651 193.5,-651 193.5,-657 187.5,-663 181.5,-663"/>
<text text-anchor="start" x="77.5" y="-647.8" font-family="Helvetica,sans-Serif" font-size="14.00">颜色强度 ≤ 3.49</text>
<text text-anchor="start" x="92" y="-632.8" font-family="Helvetica,sans-Serif" font-size="14.00">gini = 0.654</text>
<text text-anchor="start" x="86.5" y="-617.8" font-family="Helvetica,sans-Serif" font-size="14.00">samples = 81</text>
<text text-anchor="start" x="69.5" y="-602.8" font-family="Helvetica,sans-Serif" font-size="14.00">value = [45, 49, 30]</text>
<text text-anchor="start" x="89.5" y="-587.8" font-family="Helvetica,sans-Serif" font-size="14.00">class = 雪梨</text>
</g>
<!-- 1 -->
<g id="node2" class="node"><title>1</title>
<path fill="#39e581" stroke="black" d="M105,-536.5C105,-536.5 12,-536.5 12,-536.5 6,-536.5 -7.10543e-15,-530.5 -7.10543e-15,-524.5 -7.10543e-15,-524.5 -7.10543e-15,-480.5 -7.10543e-15,-480.5 -7.10543e-15,-474.5 6,-468.5 12,-468.5 12,-468.5 105,-468.5 105,-468.5 111,-468.5 117,-474.5 117,-480.5 117,-480.5 117,-524.5 117,-524.5 117,-530.5 111,-536.5 105,-536.5"/>
<text text-anchor="start" x="30.5" y="-521.3" font-family="Helvetica,sans-Serif" font-size="14.00">gini = 0.0</text>
<text text-anchor="start" x="17.5" y="-506.3" font-family="Helvetica,sans-Serif" font-size="14.00">samples = 29</text>
<text text-anchor="start" x="8" y="-491.3" font-family="Helvetica,sans-Serif" font-size="14.00">value = [0, 44, 0]</text>
<text text-anchor="start" x="20.5" y="-476.3" font-family="Helvetica,sans-Serif" font-size="14.00">class = 雪梨</text>
</g>
<!-- 0&#45;&gt;1 -->
<g id="edge1" class="edge"><title>0&#45;&gt;1</title>
<path fill="none" stroke="black" d="M103.561,-579.907C96.9882,-568.763 89.8496,-556.658 83.2334,-545.439"/>
<polygon fill="black" stroke="black" points="86.1547,-543.503 78.06,-536.667 80.1251,-547.059 86.1547,-543.503"/>
<text text-anchor="middle" x="71.813" y="-557.174" font-family="Helvetica,sans-Serif" font-size="14.00">True</text>
</g>
<!-- 2 -->
<g id="node3" class="node"><title>2</title>
<path fill="#f7d9c4" stroke="black" d="M248,-544C248,-544 147,-544 147,-544 141,-544 135,-538 135,-532 135,-532 135,-473 135,-473 135,-467 141,-461 147,-461 147,-461 248,-461 248,-461 254,-461 260,-467 260,-473 260,-473 260,-532 260,-532 260,-538 254,-544 248,-544"/>
<text text-anchor="start" x="151" y="-528.8" font-family="Helvetica,sans-Serif" font-size="14.00">花青素 ≤ 1.325</text>
<text text-anchor="start" x="162" y="-513.8" font-family="Helvetica,sans-Serif" font-size="14.00">gini = 0.539</text>
<text text-anchor="start" x="156.5" y="-498.8" font-family="Helvetica,sans-Serif" font-size="14.00">samples = 52</text>
<text text-anchor="start" x="143" y="-483.8" font-family="Helvetica,sans-Serif" font-size="14.00">value = [45, 5, 30]</text>
<text text-anchor="start" x="159.5" y="-468.8" font-family="Helvetica,sans-Serif" font-size="14.00">class = 琴酒</text>
</g>
<!-- 0&#45;&gt;2 -->
<g id="edge2" class="edge"><title>0&#45;&gt;2</title>
<path fill="none" stroke="black" d="M151.786,-579.907C157.053,-571.105 162.678,-561.703 168.117,-552.612"/>
<polygon fill="black" stroke="black" points="171.126,-554.399 173.257,-544.021 165.119,-550.805 171.126,-554.399"/>
<text text-anchor="middle" x="179.351" y="-564.567" font-family="Helvetica,sans-Serif" font-size="14.00">False</text>
</g>
<!-- 3 -->
<g id="node4" class="node"><title>3</title>
<path fill="#8139e5" stroke="black" d="M168.5,-417.5C168.5,-417.5 72.5,-417.5 72.5,-417.5 66.5,-417.5 60.5,-411.5 60.5,-405.5 60.5,-405.5 60.5,-361.5 60.5,-361.5 60.5,-355.5 66.5,-349.5 72.5,-349.5 72.5,-349.5 168.5,-349.5 168.5,-349.5 174.5,-349.5 180.5,-355.5 180.5,-361.5 180.5,-361.5 180.5,-405.5 180.5,-405.5 180.5,-411.5 174.5,-417.5 168.5,-417.5"/>
<text text-anchor="start" x="92.5" y="-402.3" font-family="Helvetica,sans-Serif" font-size="14.00">gini = 0.0</text>
<text text-anchor="start" x="79.5" y="-387.3" font-family="Helvetica,sans-Serif" font-size="14.00">samples = 17</text>
<text text-anchor="start" x="70" y="-372.3" font-family="Helvetica,sans-Serif" font-size="14.00">value = [0, 0, 20]</text>
<text text-anchor="start" x="68.5" y="-357.3" font-family="Helvetica,sans-Serif" font-size="14.00">class = 贝尔摩德</text>
</g>
<!-- 2&#45;&gt;3 -->
<g id="edge3" class="edge"><title>2&#45;&gt;3</title>
<path fill="none" stroke="black" d="M170.785,-460.907C163.378,-449.652 155.327,-437.418 147.882,-426.106"/>
<polygon fill="black" stroke="black" points="150.749,-424.096 142.328,-417.667 144.902,-427.944 150.749,-424.096"/>
</g>
<!-- 4 -->
<g id="node5" class="node"><title>4</title>
<path fill="#eda774" stroke="black" d="M338.5,-425C338.5,-425 210.5,-425 210.5,-425 204.5,-425 198.5,-419 198.5,-413 198.5,-413 198.5,-354 198.5,-354 198.5,-348 204.5,-342 210.5,-342 210.5,-342 338.5,-342 338.5,-342 344.5,-342 350.5,-348 350.5,-354 350.5,-354 350.5,-413 350.5,-413 350.5,-419 344.5,-425 338.5,-425"/>
<text text-anchor="start" x="206.5" y="-409.8" font-family="Helvetica,sans-Serif" font-size="14.00">非黄烷类分类 ≤ 0.475</text>
<text text-anchor="start" x="239" y="-394.8" font-family="Helvetica,sans-Serif" font-size="14.00">gini = 0.403</text>
<text text-anchor="start" x="233.5" y="-379.8" font-family="Helvetica,sans-Serif" font-size="14.00">samples = 35</text>
<text text-anchor="start" x="220" y="-364.8" font-family="Helvetica,sans-Serif" font-size="14.00">value = [45, 5, 10]</text>
<text text-anchor="start" x="236.5" y="-349.8" font-family="Helvetica,sans-Serif" font-size="14.00">class = 琴酒</text>
</g>
<!-- 2&#45;&gt;4 -->
<g id="edge4" class="edge"><title>2&#45;&gt;4</title>
<path fill="none" stroke="black" d="M224.215,-460.907C230.008,-452.105 236.195,-442.703 242.178,-433.612"/>
<polygon fill="black" stroke="black" points="245.259,-435.298 247.832,-425.021 239.411,-431.45 245.259,-435.298"/>
</g>
<!-- 5 -->
<g id="node6" class="node"><title>5</title>
<path fill="#e89152" stroke="black" d="M257,-306C257,-306 144,-306 144,-306 138,-306 132,-300 132,-294 132,-294 132,-235 132,-235 132,-229 138,-223 144,-223 144,-223 257,-223 257,-223 263,-223 269,-229 269,-235 269,-235 269,-294 269,-294 269,-300 263,-306 257,-306"/>
<text text-anchor="start" x="140" y="-290.8" font-family="Helvetica,sans-Serif" font-size="14.00">稀释葡萄酒 ≤ 2.795</text>
<text text-anchor="start" x="165" y="-275.8" font-family="Helvetica,sans-Serif" font-size="14.00">gini = 0.215</text>
<text text-anchor="start" x="159.5" y="-260.8" font-family="Helvetica,sans-Serif" font-size="14.00">samples = 28</text>
<text text-anchor="start" x="150" y="-245.8" font-family="Helvetica,sans-Serif" font-size="14.00">value = [45, 3, 3]</text>
<text text-anchor="start" x="162.5" y="-230.8" font-family="Helvetica,sans-Serif" font-size="14.00">class = 琴酒</text>
</g>
<!-- 4&#45;&gt;5 -->
<g id="edge5" class="edge"><title>4&#45;&gt;5</title>
<path fill="none" stroke="black" d="M248.826,-341.907C243.258,-333.105 237.312,-323.703 231.562,-314.612"/>
<polygon fill="black" stroke="black" points="234.432,-312.601 226.129,-306.021 228.516,-316.343 234.432,-312.601"/>
</g>
<!-- 10 -->
<g id="node11" class="node"><title>10</title>
<path fill="#a572ec" stroke="black" d="M395.5,-298.5C395.5,-298.5 299.5,-298.5 299.5,-298.5 293.5,-298.5 287.5,-292.5 287.5,-286.5 287.5,-286.5 287.5,-242.5 287.5,-242.5 287.5,-236.5 293.5,-230.5 299.5,-230.5 299.5,-230.5 395.5,-230.5 395.5,-230.5 401.5,-230.5 407.5,-236.5 407.5,-242.5 407.5,-242.5 407.5,-286.5 407.5,-286.5 407.5,-292.5 401.5,-298.5 395.5,-298.5"/>
<text text-anchor="start" x="312" y="-283.3" font-family="Helvetica,sans-Serif" font-size="14.00">gini = 0.346</text>
<text text-anchor="start" x="310" y="-268.3" font-family="Helvetica,sans-Serif" font-size="14.00">samples = 7</text>
<text text-anchor="start" x="300.5" y="-253.3" font-family="Helvetica,sans-Serif" font-size="14.00">value = [0, 2, 7]</text>
<text text-anchor="start" x="295.5" y="-238.3" font-family="Helvetica,sans-Serif" font-size="14.00">class = 贝尔摩德</text>
</g>
<!-- 4&#45;&gt;10 -->
<g id="edge10" class="edge"><title>4&#45;&gt;10</title>
<path fill="none" stroke="black" d="M299.827,-341.907C306.781,-330.763 314.333,-318.658 321.333,-307.439"/>
<polygon fill="black" stroke="black" points="324.482,-309.004 326.806,-298.667 318.543,-305.298 324.482,-309.004"/>
</g>
<!-- 6 -->
<g id="node7" class="node"><title>6</title>
<path fill="#f3c7a7" stroke="black" d="M177.5,-179.5C177.5,-179.5 91.5,-179.5 91.5,-179.5 85.5,-179.5 79.5,-173.5 79.5,-167.5 79.5,-167.5 79.5,-123.5 79.5,-123.5 79.5,-117.5 85.5,-111.5 91.5,-111.5 91.5,-111.5 177.5,-111.5 177.5,-111.5 183.5,-111.5 189.5,-117.5 189.5,-123.5 189.5,-123.5 189.5,-167.5 189.5,-167.5 189.5,-173.5 183.5,-179.5 177.5,-179.5"/>
<text text-anchor="start" x="99" y="-164.3" font-family="Helvetica,sans-Serif" font-size="14.00">gini = 0.569</text>
<text text-anchor="start" x="97" y="-149.3" font-family="Helvetica,sans-Serif" font-size="14.00">samples = 7</text>
<text text-anchor="start" x="87.5" y="-134.3" font-family="Helvetica,sans-Serif" font-size="14.00">value = [7, 2, 3]</text>
<text text-anchor="start" x="96.5" y="-119.3" font-family="Helvetica,sans-Serif" font-size="14.00">class = 琴酒</text>
</g>
<!-- 5&#45;&gt;6 -->
<g id="edge6" class="edge"><title>5&#45;&gt;6</title>
<path fill="none" stroke="black" d="M177.602,-222.907C171.315,-211.763 164.487,-199.658 158.158,-188.439"/>
<polygon fill="black" stroke="black" points="161.171,-186.657 153.21,-179.667 155.074,-190.096 161.171,-186.657"/>
</g>
<!-- 7 -->
<g id="node8" class="node"><title>7</title>
<path fill="#e6843e" stroke="black" d="M313,-187C313,-187 220,-187 220,-187 214,-187 208,-181 208,-175 208,-175 208,-116 208,-116 208,-110 214,-104 220,-104 220,-104 313,-104 313,-104 319,-104 325,-110 325,-116 325,-116 325,-175 325,-175 325,-181 319,-187 313,-187"/>
<text text-anchor="start" x="220" y="-171.8" font-family="Helvetica,sans-Serif" font-size="14.00">脯氨酸 ≤ 872.5</text>
<text text-anchor="start" x="234.5" y="-156.8" font-family="Helvetica,sans-Serif" font-size="14.00">gini = 0.05</text>
<text text-anchor="start" x="225.5" y="-141.8" font-family="Helvetica,sans-Serif" font-size="14.00">samples = 21</text>
<text text-anchor="start" x="216" y="-126.8" font-family="Helvetica,sans-Serif" font-size="14.00">value = [38, 1, 0]</text>
<text text-anchor="start" x="228.5" y="-111.8" font-family="Helvetica,sans-Serif" font-size="14.00">class = 琴酒</text>
</g>
<!-- 5&#45;&gt;7 -->
<g id="edge7" class="edge"><title>5&#45;&gt;7</title>
<path fill="none" stroke="black" d="M223.398,-222.907C228.313,-214.195 233.558,-204.897 238.637,-195.893"/>
<polygon fill="black" stroke="black" points="241.777,-197.45 243.642,-187.021 235.68,-194.011 241.777,-197.45"/>
</g>
<!-- 8 -->
<g id="node9" class="node"><title>8</title>
<path fill="#e9965a" stroke="black" d="M243.5,-68C243.5,-68 157.5,-68 157.5,-68 151.5,-68 145.5,-62 145.5,-56 145.5,-56 145.5,-12 145.5,-12 145.5,-6 151.5,-0 157.5,-0 157.5,-0 243.5,-0 243.5,-0 249.5,-0 255.5,-6 255.5,-12 255.5,-12 255.5,-56 255.5,-56 255.5,-62 249.5,-68 243.5,-68"/>
<text text-anchor="start" x="165" y="-52.8" font-family="Helvetica,sans-Serif" font-size="14.00">gini = 0.245</text>
<text text-anchor="start" x="163" y="-37.8" font-family="Helvetica,sans-Serif" font-size="14.00">samples = 4</text>
<text text-anchor="start" x="153.5" y="-22.8" font-family="Helvetica,sans-Serif" font-size="14.00">value = [6, 1, 0]</text>
<text text-anchor="start" x="162.5" y="-7.8" font-family="Helvetica,sans-Serif" font-size="14.00">class = 琴酒</text>
</g>
<!-- 7&#45;&gt;8 -->
<g id="edge8" class="edge"><title>7&#45;&gt;8</title>
<path fill="none" stroke="black" d="M241.924,-103.726C236.646,-94.9703 231.061,-85.7032 225.758,-76.9051"/>
<polygon fill="black" stroke="black" points="228.731,-75.0574 220.571,-68.2996 222.736,-78.671 228.731,-75.0574"/>
</g>
<!-- 9 -->
<g id="node10" class="node"><title>9</title>
<path fill="#e58139" stroke="black" d="M379,-68C379,-68 286,-68 286,-68 280,-68 274,-62 274,-56 274,-56 274,-12 274,-12 274,-6 280,-0 286,-0 286,-0 379,-0 379,-0 385,-0 391,-6 391,-12 391,-12 391,-56 391,-56 391,-62 385,-68 379,-68"/>
<text text-anchor="start" x="304.5" y="-52.8" font-family="Helvetica,sans-Serif" font-size="14.00">gini = 0.0</text>
<text text-anchor="start" x="291.5" y="-37.8" font-family="Helvetica,sans-Serif" font-size="14.00">samples = 17</text>
<text text-anchor="start" x="282" y="-22.8" font-family="Helvetica,sans-Serif" font-size="14.00">value = [32, 0, 0]</text>
<text text-anchor="start" x="294.5" y="-7.8" font-family="Helvetica,sans-Serif" font-size="14.00">class = 琴酒</text>
</g>
<!-- 7&#45;&gt;9 -->
<g id="edge9" class="edge"><title>7&#45;&gt;9</title>
<path fill="none" stroke="black" d="M291.076,-103.726C296.354,-94.9703 301.939,-85.7032 307.242,-76.9051"/>
<polygon fill="black" stroke="black" points="310.264,-78.671 312.429,-68.2996 304.269,-75.0574 310.264,-78.671"/>
</g>
</g>
</svg>
