<?xml version="1.0" encoding="UTF-8" standalone="no"?>
<!DOCTYPE svg PUBLIC "-//W3C//DTD SVG 1.1//EN"
 "http://www.w3.org/Graphics/SVG/1.1/DTD/svg11.dtd">
<!-- Generated by graphviz version 2.38.0 (20140413.2041)
 -->
<!-- Title: Tree Pages: 1 -->
<svg width="679pt" height="552pt"
 viewBox="0.00 0.00 678.50 552.00" xmlns="http://www.w3.org/2000/svg" xmlns:xlink="http://www.w3.org/1999/xlink">
<g id="graph0" class="graph" transform="scale(1 1) rotate(0) translate(4 548)">
<title>Tree</title>
<polygon fill="white" stroke="none" points="-4,4 -4,-548 674.5,-548 674.5,4 -4,4"/>
<!-- 0 -->
<g id="node1" class="node"><title>0</title>
<path fill="#e7fcef" stroke="black" d="M311.5,-544C311.5,-544 203.5,-544 203.5,-544 197.5,-544 191.5,-538 191.5,-532 191.5,-532 191.5,-473 191.5,-473 191.5,-467 197.5,-461 203.5,-461 203.5,-461 311.5,-461 311.5,-461 317.5,-461 323.5,-467 323.5,-473 323.5,-473 323.5,-532 323.5,-532 323.5,-538 317.5,-544 311.5,-544"/>
<text text-anchor="start" x="204" y="-528.8" font-family="Helvetica,sans-Serif" font-size="14.00">颜色强度 ≤ 3.915</text>
<text text-anchor="start" x="222" y="-513.8" font-family="Helvetica,sans-Serif" font-size="14.00">gini = 0.646</text>
<text text-anchor="start" x="216.5" y="-498.8" font-family="Helvetica,sans-Serif" font-size="14.00">samples = 72</text>
<text text-anchor="start" x="199.5" y="-483.8" font-family="Helvetica,sans-Serif" font-size="14.00">value = [28, 53, 43]</text>
<text text-anchor="start" x="219.5" y="-468.8" font-family="Helvetica,sans-Serif" font-size="14.00">class = 雪梨</text>
</g>
<!-- 1 -->
<g id="node2" class="node"><title>1</title>
<path fill="#46e78a" stroke="black" d="M235,-425C235,-425 142,-425 142,-425 136,-425 130,-419 130,-413 130,-413 130,-354 130,-354 130,-348 136,-342 142,-342 142,-342 235,-342 235,-342 241,-342 247,-348 247,-354 247,-354 247,-413 247,-413 247,-419 241,-425 235,-425"/>
<text text-anchor="start" x="142" y="-409.8" font-family="Helvetica,sans-Serif" font-size="14.00">脯氨酸 ≤ 774.0</text>
<text text-anchor="start" x="156.5" y="-394.8" font-family="Helvetica,sans-Serif" font-size="14.00">gini = 0.12</text>
<text text-anchor="start" x="147.5" y="-379.8" font-family="Helvetica,sans-Serif" font-size="14.00">samples = 29</text>
<text text-anchor="start" x="138" y="-364.8" font-family="Helvetica,sans-Serif" font-size="14.00">value = [3, 44, 0]</text>
<text text-anchor="start" x="150.5" y="-349.8" font-family="Helvetica,sans-Serif" font-size="14.00">class = 雪梨</text>
</g>
<!-- 0&#45;&gt;1 -->
<g id="edge1" class="edge"><title>0&#45;&gt;1</title>
<path fill="none" stroke="black" d="M233.561,-460.907C228.423,-452.195 222.939,-442.897 217.629,-433.893"/>
<polygon fill="black" stroke="black" points="220.492,-431.857 212.397,-425.021 214.462,-435.412 220.492,-431.857"/>
<text text-anchor="middle" x="206.15" y="-445.528" font-family="Helvetica,sans-Serif" font-size="14.00">True</text>
</g>
<!-- 4 -->
<g id="node5" class="node"><title>4</title>
<path fill="#d3baf6" stroke="black" d="M378,-425C378,-425 277,-425 277,-425 271,-425 265,-419 265,-413 265,-413 265,-354 265,-354 265,-348 271,-342 277,-342 277,-342 378,-342 378,-342 384,-342 390,-348 390,-354 390,-354 390,-413 390,-413 390,-419 384,-425 378,-425"/>
<text text-anchor="start" x="274" y="-409.8" font-family="Helvetica,sans-Serif" font-size="14.00">灰的碱性 ≤ 19.15</text>
<text text-anchor="start" x="292" y="-394.8" font-family="Helvetica,sans-Serif" font-size="14.00">gini = 0.569</text>
<text text-anchor="start" x="286.5" y="-379.8" font-family="Helvetica,sans-Serif" font-size="14.00">samples = 43</text>
<text text-anchor="start" x="273" y="-364.8" font-family="Helvetica,sans-Serif" font-size="14.00">value = [25, 9, 43]</text>
<text text-anchor="start" x="275.5" y="-349.8" font-family="Helvetica,sans-Serif" font-size="14.00">class = 贝尔摩德</text>
</g>
<!-- 0&#45;&gt;4 -->
<g id="edge4" class="edge"><title>0&#45;&gt;4</title>
<path fill="none" stroke="black" d="M281.786,-460.907C287.053,-452.105 292.678,-442.703 298.117,-433.612"/>
<polygon fill="black" stroke="black" points="301.126,-435.399 303.257,-425.021 295.119,-431.805 301.126,-435.399"/>
<text text-anchor="middle" x="309.351" y="-445.567" font-family="Helvetica,sans-Serif" font-size="14.00">False</text>
</g>
<!-- 2 -->
<g id="node3" class="node"><title>2</title>
<path fill="#39e581" stroke="black" d="M105,-298.5C105,-298.5 12,-298.5 12,-298.5 6,-298.5 -7.10543e-15,-292.5 -7.10543e-15,-286.5 -7.10543e-15,-286.5 -7.10543e-15,-242.5 -7.10543e-15,-242.5 -7.10543e-15,-236.5 6,-230.5 12,-230.5 12,-230.5 105,-230.5 105,-230.5 111,-230.5 117,-236.5 117,-242.5 117,-242.5 117,-286.5 117,-286.5 117,-292.5 111,-298.5 105,-298.5"/>
<text text-anchor="start" x="30.5" y="-283.3" font-family="Helvetica,sans-Serif" font-size="14.00">gini = 0.0</text>
<text text-anchor="start" x="17.5" y="-268.3" font-family="Helvetica,sans-Serif" font-size="14.00">samples = 24</text>
<text text-anchor="start" x="8" y="-253.3" font-family="Helvetica,sans-Serif" font-size="14.00">value = [0, 40, 0]</text>
<text text-anchor="start" x="20.5" y="-238.3" font-family="Helvetica,sans-Serif" font-size="14.00">class = 雪梨</text>
</g>
<!-- 1&#45;&gt;2 -->
<g id="edge2" class="edge"><title>1&#45;&gt;2</title>
<path fill="none" stroke="black" d="M143.397,-341.907C130.278,-330.101 115.963,-317.217 102.888,-305.45"/>
<polygon fill="black" stroke="black" points="105.127,-302.755 95.3522,-298.667 100.444,-307.958 105.127,-302.755"/>
</g>
<!-- 3 -->
<g id="node4" class="node"><title>3</title>
<path fill="#cef8e0" stroke="black" d="M233.5,-298.5C233.5,-298.5 147.5,-298.5 147.5,-298.5 141.5,-298.5 135.5,-292.5 135.5,-286.5 135.5,-286.5 135.5,-242.5 135.5,-242.5 135.5,-236.5 141.5,-230.5 147.5,-230.5 147.5,-230.5 233.5,-230.5 233.5,-230.5 239.5,-230.5 245.5,-236.5 245.5,-242.5 245.5,-242.5 245.5,-286.5 245.5,-286.5 245.5,-292.5 239.5,-298.5 233.5,-298.5"/>
<text text-anchor="start" x="158.5" y="-283.3" font-family="Helvetica,sans-Serif" font-size="14.00">gini = 0.49</text>
<text text-anchor="start" x="153" y="-268.3" font-family="Helvetica,sans-Serif" font-size="14.00">samples = 5</text>
<text text-anchor="start" x="143.5" y="-253.3" font-family="Helvetica,sans-Serif" font-size="14.00">value = [3, 4, 0]</text>
<text text-anchor="start" x="152.5" y="-238.3" font-family="Helvetica,sans-Serif" font-size="14.00">class = 雪梨</text>
</g>
<!-- 1&#45;&gt;3 -->
<g id="edge3" class="edge"><title>1&#45;&gt;3</title>
<path fill="none" stroke="black" d="M189.194,-341.907C189.377,-331.204 189.575,-319.615 189.76,-308.776"/>
<polygon fill="black" stroke="black" points="193.262,-308.725 189.933,-298.667 186.263,-308.606 193.262,-308.725"/>
</g>
<!-- 5 -->
<g id="node6" class="node"><title>5</title>
<path fill="#f2c09c" stroke="black" d="M372,-306C372,-306 279,-306 279,-306 273,-306 267,-300 267,-294 267,-294 267,-235 267,-235 267,-229 273,-223 279,-223 279,-223 372,-223 372,-223 378,-223 384,-229 384,-235 384,-235 384,-294 384,-294 384,-300 378,-306 372,-306"/>
<text text-anchor="start" x="279" y="-290.8" font-family="Helvetica,sans-Serif" font-size="14.00">苹果酸 ≤ 1.415</text>
<text text-anchor="start" x="290" y="-275.8" font-family="Helvetica,sans-Serif" font-size="14.00">gini = 0.536</text>
<text text-anchor="start" x="284.5" y="-260.8" font-family="Helvetica,sans-Serif" font-size="14.00">samples = 21</text>
<text text-anchor="start" x="275" y="-245.8" font-family="Helvetica,sans-Serif" font-size="14.00">value = [23, 9, 5]</text>
<text text-anchor="start" x="287.5" y="-230.8" font-family="Helvetica,sans-Serif" font-size="14.00">class = 琴酒</text>
</g>
<!-- 4&#45;&gt;5 -->
<g id="edge5" class="edge"><title>4&#45;&gt;5</title>
<path fill="none" stroke="black" d="M326.806,-341.907C326.663,-333.558 326.511,-324.671 326.364,-316.02"/>
<polygon fill="black" stroke="black" points="329.863,-315.959 326.193,-306.021 322.864,-316.079 329.863,-315.959"/>
</g>
<!-- 10 -->
<g id="node11" class="node"><title>10</title>
<path fill="#8843e6" stroke="black" d="M520.5,-306C520.5,-306 424.5,-306 424.5,-306 418.5,-306 412.5,-300 412.5,-294 412.5,-294 412.5,-235 412.5,-235 412.5,-229 418.5,-223 424.5,-223 424.5,-223 520.5,-223 520.5,-223 526.5,-223 532.5,-229 532.5,-235 532.5,-235 532.5,-294 532.5,-294 532.5,-300 526.5,-306 520.5,-306"/>
<text text-anchor="start" x="430" y="-290.8" font-family="Helvetica,sans-Serif" font-size="14.00">苹果酸 ≤ 2.35</text>
<text text-anchor="start" x="437" y="-275.8" font-family="Helvetica,sans-Serif" font-size="14.00">gini = 0.095</text>
<text text-anchor="start" x="431.5" y="-260.8" font-family="Helvetica,sans-Serif" font-size="14.00">samples = 22</text>
<text text-anchor="start" x="422" y="-245.8" font-family="Helvetica,sans-Serif" font-size="14.00">value = [2, 0, 38]</text>
<text text-anchor="start" x="420.5" y="-230.8" font-family="Helvetica,sans-Serif" font-size="14.00">class = 贝尔摩德</text>
</g>
<!-- 4&#45;&gt;10 -->
<g id="edge10" class="edge"><title>4&#45;&gt;10</title>
<path fill="none" stroke="black" d="M377.807,-341.907C389.616,-332.379 402.295,-322.148 414.414,-312.37"/>
<polygon fill="black" stroke="black" points="416.697,-315.024 422.282,-306.021 412.302,-309.577 416.697,-315.024"/>
</g>
<!-- 6 -->
<g id="node7" class="node"><title>6</title>
<path fill="#91f1b9" stroke="black" d="M226.5,-179.5C226.5,-179.5 140.5,-179.5 140.5,-179.5 134.5,-179.5 128.5,-173.5 128.5,-167.5 128.5,-167.5 128.5,-123.5 128.5,-123.5 128.5,-117.5 134.5,-111.5 140.5,-111.5 140.5,-111.5 226.5,-111.5 226.5,-111.5 232.5,-111.5 238.5,-117.5 238.5,-123.5 238.5,-123.5 238.5,-167.5 238.5,-167.5 238.5,-173.5 232.5,-179.5 226.5,-179.5"/>
<text text-anchor="start" x="148" y="-164.3" font-family="Helvetica,sans-Serif" font-size="14.00">gini = 0.426</text>
<text text-anchor="start" x="146" y="-149.3" font-family="Helvetica,sans-Serif" font-size="14.00">samples = 6</text>
<text text-anchor="start" x="136.5" y="-134.3" font-family="Helvetica,sans-Serif" font-size="14.00">value = [0, 9, 4]</text>
<text text-anchor="start" x="145.5" y="-119.3" font-family="Helvetica,sans-Serif" font-size="14.00">class = 雪梨</text>
</g>
<!-- 5&#45;&gt;6 -->
<g id="edge6" class="edge"><title>5&#45;&gt;6</title>
<path fill="none" stroke="black" d="M276.234,-222.907C261.77,-210.99 245.975,-197.976 231.586,-186.12"/>
<polygon fill="black" stroke="black" points="233.697,-183.325 223.754,-179.667 229.246,-188.727 233.697,-183.325"/>
</g>
<!-- 7 -->
<g id="node8" class="node"><title>7</title>
<path fill="#e68642" stroke="black" d="M382,-187C382,-187 269,-187 269,-187 263,-187 257,-181 257,-175 257,-175 257,-116 257,-116 257,-110 263,-104 269,-104 269,-104 382,-104 382,-104 388,-104 394,-110 394,-116 394,-116 394,-175 394,-175 394,-181 388,-187 382,-187"/>
<text text-anchor="start" x="265" y="-171.8" font-family="Helvetica,sans-Serif" font-size="14.00">稀释葡萄酒 ≤ 3.085</text>
<text text-anchor="start" x="293.5" y="-156.8" font-family="Helvetica,sans-Serif" font-size="14.00">gini = 0.08</text>
<text text-anchor="start" x="284.5" y="-141.8" font-family="Helvetica,sans-Serif" font-size="14.00">samples = 15</text>
<text text-anchor="start" x="275" y="-126.8" font-family="Helvetica,sans-Serif" font-size="14.00">value = [23, 0, 1]</text>
<text text-anchor="start" x="287.5" y="-111.8" font-family="Helvetica,sans-Serif" font-size="14.00">class = 琴酒</text>
</g>
<!-- 5&#45;&gt;7 -->
<g id="edge7" class="edge"><title>5&#45;&gt;7</title>
<path fill="none" stroke="black" d="M325.5,-222.907C325.5,-214.649 325.5,-205.864 325.5,-197.302"/>
<polygon fill="black" stroke="black" points="329,-197.021 325.5,-187.021 322,-197.021 329,-197.021"/>
</g>
<!-- 8 -->
<g id="node9" class="node"><title>8</title>
<path fill="#e99355" stroke="black" d="M302.5,-68C302.5,-68 216.5,-68 216.5,-68 210.5,-68 204.5,-62 204.5,-56 204.5,-56 204.5,-12 204.5,-12 204.5,-6 210.5,-0 216.5,-0 216.5,-0 302.5,-0 302.5,-0 308.5,-0 314.5,-6 314.5,-12 314.5,-12 314.5,-56 314.5,-56 314.5,-62 308.5,-68 302.5,-68"/>
<text text-anchor="start" x="224" y="-52.8" font-family="Helvetica,sans-Serif" font-size="14.00">gini = 0.219</text>
<text text-anchor="start" x="222" y="-37.8" font-family="Helvetica,sans-Serif" font-size="14.00">samples = 5</text>
<text text-anchor="start" x="212.5" y="-22.8" font-family="Helvetica,sans-Serif" font-size="14.00">value = [7, 0, 1]</text>
<text text-anchor="start" x="221.5" y="-7.8" font-family="Helvetica,sans-Serif" font-size="14.00">class = 琴酒</text>
</g>
<!-- 7&#45;&gt;8 -->
<g id="edge8" class="edge"><title>7&#45;&gt;8</title>
<path fill="none" stroke="black" d="M300.924,-103.726C295.646,-94.9703 290.061,-85.7032 284.758,-76.9051"/>
<polygon fill="black" stroke="black" points="287.731,-75.0574 279.571,-68.2996 281.736,-78.671 287.731,-75.0574"/>
</g>
<!-- 9 -->
<g id="node10" class="node"><title>9</title>
<path fill="#e58139" stroke="black" d="M438,-68C438,-68 345,-68 345,-68 339,-68 333,-62 333,-56 333,-56 333,-12 333,-12 333,-6 339,-0 345,-0 345,-0 438,-0 438,-0 444,-0 450,-6 450,-12 450,-12 450,-56 450,-56 450,-62 444,-68 438,-68"/>
<text text-anchor="start" x="363.5" y="-52.8" font-family="Helvetica,sans-Serif" font-size="14.00">gini = 0.0</text>
<text text-anchor="start" x="350.5" y="-37.8" font-family="Helvetica,sans-Serif" font-size="14.00">samples = 10</text>
<text text-anchor="start" x="341" y="-22.8" font-family="Helvetica,sans-Serif" font-size="14.00">value = [16, 0, 0]</text>
<text text-anchor="start" x="353.5" y="-7.8" font-family="Helvetica,sans-Serif" font-size="14.00">class = 琴酒</text>
</g>
<!-- 7&#45;&gt;9 -->
<g id="edge9" class="edge"><title>7&#45;&gt;9</title>
<path fill="none" stroke="black" d="M350.076,-103.726C355.354,-94.9703 360.939,-85.7032 366.242,-76.9051"/>
<polygon fill="black" stroke="black" points="369.264,-78.671 371.429,-68.2996 363.269,-75.0574 369.264,-78.671"/>
</g>
<!-- 11 -->
<g id="node12" class="node"><title>11</title>
<path fill="#b388ef" stroke="black" d="M520.5,-179.5C520.5,-179.5 424.5,-179.5 424.5,-179.5 418.5,-179.5 412.5,-173.5 412.5,-167.5 412.5,-167.5 412.5,-123.5 412.5,-123.5 412.5,-117.5 418.5,-111.5 424.5,-111.5 424.5,-111.5 520.5,-111.5 520.5,-111.5 526.5,-111.5 532.5,-117.5 532.5,-123.5 532.5,-123.5 532.5,-167.5 532.5,-167.5 532.5,-173.5 526.5,-179.5 520.5,-179.5"/>
<text text-anchor="start" x="437" y="-164.3" font-family="Helvetica,sans-Serif" font-size="14.00">gini = 0.408</text>
<text text-anchor="start" x="435" y="-149.3" font-family="Helvetica,sans-Serif" font-size="14.00">samples = 4</text>
<text text-anchor="start" x="425.5" y="-134.3" font-family="Helvetica,sans-Serif" font-size="14.00">value = [2, 0, 5]</text>
<text text-anchor="start" x="420.5" y="-119.3" font-family="Helvetica,sans-Serif" font-size="14.00">class = 贝尔摩德</text>
</g>
<!-- 10&#45;&gt;11 -->
<g id="edge11" class="edge"><title>10&#45;&gt;11</title>
<path fill="none" stroke="black" d="M472.5,-222.907C472.5,-212.204 472.5,-200.615 472.5,-189.776"/>
<polygon fill="black" stroke="black" points="476,-189.667 472.5,-179.667 469,-189.667 476,-189.667"/>
</g>
<!-- 12 -->
<g id="node13" class="node"><title>12</title>
<path fill="#8139e5" stroke="black" d="M658.5,-179.5C658.5,-179.5 562.5,-179.5 562.5,-179.5 556.5,-179.5 550.5,-173.5 550.5,-167.5 550.5,-167.5 550.5,-123.5 550.5,-123.5 550.5,-117.5 556.5,-111.5 562.5,-111.5 562.5,-111.5 658.5,-111.5 658.5,-111.5 664.5,-111.5 670.5,-117.5 670.5,-123.5 670.5,-123.5 670.5,-167.5 670.5,-167.5 670.5,-173.5 664.5,-179.5 658.5,-179.5"/>
<text text-anchor="start" x="582.5" y="-164.3" font-family="Helvetica,sans-Serif" font-size="14.00">gini = 0.0</text>
<text text-anchor="start" x="569.5" y="-149.3" font-family="Helvetica,sans-Serif" font-size="14.00">samples = 18</text>
<text text-anchor="start" x="560" y="-134.3" font-family="Helvetica,sans-Serif" font-size="14.00">value = [0, 0, 33]</text>
<text text-anchor="start" x="558.5" y="-119.3" font-family="Helvetica,sans-Serif" font-size="14.00">class = 贝尔摩德</text>
</g>
<!-- 10&#45;&gt;12 -->
<g id="edge12" class="edge"><title>10&#45;&gt;12</title>
<path fill="none" stroke="black" d="M520.378,-222.907C534.305,-211.101 549.501,-198.217 563.38,-186.45"/>
<polygon fill="black" stroke="black" points="566.016,-188.803 571.38,-179.667 561.489,-183.464 566.016,-188.803"/>
</g>
</g>
</svg>
