<?xml version="1.0" encoding="UTF-8" standalone="no"?>
<!DOCTYPE svg PUBLIC "-//W3C//DTD SVG 1.1//EN"
 "http://www.w3.org/Graphics/SVG/1.1/DTD/svg11.dtd">
<!-- Generated by graphviz version 2.38.0 (20140413.2041)
 -->
<!-- Title: Tree Pages: 1 -->
<svg width="738pt" height="671pt"
 viewBox="0.00 0.00 738.00 671.00" xmlns="http://www.w3.org/2000/svg" xmlns:xlink="http://www.w3.org/1999/xlink">
<g id="graph0" class="graph" transform="scale(1 1) rotate(0) translate(4 667)">
<title>Tree</title>
<polygon fill="white" stroke="none" points="-4,4 -4,-667 734,-667 734,4 -4,4"/>
<!-- 0 -->
<g id="node1" class="node"><title>0</title>
<path fill="#e0fbec" stroke="black" d="M323.5,-663C323.5,-663 210.5,-663 210.5,-663 204.5,-663 198.5,-657 198.5,-651 198.5,-651 198.5,-592 198.5,-592 198.5,-586 204.5,-580 210.5,-580 210.5,-580 323.5,-580 323.5,-580 329.5,-580 335.5,-586 335.5,-592 335.5,-592 335.5,-651 335.5,-651 335.5,-657 329.5,-663 323.5,-663"/>
<text text-anchor="start" x="206.5" y="-647.8" font-family="Helvetica,sans-Serif" font-size="14.00">稀释葡萄酒 ≤ 2.005</text>
<text text-anchor="start" x="231.5" y="-632.8" font-family="Helvetica,sans-Serif" font-size="14.00">gini = 0.651</text>
<text text-anchor="start" x="226" y="-617.8" font-family="Helvetica,sans-Serif" font-size="14.00">samples = 77</text>
<text text-anchor="start" x="209" y="-602.8" font-family="Helvetica,sans-Serif" font-size="14.00">value = [40, 53, 31]</text>
<text text-anchor="start" x="229" y="-587.8" font-family="Helvetica,sans-Serif" font-size="14.00">class = 雪梨</text>
</g>
<!-- 1 -->
<g id="node2" class="node"><title>1</title>
<path fill="#8a47e7" stroke="black" d="M245,-544C245,-544 149,-544 149,-544 143,-544 137,-538 137,-532 137,-532 137,-473 137,-473 137,-467 143,-461 149,-461 149,-461 245,-461 245,-461 251,-461 257,-467 257,-473 257,-473 257,-532 257,-532 257,-538 251,-544 245,-544"/>
<text text-anchor="start" x="165" y="-528.8" font-family="Helvetica,sans-Serif" font-size="14.00">镁 ≤ 107.5</text>
<text text-anchor="start" x="161.5" y="-513.8" font-family="Helvetica,sans-Serif" font-size="14.00">gini = 0.121</text>
<text text-anchor="start" x="156" y="-498.8" font-family="Helvetica,sans-Serif" font-size="14.00">samples = 17</text>
<text text-anchor="start" x="146.5" y="-483.8" font-family="Helvetica,sans-Serif" font-size="14.00">value = [0, 2, 29]</text>
<text text-anchor="start" x="145" y="-468.8" font-family="Helvetica,sans-Serif" font-size="14.00">class = 贝尔摩德</text>
</g>
<!-- 0&#45;&gt;1 -->
<g id="edge1" class="edge"><title>0&#45;&gt;1</title>
<path fill="none" stroke="black" d="M242.714,-579.907C237.447,-571.105 231.822,-561.703 226.383,-552.612"/>
<polygon fill="black" stroke="black" points="229.381,-550.805 221.243,-544.021 223.374,-554.399 229.381,-550.805"/>
<text text-anchor="middle" x="215.149" y="-564.567" font-family="Helvetica,sans-Serif" font-size="14.00">True</text>
</g>
<!-- 4 -->
<g id="node5" class="node"><title>4</title>
<path fill="#d6fae5" stroke="black" d="M388.5,-544C388.5,-544 287.5,-544 287.5,-544 281.5,-544 275.5,-538 275.5,-532 275.5,-532 275.5,-473 275.5,-473 275.5,-467 281.5,-461 287.5,-461 287.5,-461 388.5,-461 388.5,-461 394.5,-461 400.5,-467 400.5,-473 400.5,-473 400.5,-532 400.5,-532 400.5,-538 394.5,-544 388.5,-544"/>
<text text-anchor="start" x="309.5" y="-528.8" font-family="Helvetica,sans-Serif" font-size="14.00">镁 ≤ 88.5</text>
<text text-anchor="start" x="302.5" y="-513.8" font-family="Helvetica,sans-Serif" font-size="14.00">gini = 0.514</text>
<text text-anchor="start" x="297" y="-498.8" font-family="Helvetica,sans-Serif" font-size="14.00">samples = 60</text>
<text text-anchor="start" x="283.5" y="-483.8" font-family="Helvetica,sans-Serif" font-size="14.00">value = [40, 51, 2]</text>
<text text-anchor="start" x="300" y="-468.8" font-family="Helvetica,sans-Serif" font-size="14.00">class = 雪梨</text>
</g>
<!-- 0&#45;&gt;4 -->
<g id="edge4" class="edge"><title>0&#45;&gt;4</title>
<path fill="none" stroke="black" d="M291.633,-579.907C296.975,-571.105 302.68,-561.703 308.197,-552.612"/>
<polygon fill="black" stroke="black" points="311.215,-554.386 313.41,-544.021 305.23,-550.754 311.215,-554.386"/>
<text text-anchor="middle" x="319.352" y="-564.604" font-family="Helvetica,sans-Serif" font-size="14.00">False</text>
</g>
<!-- 2 -->
<g id="node3" class="node"><title>2</title>
<path fill="#8139e5" stroke="black" d="M108,-417.5C108,-417.5 12,-417.5 12,-417.5 6,-417.5 7.10543e-15,-411.5 7.10543e-15,-405.5 7.10543e-15,-405.5 7.10543e-15,-361.5 7.10543e-15,-361.5 7.10543e-15,-355.5 6,-349.5 12,-349.5 12,-349.5 108,-349.5 108,-349.5 114,-349.5 120,-355.5 120,-361.5 120,-361.5 120,-405.5 120,-405.5 120,-411.5 114,-417.5 108,-417.5"/>
<text text-anchor="start" x="32" y="-402.3" font-family="Helvetica,sans-Serif" font-size="14.00">gini = 0.0</text>
<text text-anchor="start" x="19" y="-387.3" font-family="Helvetica,sans-Serif" font-size="14.00">samples = 11</text>
<text text-anchor="start" x="9.5" y="-372.3" font-family="Helvetica,sans-Serif" font-size="14.00">value = [0, 0, 21]</text>
<text text-anchor="start" x="8" y="-357.3" font-family="Helvetica,sans-Serif" font-size="14.00">class = 贝尔摩德</text>
</g>
<!-- 1&#45;&gt;2 -->
<g id="edge2" class="edge"><title>1&#45;&gt;2</title>
<path fill="none" stroke="black" d="M149.469,-460.907C135.643,-449.101 120.557,-436.217 106.779,-424.45"/>
<polygon fill="black" stroke="black" points="108.714,-421.5 98.8365,-417.667 104.168,-426.823 108.714,-421.5"/>
</g>
<!-- 3 -->
<g id="node4" class="node"><title>3</title>
<path fill="#a06aec" stroke="black" d="M246,-417.5C246,-417.5 150,-417.5 150,-417.5 144,-417.5 138,-411.5 138,-405.5 138,-405.5 138,-361.5 138,-361.5 138,-355.5 144,-349.5 150,-349.5 150,-349.5 246,-349.5 246,-349.5 252,-349.5 258,-355.5 258,-361.5 258,-361.5 258,-405.5 258,-405.5 258,-411.5 252,-417.5 246,-417.5"/>
<text text-anchor="start" x="166" y="-402.3" font-family="Helvetica,sans-Serif" font-size="14.00">gini = 0.32</text>
<text text-anchor="start" x="160.5" y="-387.3" font-family="Helvetica,sans-Serif" font-size="14.00">samples = 6</text>
<text text-anchor="start" x="151" y="-372.3" font-family="Helvetica,sans-Serif" font-size="14.00">value = [0, 2, 8]</text>
<text text-anchor="start" x="146" y="-357.3" font-family="Helvetica,sans-Serif" font-size="14.00">class = 贝尔摩德</text>
</g>
<!-- 1&#45;&gt;3 -->
<g id="edge3" class="edge"><title>1&#45;&gt;3</title>
<path fill="none" stroke="black" d="M197.347,-460.907C197.438,-450.204 197.537,-438.615 197.63,-427.776"/>
<polygon fill="black" stroke="black" points="201.131,-427.697 197.717,-417.667 194.131,-427.637 201.131,-427.697"/>
</g>
<!-- 5 -->
<g id="node6" class="node"><title>5</title>
<path fill="#39e581" stroke="black" d="M383.5,-417.5C383.5,-417.5 290.5,-417.5 290.5,-417.5 284.5,-417.5 278.5,-411.5 278.5,-405.5 278.5,-405.5 278.5,-361.5 278.5,-361.5 278.5,-355.5 284.5,-349.5 290.5,-349.5 290.5,-349.5 383.5,-349.5 383.5,-349.5 389.5,-349.5 395.5,-355.5 395.5,-361.5 395.5,-361.5 395.5,-405.5 395.5,-405.5 395.5,-411.5 389.5,-417.5 383.5,-417.5"/>
<text text-anchor="start" x="309" y="-402.3" font-family="Helvetica,sans-Serif" font-size="14.00">gini = 0.0</text>
<text text-anchor="start" x="296" y="-387.3" font-family="Helvetica,sans-Serif" font-size="14.00">samples = 19</text>
<text text-anchor="start" x="286.5" y="-372.3" font-family="Helvetica,sans-Serif" font-size="14.00">value = [0, 28, 0]</text>
<text text-anchor="start" x="299" y="-357.3" font-family="Helvetica,sans-Serif" font-size="14.00">class = 雪梨</text>
</g>
<!-- 4&#45;&gt;5 -->
<g id="edge5" class="edge"><title>4&#45;&gt;5</title>
<path fill="none" stroke="black" d="M337.653,-460.907C337.562,-450.204 337.463,-438.615 337.37,-427.776"/>
<polygon fill="black" stroke="black" points="340.869,-427.637 337.283,-417.667 333.869,-427.697 340.869,-427.637"/>
</g>
<!-- 6 -->
<g id="node7" class="node"><title>6</title>
<path fill="#f4ccaf" stroke="black" d="M526.5,-425C526.5,-425 425.5,-425 425.5,-425 419.5,-425 413.5,-419 413.5,-413 413.5,-413 413.5,-354 413.5,-354 413.5,-348 419.5,-342 425.5,-342 425.5,-342 526.5,-342 526.5,-342 532.5,-342 538.5,-348 538.5,-354 538.5,-354 538.5,-413 538.5,-413 538.5,-419 532.5,-425 526.5,-425"/>
<text text-anchor="start" x="422.5" y="-409.8" font-family="Helvetica,sans-Serif" font-size="14.00">灰的碱性 ≤ 17.35</text>
<text text-anchor="start" x="440.5" y="-394.8" font-family="Helvetica,sans-Serif" font-size="14.00">gini = 0.495</text>
<text text-anchor="start" x="435" y="-379.8" font-family="Helvetica,sans-Serif" font-size="14.00">samples = 41</text>
<text text-anchor="start" x="421.5" y="-364.8" font-family="Helvetica,sans-Serif" font-size="14.00">value = [40, 23, 2]</text>
<text text-anchor="start" x="438" y="-349.8" font-family="Helvetica,sans-Serif" font-size="14.00">class = 琴酒</text>
</g>
<!-- 4&#45;&gt;6 -->
<g id="edge6" class="edge"><title>4&#45;&gt;6</title>
<path fill="none" stroke="black" d="M385.878,-460.907C397.011,-451.469 408.954,-441.343 420.388,-431.649"/>
<polygon fill="black" stroke="black" points="422.842,-434.157 428.206,-425.021 418.315,-428.818 422.842,-434.157"/>
</g>
<!-- 7 -->
<g id="node8" class="node"><title>7</title>
<path fill="#e88d4c" stroke="black" d="M454.5,-306C454.5,-306 361.5,-306 361.5,-306 355.5,-306 349.5,-300 349.5,-294 349.5,-294 349.5,-235 349.5,-235 349.5,-229 355.5,-223 361.5,-223 361.5,-223 454.5,-223 454.5,-223 460.5,-223 466.5,-229 466.5,-235 466.5,-235 466.5,-294 466.5,-294 466.5,-300 460.5,-306 454.5,-306"/>
<text text-anchor="start" x="358" y="-290.8" font-family="Helvetica,sans-Serif" font-size="14.00">颜色强度 ≤ 4.22</text>
<text text-anchor="start" x="372.5" y="-275.8" font-family="Helvetica,sans-Serif" font-size="14.00">gini = 0.161</text>
<text text-anchor="start" x="367" y="-260.8" font-family="Helvetica,sans-Serif" font-size="14.00">samples = 22</text>
<text text-anchor="start" x="357.5" y="-245.8" font-family="Helvetica,sans-Serif" font-size="14.00">value = [31, 3, 0]</text>
<text text-anchor="start" x="370" y="-230.8" font-family="Helvetica,sans-Serif" font-size="14.00">class = 琴酒</text>
</g>
<!-- 6&#45;&gt;7 -->
<g id="edge7" class="edge"><title>6&#45;&gt;7</title>
<path fill="none" stroke="black" d="M452.408,-341.907C447.344,-333.195 441.94,-323.897 436.707,-314.893"/>
<polygon fill="black" stroke="black" points="439.602,-312.908 431.551,-306.021 433.549,-316.425 439.602,-312.908"/>
</g>
<!-- 10 -->
<g id="node11" class="node"><title>10</title>
<path fill="#9cf2c0" stroke="black" d="M589.5,-306C589.5,-306 496.5,-306 496.5,-306 490.5,-306 484.5,-300 484.5,-294 484.5,-294 484.5,-235 484.5,-235 484.5,-229 490.5,-223 496.5,-223 496.5,-223 589.5,-223 589.5,-223 595.5,-223 601.5,-229 601.5,-235 601.5,-235 601.5,-294 601.5,-294 601.5,-300 595.5,-306 589.5,-306"/>
<text text-anchor="start" x="496.5" y="-290.8" font-family="Helvetica,sans-Serif" font-size="14.00">类黄素 ≤ 2.665</text>
<text text-anchor="start" x="507.5" y="-275.8" font-family="Helvetica,sans-Serif" font-size="14.00">gini = 0.495</text>
<text text-anchor="start" x="502" y="-260.8" font-family="Helvetica,sans-Serif" font-size="14.00">samples = 19</text>
<text text-anchor="start" x="492.5" y="-245.8" font-family="Helvetica,sans-Serif" font-size="14.00">value = [9, 20, 2]</text>
<text text-anchor="start" x="505" y="-230.8" font-family="Helvetica,sans-Serif" font-size="14.00">class = 雪梨</text>
</g>
<!-- 6&#45;&gt;10 -->
<g id="edge10" class="edge"><title>6&#45;&gt;10</title>
<path fill="none" stroke="black" d="M499.245,-341.907C504.234,-333.195 509.559,-323.897 514.715,-314.893"/>
<polygon fill="black" stroke="black" points="517.864,-316.438 519.796,-306.021 511.789,-312.959 517.864,-316.438"/>
</g>
<!-- 8 -->
<g id="node9" class="node"><title>8</title>
<path fill="#f8e0ce" stroke="black" d="M319,-179.5C319,-179.5 233,-179.5 233,-179.5 227,-179.5 221,-173.5 221,-167.5 221,-167.5 221,-123.5 221,-123.5 221,-117.5 227,-111.5 233,-111.5 233,-111.5 319,-111.5 319,-111.5 325,-111.5 331,-117.5 331,-123.5 331,-123.5 331,-167.5 331,-167.5 331,-173.5 325,-179.5 319,-179.5"/>
<text text-anchor="start" x="244" y="-164.3" font-family="Helvetica,sans-Serif" font-size="14.00">gini = 0.49</text>
<text text-anchor="start" x="238.5" y="-149.3" font-family="Helvetica,sans-Serif" font-size="14.00">samples = 5</text>
<text text-anchor="start" x="229" y="-134.3" font-family="Helvetica,sans-Serif" font-size="14.00">value = [4, 3, 0]</text>
<text text-anchor="start" x="238" y="-119.3" font-family="Helvetica,sans-Serif" font-size="14.00">class = 琴酒</text>
</g>
<!-- 7&#45;&gt;8 -->
<g id="edge8" class="edge"><title>7&#45;&gt;8</title>
<path fill="none" stroke="black" d="M362.203,-222.907C348.883,-211.101 334.347,-198.217 321.071,-186.45"/>
<polygon fill="black" stroke="black" points="323.224,-183.681 313.419,-179.667 318.581,-188.919 323.224,-183.681"/>
</g>
<!-- 9 -->
<g id="node10" class="node"><title>9</title>
<path fill="#e58139" stroke="black" d="M454.5,-179.5C454.5,-179.5 361.5,-179.5 361.5,-179.5 355.5,-179.5 349.5,-173.5 349.5,-167.5 349.5,-167.5 349.5,-123.5 349.5,-123.5 349.5,-117.5 355.5,-111.5 361.5,-111.5 361.5,-111.5 454.5,-111.5 454.5,-111.5 460.5,-111.5 466.5,-117.5 466.5,-123.5 466.5,-123.5 466.5,-167.5 466.5,-167.5 466.5,-173.5 460.5,-179.5 454.5,-179.5"/>
<text text-anchor="start" x="380" y="-164.3" font-family="Helvetica,sans-Serif" font-size="14.00">gini = 0.0</text>
<text text-anchor="start" x="367" y="-149.3" font-family="Helvetica,sans-Serif" font-size="14.00">samples = 17</text>
<text text-anchor="start" x="357.5" y="-134.3" font-family="Helvetica,sans-Serif" font-size="14.00">value = [27, 0, 0]</text>
<text text-anchor="start" x="370" y="-119.3" font-family="Helvetica,sans-Serif" font-size="14.00">class = 琴酒</text>
</g>
<!-- 7&#45;&gt;9 -->
<g id="edge9" class="edge"><title>7&#45;&gt;9</title>
<path fill="none" stroke="black" d="M408,-222.907C408,-212.204 408,-200.615 408,-189.776"/>
<polygon fill="black" stroke="black" points="411.5,-189.667 408,-179.667 404.5,-189.667 411.5,-189.667"/>
</g>
<!-- 11 -->
<g id="node12" class="node"><title>11</title>
<path fill="#5cea97" stroke="black" d="M589.5,-187C589.5,-187 496.5,-187 496.5,-187 490.5,-187 484.5,-181 484.5,-175 484.5,-175 484.5,-116 484.5,-116 484.5,-110 490.5,-104 496.5,-104 496.5,-104 589.5,-104 589.5,-104 595.5,-104 601.5,-110 601.5,-116 601.5,-116 601.5,-175 601.5,-175 601.5,-181 595.5,-187 589.5,-187"/>
<text text-anchor="start" x="503.5" y="-171.8" font-family="Helvetica,sans-Serif" font-size="14.00">酒精 ≤ 12.27</text>
<text text-anchor="start" x="507.5" y="-156.8" font-family="Helvetica,sans-Serif" font-size="14.00">gini = 0.277</text>
<text text-anchor="start" x="502" y="-141.8" font-family="Helvetica,sans-Serif" font-size="14.00">samples = 12</text>
<text text-anchor="start" x="492.5" y="-126.8" font-family="Helvetica,sans-Serif" font-size="14.00">value = [1, 16, 2]</text>
<text text-anchor="start" x="505" y="-111.8" font-family="Helvetica,sans-Serif" font-size="14.00">class = 雪梨</text>
</g>
<!-- 10&#45;&gt;11 -->
<g id="edge11" class="edge"><title>10&#45;&gt;11</title>
<path fill="none" stroke="black" d="M543,-222.907C543,-214.649 543,-205.864 543,-197.302"/>
<polygon fill="black" stroke="black" points="546.5,-197.021 543,-187.021 539.5,-197.021 546.5,-197.021"/>
</g>
<!-- 14 -->
<g id="node15" class="node"><title>14</title>
<path fill="#f2c09c" stroke="black" d="M718,-179.5C718,-179.5 632,-179.5 632,-179.5 626,-179.5 620,-173.5 620,-167.5 620,-167.5 620,-123.5 620,-123.5 620,-117.5 626,-111.5 632,-111.5 632,-111.5 718,-111.5 718,-111.5 724,-111.5 730,-117.5 730,-123.5 730,-123.5 730,-167.5 730,-167.5 730,-173.5 724,-179.5 718,-179.5"/>
<text text-anchor="start" x="639.5" y="-164.3" font-family="Helvetica,sans-Serif" font-size="14.00">gini = 0.444</text>
<text text-anchor="start" x="637.5" y="-149.3" font-family="Helvetica,sans-Serif" font-size="14.00">samples = 7</text>
<text text-anchor="start" x="628" y="-134.3" font-family="Helvetica,sans-Serif" font-size="14.00">value = [8, 4, 0]</text>
<text text-anchor="start" x="637" y="-119.3" font-family="Helvetica,sans-Serif" font-size="14.00">class = 琴酒</text>
</g>
<!-- 10&#45;&gt;14 -->
<g id="edge14" class="edge"><title>10&#45;&gt;14</title>
<path fill="none" stroke="black" d="M588.797,-222.907C602.117,-211.101 616.653,-198.217 629.929,-186.45"/>
<polygon fill="black" stroke="black" points="632.419,-188.919 637.581,-179.667 627.776,-183.681 632.419,-188.919"/>
</g>
<!-- 12 -->
<g id="node13" class="node"><title>12</title>
<path fill="#39e581" stroke="black" d="M523.5,-68C523.5,-68 430.5,-68 430.5,-68 424.5,-68 418.5,-62 418.5,-56 418.5,-56 418.5,-12 418.5,-12 418.5,-6 424.5,-0 430.5,-0 430.5,-0 523.5,-0 523.5,-0 529.5,-0 535.5,-6 535.5,-12 535.5,-12 535.5,-56 535.5,-56 535.5,-62 529.5,-68 523.5,-68"/>
<text text-anchor="start" x="449" y="-52.8" font-family="Helvetica,sans-Serif" font-size="14.00">gini = 0.0</text>
<text text-anchor="start" x="439.5" y="-37.8" font-family="Helvetica,sans-Serif" font-size="14.00">samples = 6</text>
<text text-anchor="start" x="426.5" y="-22.8" font-family="Helvetica,sans-Serif" font-size="14.00">value = [0, 11, 0]</text>
<text text-anchor="start" x="439" y="-7.8" font-family="Helvetica,sans-Serif" font-size="14.00">class = 雪梨</text>
</g>
<!-- 11&#45;&gt;12 -->
<g id="edge12" class="edge"><title>11&#45;&gt;12</title>
<path fill="none" stroke="black" d="M518.424,-103.726C513.146,-94.9703 507.561,-85.7032 502.258,-76.9051"/>
<polygon fill="black" stroke="black" points="505.231,-75.0574 497.071,-68.2996 499.236,-78.671 505.231,-75.0574"/>
</g>
<!-- 13 -->
<g id="node14" class="node"><title>13</title>
<path fill="#9cf2c0" stroke="black" d="M652,-68C652,-68 566,-68 566,-68 560,-68 554,-62 554,-56 554,-56 554,-12 554,-12 554,-6 560,-0 566,-0 566,-0 652,-0 652,-0 658,-0 664,-6 664,-12 664,-12 664,-56 664,-56 664,-62 658,-68 652,-68"/>
<text text-anchor="start" x="573.5" y="-52.8" font-family="Helvetica,sans-Serif" font-size="14.00">gini = 0.531</text>
<text text-anchor="start" x="571.5" y="-37.8" font-family="Helvetica,sans-Serif" font-size="14.00">samples = 6</text>
<text text-anchor="start" x="562" y="-22.8" font-family="Helvetica,sans-Serif" font-size="14.00">value = [1, 5, 2]</text>
<text text-anchor="start" x="571" y="-7.8" font-family="Helvetica,sans-Serif" font-size="14.00">class = 雪梨</text>
</g>
<!-- 11&#45;&gt;13 -->
<g id="edge13" class="edge"><title>11&#45;&gt;13</title>
<path fill="none" stroke="black" d="M567.576,-103.726C572.854,-94.9703 578.439,-85.7032 583.742,-76.9051"/>
<polygon fill="black" stroke="black" points="586.764,-78.671 588.929,-68.2996 580.769,-75.0574 586.764,-78.671"/>
</g>
</g>
</svg>
