<?xml version="1.0" encoding="UTF-8" standalone="no"?>
<!DOCTYPE svg PUBLIC "-//W3C//DTD SVG 1.1//EN"
 "http://www.w3.org/Graphics/SVG/1.1/DTD/svg11.dtd">
<!-- Generated by graphviz version 2.38.0 (20140413.2041)
 -->
<!-- Title: Tree Pages: 1 -->
<svg width="807pt" height="433pt"
 viewBox="0.00 0.00 806.50 433.00" xmlns="http://www.w3.org/2000/svg" xmlns:xlink="http://www.w3.org/1999/xlink">
<g id="graph0" class="graph" transform="scale(1 1) rotate(0) translate(4 429)">
<title>Tree</title>
<polygon fill="white" stroke="none" points="-4,4 -4,-429 802.5,-429 802.5,4 -4,4"/>
<!-- 0 -->
<g id="node1" class="node"><title>0</title>
<path fill="#e1fbec" stroke="black" d="M452,-425C452,-425 344,-425 344,-425 338,-425 332,-419 332,-413 332,-413 332,-354 332,-354 332,-348 338,-342 344,-342 344,-342 452,-342 452,-342 458,-342 464,-348 464,-354 464,-354 464,-413 464,-413 464,-419 458,-425 452,-425"/>
<text text-anchor="start" x="351.5" y="-409.8" font-family="Helvetica,sans-Serif" font-size="14.00">脯氨酸 ≤ 760.0</text>
<text text-anchor="start" x="362.5" y="-394.8" font-family="Helvetica,sans-Serif" font-size="14.00">gini = 0.659</text>
<text text-anchor="start" x="357" y="-379.8" font-family="Helvetica,sans-Serif" font-size="14.00">samples = 81</text>
<text text-anchor="start" x="340" y="-364.8" font-family="Helvetica,sans-Serif" font-size="14.00">value = [37, 50, 37]</text>
<text text-anchor="start" x="360" y="-349.8" font-family="Helvetica,sans-Serif" font-size="14.00">class = 雪梨</text>
</g>
<!-- 1 -->
<g id="node2" class="node"><title>1</title>
<path fill="#b1f5cd" stroke="black" d="M379.5,-306C379.5,-306 278.5,-306 278.5,-306 272.5,-306 266.5,-300 266.5,-294 266.5,-294 266.5,-235 266.5,-235 266.5,-229 272.5,-223 278.5,-223 278.5,-223 379.5,-223 379.5,-223 385.5,-223 391.5,-229 391.5,-235 391.5,-235 391.5,-294 391.5,-294 391.5,-300 385.5,-306 379.5,-306"/>
<text text-anchor="start" x="279" y="-290.8" font-family="Helvetica,sans-Serif" font-size="14.00">颜色强度 ≤ 4.55</text>
<text text-anchor="start" x="297" y="-275.8" font-family="Helvetica,sans-Serif" font-size="14.00">gini = 0.47</text>
<text text-anchor="start" x="288" y="-260.8" font-family="Helvetica,sans-Serif" font-size="14.00">samples = 50</text>
<text text-anchor="start" x="274.5" y="-245.8" font-family="Helvetica,sans-Serif" font-size="14.00">value = [0, 48, 29]</text>
<text text-anchor="start" x="291" y="-230.8" font-family="Helvetica,sans-Serif" font-size="14.00">class = 雪梨</text>
</g>
<!-- 0&#45;&gt;1 -->
<g id="edge1" class="edge"><title>0&#45;&gt;1</title>
<path fill="none" stroke="black" d="M374.061,-341.907C368.923,-333.195 363.439,-323.897 358.129,-314.893"/>
<polygon fill="black" stroke="black" points="360.992,-312.857 352.897,-306.021 354.962,-316.412 360.992,-312.857"/>
<text text-anchor="middle" x="346.65" y="-326.528" font-family="Helvetica,sans-Serif" font-size="14.00">True</text>
</g>
<!-- 8 -->
<g id="node9" class="node"><title>8</title>
<path fill="#eca16c" stroke="black" d="M514.5,-306C514.5,-306 421.5,-306 421.5,-306 415.5,-306 409.5,-300 409.5,-294 409.5,-294 409.5,-235 409.5,-235 409.5,-229 415.5,-223 421.5,-223 421.5,-223 514.5,-223 514.5,-223 520.5,-223 526.5,-229 526.5,-235 526.5,-235 526.5,-294 526.5,-294 526.5,-300 520.5,-306 514.5,-306"/>
<text text-anchor="start" x="421.5" y="-290.8" font-family="Helvetica,sans-Serif" font-size="14.00">花青素 ≤ 1.325</text>
<text text-anchor="start" x="432.5" y="-275.8" font-family="Helvetica,sans-Serif" font-size="14.00">gini = 0.349</text>
<text text-anchor="start" x="427" y="-260.8" font-family="Helvetica,sans-Serif" font-size="14.00">samples = 31</text>
<text text-anchor="start" x="417.5" y="-245.8" font-family="Helvetica,sans-Serif" font-size="14.00">value = [37, 2, 8]</text>
<text text-anchor="start" x="430" y="-230.8" font-family="Helvetica,sans-Serif" font-size="14.00">class = 琴酒</text>
</g>
<!-- 0&#45;&gt;8 -->
<g id="edge8" class="edge"><title>0&#45;&gt;8</title>
<path fill="none" stroke="black" d="M422.286,-341.907C427.553,-333.105 433.178,-323.703 438.617,-314.612"/>
<polygon fill="black" stroke="black" points="441.626,-316.399 443.757,-306.021 435.619,-312.805 441.626,-316.399"/>
<text text-anchor="middle" x="449.851" y="-326.567" font-family="Helvetica,sans-Serif" font-size="14.00">False</text>
</g>
<!-- 2 -->
<g id="node3" class="node"><title>2</title>
<path fill="#42e687" stroke="black" d="M240,-187C240,-187 120,-187 120,-187 114,-187 108,-181 108,-175 108,-175 108,-116 108,-116 108,-110 114,-104 120,-104 120,-104 240,-104 240,-104 246,-104 252,-110 252,-116 252,-116 252,-175 252,-175 252,-181 246,-187 240,-187"/>
<text text-anchor="start" x="116" y="-171.8" font-family="Helvetica,sans-Serif" font-size="14.00">非黄烷类分类 ≤ 0.25</text>
<text text-anchor="start" x="144.5" y="-156.8" font-family="Helvetica,sans-Serif" font-size="14.00">gini = 0.081</text>
<text text-anchor="start" x="139" y="-141.8" font-family="Helvetica,sans-Serif" font-size="14.00">samples = 31</text>
<text text-anchor="start" x="129.5" y="-126.8" font-family="Helvetica,sans-Serif" font-size="14.00">value = [0, 45, 2]</text>
<text text-anchor="start" x="142" y="-111.8" font-family="Helvetica,sans-Serif" font-size="14.00">class = 雪梨</text>
</g>
<!-- 1&#45;&gt;2 -->
<g id="edge2" class="edge"><title>1&#45;&gt;2</title>
<path fill="none" stroke="black" d="M277.305,-222.907C265.17,-213.379 252.142,-203.148 239.689,-193.37"/>
<polygon fill="black" stroke="black" points="241.63,-190.444 231.603,-187.021 237.307,-195.949 241.63,-190.444"/>
</g>
<!-- 5 -->
<g id="node6" class="node"><title>5</title>
<path fill="#8f4fe8" stroke="black" d="M378,-187C378,-187 282,-187 282,-187 276,-187 270,-181 270,-175 270,-175 270,-116 270,-116 270,-110 276,-104 282,-104 282,-104 378,-104 378,-104 384,-104 390,-110 390,-116 390,-116 390,-175 390,-175 390,-181 384,-187 378,-187"/>
<text text-anchor="start" x="290.5" y="-171.8" font-family="Helvetica,sans-Serif" font-size="14.00">色调 ≤ 0.835</text>
<text text-anchor="start" x="298" y="-156.8" font-family="Helvetica,sans-Serif" font-size="14.00">gini = 0.18</text>
<text text-anchor="start" x="289" y="-141.8" font-family="Helvetica,sans-Serif" font-size="14.00">samples = 19</text>
<text text-anchor="start" x="279.5" y="-126.8" font-family="Helvetica,sans-Serif" font-size="14.00">value = [0, 3, 27]</text>
<text text-anchor="start" x="278" y="-111.8" font-family="Helvetica,sans-Serif" font-size="14.00">class = 贝尔摩德</text>
</g>
<!-- 1&#45;&gt;5 -->
<g id="edge5" class="edge"><title>1&#45;&gt;5</title>
<path fill="none" stroke="black" d="M329.347,-222.907C329.418,-214.649 329.493,-205.864 329.566,-197.302"/>
<polygon fill="black" stroke="black" points="333.068,-197.05 329.654,-187.021 326.068,-196.99 333.068,-197.05"/>
</g>
<!-- 3 -->
<g id="node4" class="node"><title>3</title>
<path fill="#7beeab" stroke="black" d="M98,-68C98,-68 12,-68 12,-68 6,-68 0,-62 0,-56 0,-56 0,-12 0,-12 0,-6 6,-0 12,-0 12,-0 98,-0 98,-0 104,-0 110,-6 110,-12 110,-12 110,-56 110,-56 110,-62 104,-68 98,-68"/>
<text text-anchor="start" x="19.5" y="-52.8" font-family="Helvetica,sans-Serif" font-size="14.00">gini = 0.375</text>
<text text-anchor="start" x="17.5" y="-37.8" font-family="Helvetica,sans-Serif" font-size="14.00">samples = 6</text>
<text text-anchor="start" x="8" y="-22.8" font-family="Helvetica,sans-Serif" font-size="14.00">value = [0, 6, 2]</text>
<text text-anchor="start" x="17" y="-7.8" font-family="Helvetica,sans-Serif" font-size="14.00">class = 雪梨</text>
</g>
<!-- 2&#45;&gt;3 -->
<g id="edge3" class="edge"><title>2&#45;&gt;3</title>
<path fill="none" stroke="black" d="M133.455,-103.726C122.73,-94.3318 111.334,-84.349 100.649,-74.9883"/>
<polygon fill="black" stroke="black" points="102.842,-72.2562 93.0132,-68.2996 98.229,-77.5217 102.842,-72.2562"/>
</g>
<!-- 4 -->
<g id="node5" class="node"><title>4</title>
<path fill="#39e581" stroke="black" d="M233.5,-68C233.5,-68 140.5,-68 140.5,-68 134.5,-68 128.5,-62 128.5,-56 128.5,-56 128.5,-12 128.5,-12 128.5,-6 134.5,-0 140.5,-0 140.5,-0 233.5,-0 233.5,-0 239.5,-0 245.5,-6 245.5,-12 245.5,-12 245.5,-56 245.5,-56 245.5,-62 239.5,-68 233.5,-68"/>
<text text-anchor="start" x="159" y="-52.8" font-family="Helvetica,sans-Serif" font-size="14.00">gini = 0.0</text>
<text text-anchor="start" x="146" y="-37.8" font-family="Helvetica,sans-Serif" font-size="14.00">samples = 25</text>
<text text-anchor="start" x="136.5" y="-22.8" font-family="Helvetica,sans-Serif" font-size="14.00">value = [0, 39, 0]</text>
<text text-anchor="start" x="149" y="-7.8" font-family="Helvetica,sans-Serif" font-size="14.00">class = 雪梨</text>
</g>
<!-- 2&#45;&gt;4 -->
<g id="edge4" class="edge"><title>2&#45;&gt;4</title>
<path fill="none" stroke="black" d="M182.607,-103.726C183.137,-95.4263 183.697,-86.6671 184.233,-78.2834"/>
<polygon fill="black" stroke="black" points="187.726,-78.5025 184.871,-68.2996 180.74,-78.0559 187.726,-78.5025"/>
</g>
<!-- 6 -->
<g id="node7" class="node"><title>6</title>
<path fill="#8139e5" stroke="black" d="M378,-68C378,-68 282,-68 282,-68 276,-68 270,-62 270,-56 270,-56 270,-12 270,-12 270,-6 276,-0 282,-0 282,-0 378,-0 378,-0 384,-0 390,-6 390,-12 390,-12 390,-56 390,-56 390,-62 384,-68 378,-68"/>
<text text-anchor="start" x="302" y="-52.8" font-family="Helvetica,sans-Serif" font-size="14.00">gini = 0.0</text>
<text text-anchor="start" x="289" y="-37.8" font-family="Helvetica,sans-Serif" font-size="14.00">samples = 14</text>
<text text-anchor="start" x="279.5" y="-22.8" font-family="Helvetica,sans-Serif" font-size="14.00">value = [0, 0, 23]</text>
<text text-anchor="start" x="278" y="-7.8" font-family="Helvetica,sans-Serif" font-size="14.00">class = 贝尔摩德</text>
</g>
<!-- 5&#45;&gt;6 -->
<g id="edge6" class="edge"><title>5&#45;&gt;6</title>
<path fill="none" stroke="black" d="M330,-103.726C330,-95.5175 330,-86.8595 330,-78.56"/>
<polygon fill="black" stroke="black" points="333.5,-78.2996 330,-68.2996 326.5,-78.2996 333.5,-78.2996"/>
</g>
<!-- 7 -->
<g id="node8" class="node"><title>7</title>
<path fill="#e0cef8" stroke="black" d="M516,-68C516,-68 420,-68 420,-68 414,-68 408,-62 408,-56 408,-56 408,-12 408,-12 408,-6 414,-0 420,-0 420,-0 516,-0 516,-0 522,-0 528,-6 528,-12 528,-12 528,-56 528,-56 528,-62 522,-68 516,-68"/>
<text text-anchor="start" x="436" y="-52.8" font-family="Helvetica,sans-Serif" font-size="14.00">gini = 0.49</text>
<text text-anchor="start" x="430.5" y="-37.8" font-family="Helvetica,sans-Serif" font-size="14.00">samples = 5</text>
<text text-anchor="start" x="421" y="-22.8" font-family="Helvetica,sans-Serif" font-size="14.00">value = [0, 3, 4]</text>
<text text-anchor="start" x="416" y="-7.8" font-family="Helvetica,sans-Serif" font-size="14.00">class = 贝尔摩德</text>
</g>
<!-- 5&#45;&gt;7 -->
<g id="edge7" class="edge"><title>5&#45;&gt;7</title>
<path fill="none" stroke="black" d="M381.386,-103.726C393.341,-94.2406 406.051,-84.1551 417.947,-74.7159"/>
<polygon fill="black" stroke="black" points="420.375,-77.2571 426.033,-68.2996 416.024,-71.7736 420.375,-77.2571"/>
</g>
<!-- 9 -->
<g id="node10" class="node"><title>9</title>
<path fill="#8139e5" stroke="black" d="M516,-179.5C516,-179.5 420,-179.5 420,-179.5 414,-179.5 408,-173.5 408,-167.5 408,-167.5 408,-123.5 408,-123.5 408,-117.5 414,-111.5 420,-111.5 420,-111.5 516,-111.5 516,-111.5 522,-111.5 528,-117.5 528,-123.5 528,-123.5 528,-167.5 528,-167.5 528,-173.5 522,-179.5 516,-179.5"/>
<text text-anchor="start" x="440" y="-164.3" font-family="Helvetica,sans-Serif" font-size="14.00">gini = 0.0</text>
<text text-anchor="start" x="430.5" y="-149.3" font-family="Helvetica,sans-Serif" font-size="14.00">samples = 4</text>
<text text-anchor="start" x="421" y="-134.3" font-family="Helvetica,sans-Serif" font-size="14.00">value = [0, 0, 8]</text>
<text text-anchor="start" x="416" y="-119.3" font-family="Helvetica,sans-Serif" font-size="14.00">class = 贝尔摩德</text>
</g>
<!-- 8&#45;&gt;9 -->
<g id="edge9" class="edge"><title>8&#45;&gt;9</title>
<path fill="none" stroke="black" d="M468,-222.907C468,-212.204 468,-200.615 468,-189.776"/>
<polygon fill="black" stroke="black" points="471.5,-189.667 468,-179.667 464.5,-189.667 471.5,-189.667"/>
</g>
<!-- 10 -->
<g id="node11" class="node"><title>10</title>
<path fill="#e68844" stroke="black" d="M651.5,-187C651.5,-187 558.5,-187 558.5,-187 552.5,-187 546.5,-181 546.5,-175 546.5,-175 546.5,-116 546.5,-116 546.5,-110 552.5,-104 558.5,-104 558.5,-104 651.5,-104 651.5,-104 657.5,-104 663.5,-110 663.5,-116 663.5,-116 663.5,-175 663.5,-175 663.5,-181 657.5,-187 651.5,-187"/>
<text text-anchor="start" x="558.5" y="-171.8" font-family="Helvetica,sans-Serif" font-size="14.00">脯氨酸 ≤ 961.0</text>
<text text-anchor="start" x="569.5" y="-156.8" font-family="Helvetica,sans-Serif" font-size="14.00">gini = 0.097</text>
<text text-anchor="start" x="564" y="-141.8" font-family="Helvetica,sans-Serif" font-size="14.00">samples = 27</text>
<text text-anchor="start" x="554.5" y="-126.8" font-family="Helvetica,sans-Serif" font-size="14.00">value = [37, 2, 0]</text>
<text text-anchor="start" x="567" y="-111.8" font-family="Helvetica,sans-Serif" font-size="14.00">class = 琴酒</text>
</g>
<!-- 8&#45;&gt;10 -->
<g id="edge10" class="edge"><title>8&#45;&gt;10</title>
<path fill="none" stroke="black" d="M515.531,-222.907C526.583,-213.469 538.44,-203.343 549.791,-193.649"/>
<polygon fill="black" stroke="black" points="552.221,-196.177 557.553,-187.021 547.675,-190.854 552.221,-196.177"/>
</g>
<!-- 11 -->
<g id="node12" class="node"><title>11</title>
<path fill="#ea985d" stroke="black" d="M651.5,-68C651.5,-68 558.5,-68 558.5,-68 552.5,-68 546.5,-62 546.5,-56 546.5,-56 546.5,-12 546.5,-12 546.5,-6 552.5,-0 558.5,-0 558.5,-0 651.5,-0 651.5,-0 657.5,-0 663.5,-6 663.5,-12 663.5,-12 663.5,-56 663.5,-56 663.5,-62 657.5,-68 651.5,-68"/>
<text text-anchor="start" x="573" y="-52.8" font-family="Helvetica,sans-Serif" font-size="14.00">gini = 0.26</text>
<text text-anchor="start" x="567.5" y="-37.8" font-family="Helvetica,sans-Serif" font-size="14.00">samples = 9</text>
<text text-anchor="start" x="554.5" y="-22.8" font-family="Helvetica,sans-Serif" font-size="14.00">value = [11, 2, 0]</text>
<text text-anchor="start" x="567" y="-7.8" font-family="Helvetica,sans-Serif" font-size="14.00">class = 琴酒</text>
</g>
<!-- 10&#45;&gt;11 -->
<g id="edge11" class="edge"><title>10&#45;&gt;11</title>
<path fill="none" stroke="black" d="M605,-103.726C605,-95.5175 605,-86.8595 605,-78.56"/>
<polygon fill="black" stroke="black" points="608.5,-78.2996 605,-68.2996 601.5,-78.2996 608.5,-78.2996"/>
</g>
<!-- 12 -->
<g id="node13" class="node"><title>12</title>
<path fill="#e58139" stroke="black" d="M786.5,-68C786.5,-68 693.5,-68 693.5,-68 687.5,-68 681.5,-62 681.5,-56 681.5,-56 681.5,-12 681.5,-12 681.5,-6 687.5,-0 693.5,-0 693.5,-0 786.5,-0 786.5,-0 792.5,-0 798.5,-6 798.5,-12 798.5,-12 798.5,-56 798.5,-56 798.5,-62 792.5,-68 786.5,-68"/>
<text text-anchor="start" x="712" y="-52.8" font-family="Helvetica,sans-Serif" font-size="14.00">gini = 0.0</text>
<text text-anchor="start" x="699" y="-37.8" font-family="Helvetica,sans-Serif" font-size="14.00">samples = 18</text>
<text text-anchor="start" x="689.5" y="-22.8" font-family="Helvetica,sans-Serif" font-size="14.00">value = [26, 0, 0]</text>
<text text-anchor="start" x="702" y="-7.8" font-family="Helvetica,sans-Serif" font-size="14.00">class = 琴酒</text>
</g>
<!-- 10&#45;&gt;12 -->
<g id="edge12" class="edge"><title>10&#45;&gt;12</title>
<path fill="none" stroke="black" d="M655.269,-103.726C666.964,-94.2406 679.398,-84.1551 691.035,-74.7159"/>
<polygon fill="black" stroke="black" points="693.384,-77.3173 698.946,-68.2996 688.974,-71.8808 693.384,-77.3173"/>
</g>
</g>
</svg>
