<?xml version="1.0" encoding="UTF-8" standalone="no"?>
<!DOCTYPE svg PUBLIC "-//W3C//DTD SVG 1.1//EN"
 "http://www.w3.org/Graphics/SVG/1.1/DTD/svg11.dtd">
<!-- Generated by graphviz version 2.38.0 (20140413.2041)
 -->
<!-- Title: Tree Pages: 1 -->
<svg width="601pt" height="671pt"
 viewBox="0.00 0.00 600.50 671.00" xmlns="http://www.w3.org/2000/svg" xmlns:xlink="http://www.w3.org/1999/xlink">
<g id="graph0" class="graph" transform="scale(1 1) rotate(0) translate(4 667)">
<title>Tree</title>
<polygon fill="white" stroke="none" points="-4,4 -4,-667 596.5,-667 596.5,4 -4,4"/>
<!-- 0 -->
<g id="node1" class="node"><title>0</title>
<path fill="#fdf7f3" stroke="black" d="M248,-663C248,-663 140,-663 140,-663 134,-663 128,-657 128,-651 128,-651 128,-592 128,-592 128,-586 134,-580 140,-580 140,-580 248,-580 248,-580 254,-580 260,-586 260,-592 260,-592 260,-651 260,-651 260,-657 254,-663 248,-663"/>
<text text-anchor="start" x="144" y="-647.8" font-family="Helvetica,sans-Serif" font-size="14.00">颜色强度 ≤ 3.46</text>
<text text-anchor="start" x="158.5" y="-632.8" font-family="Helvetica,sans-Serif" font-size="14.00">gini = 0.662</text>
<text text-anchor="start" x="153" y="-617.8" font-family="Helvetica,sans-Serif" font-size="14.00">samples = 78</text>
<text text-anchor="start" x="136" y="-602.8" font-family="Helvetica,sans-Serif" font-size="14.00">value = [47, 42, 35]</text>
<text text-anchor="start" x="156" y="-587.8" font-family="Helvetica,sans-Serif" font-size="14.00">class = 琴酒</text>
</g>
<!-- 1 -->
<g id="node2" class="node"><title>1</title>
<path fill="#39e581" stroke="black" d="M168.5,-536.5C168.5,-536.5 75.5,-536.5 75.5,-536.5 69.5,-536.5 63.5,-530.5 63.5,-524.5 63.5,-524.5 63.5,-480.5 63.5,-480.5 63.5,-474.5 69.5,-468.5 75.5,-468.5 75.5,-468.5 168.5,-468.5 168.5,-468.5 174.5,-468.5 180.5,-474.5 180.5,-480.5 180.5,-480.5 180.5,-524.5 180.5,-524.5 180.5,-530.5 174.5,-536.5 168.5,-536.5"/>
<text text-anchor="start" x="94" y="-521.3" font-family="Helvetica,sans-Serif" font-size="14.00">gini = 0.0</text>
<text text-anchor="start" x="81" y="-506.3" font-family="Helvetica,sans-Serif" font-size="14.00">samples = 21</text>
<text text-anchor="start" x="71.5" y="-491.3" font-family="Helvetica,sans-Serif" font-size="14.00">value = [0, 28, 0]</text>
<text text-anchor="start" x="84" y="-476.3" font-family="Helvetica,sans-Serif" font-size="14.00">class = 雪梨</text>
</g>
<!-- 0&#45;&gt;1 -->
<g id="edge1" class="edge"><title>0&#45;&gt;1</title>
<path fill="none" stroke="black" d="M169.02,-579.907C162.162,-568.763 154.713,-556.658 147.809,-545.439"/>
<polygon fill="black" stroke="black" points="150.632,-543.349 142.41,-536.667 144.671,-547.018 150.632,-543.349"/>
<text text-anchor="middle" x="136.62" y="-557.287" font-family="Helvetica,sans-Serif" font-size="14.00">True</text>
</g>
<!-- 2 -->
<g id="node3" class="node"><title>2</title>
<path fill="#fae6d8" stroke="black" d="M323.5,-544C323.5,-544 210.5,-544 210.5,-544 204.5,-544 198.5,-538 198.5,-532 198.5,-532 198.5,-473 198.5,-473 198.5,-467 204.5,-461 210.5,-461 210.5,-461 323.5,-461 323.5,-461 329.5,-461 335.5,-467 335.5,-473 335.5,-473 335.5,-532 335.5,-532 335.5,-538 329.5,-544 323.5,-544"/>
<text text-anchor="start" x="206.5" y="-528.8" font-family="Helvetica,sans-Serif" font-size="14.00">稀释葡萄酒 ≤ 2.385</text>
<text text-anchor="start" x="231.5" y="-513.8" font-family="Helvetica,sans-Serif" font-size="14.00">gini = 0.606</text>
<text text-anchor="start" x="226" y="-498.8" font-family="Helvetica,sans-Serif" font-size="14.00">samples = 57</text>
<text text-anchor="start" x="209" y="-483.8" font-family="Helvetica,sans-Serif" font-size="14.00">value = [47, 14, 35]</text>
<text text-anchor="start" x="229" y="-468.8" font-family="Helvetica,sans-Serif" font-size="14.00">class = 琴酒</text>
</g>
<!-- 0&#45;&gt;2 -->
<g id="edge2" class="edge"><title>0&#45;&gt;2</title>
<path fill="none" stroke="black" d="M219.327,-579.907C224.819,-571.105 230.685,-561.703 236.357,-552.612"/>
<polygon fill="black" stroke="black" points="239.394,-554.358 241.718,-544.021 233.455,-550.652 239.394,-554.358"/>
<text text-anchor="middle" x="247.358" y="-564.676" font-family="Helvetica,sans-Serif" font-size="14.00">False</text>
</g>
<!-- 3 -->
<g id="node4" class="node"><title>3</title>
<path fill="#8844e6" stroke="black" d="M244,-425C244,-425 148,-425 148,-425 142,-425 136,-419 136,-413 136,-413 136,-354 136,-354 136,-348 142,-342 148,-342 148,-342 244,-342 244,-342 250,-342 256,-348 256,-354 256,-354 256,-413 256,-413 256,-419 250,-425 244,-425"/>
<text text-anchor="start" x="146" y="-409.8" font-family="Helvetica,sans-Serif" font-size="14.00">颜色强度 ≤ 4.85</text>
<text text-anchor="start" x="160.5" y="-394.8" font-family="Helvetica,sans-Serif" font-size="14.00">gini = 0.102</text>
<text text-anchor="start" x="155" y="-379.8" font-family="Helvetica,sans-Serif" font-size="14.00">samples = 22</text>
<text text-anchor="start" x="145.5" y="-364.8" font-family="Helvetica,sans-Serif" font-size="14.00">value = [0, 2, 35]</text>
<text text-anchor="start" x="144" y="-349.8" font-family="Helvetica,sans-Serif" font-size="14.00">class = 贝尔摩德</text>
</g>
<!-- 2&#45;&gt;3 -->
<g id="edge3" class="edge"><title>2&#45;&gt;3</title>
<path fill="none" stroke="black" d="M242.367,-460.907C237.025,-452.105 231.32,-442.703 225.803,-433.612"/>
<polygon fill="black" stroke="black" points="228.77,-431.754 220.59,-425.021 222.785,-435.386 228.77,-431.754"/>
</g>
<!-- 6 -->
<g id="node7" class="node"><title>6</title>
<path fill="#eca16c" stroke="black" d="M387.5,-425C387.5,-425 286.5,-425 286.5,-425 280.5,-425 274.5,-419 274.5,-413 274.5,-413 274.5,-354 274.5,-354 274.5,-348 280.5,-342 286.5,-342 286.5,-342 387.5,-342 387.5,-342 393.5,-342 399.5,-348 399.5,-354 399.5,-354 399.5,-413 399.5,-413 399.5,-419 393.5,-425 387.5,-425"/>
<text text-anchor="start" x="294" y="-409.8" font-family="Helvetica,sans-Serif" font-size="14.00">酒精 ≤ 12.785</text>
<text text-anchor="start" x="301.5" y="-394.8" font-family="Helvetica,sans-Serif" font-size="14.00">gini = 0.324</text>
<text text-anchor="start" x="296" y="-379.8" font-family="Helvetica,sans-Serif" font-size="14.00">samples = 35</text>
<text text-anchor="start" x="282.5" y="-364.8" font-family="Helvetica,sans-Serif" font-size="14.00">value = [47, 12, 0]</text>
<text text-anchor="start" x="299" y="-349.8" font-family="Helvetica,sans-Serif" font-size="14.00">class = 琴酒</text>
</g>
<!-- 2&#45;&gt;6 -->
<g id="edge6" class="edge"><title>2&#45;&gt;6</title>
<path fill="none" stroke="black" d="M291.286,-460.907C296.553,-452.105 302.178,-442.703 307.617,-433.612"/>
<polygon fill="black" stroke="black" points="310.626,-435.399 312.757,-425.021 304.619,-431.805 310.626,-435.399"/>
</g>
<!-- 4 -->
<g id="node5" class="node"><title>4</title>
<path fill="#ab7bee" stroke="black" d="M108,-298.5C108,-298.5 12,-298.5 12,-298.5 6,-298.5 7.10543e-15,-292.5 7.10543e-15,-286.5 7.10543e-15,-286.5 7.10543e-15,-242.5 7.10543e-15,-242.5 7.10543e-15,-236.5 6,-230.5 12,-230.5 12,-230.5 108,-230.5 108,-230.5 114,-230.5 120,-236.5 120,-242.5 120,-242.5 120,-286.5 120,-286.5 120,-292.5 114,-298.5 108,-298.5"/>
<text text-anchor="start" x="24.5" y="-283.3" font-family="Helvetica,sans-Serif" font-size="14.00">gini = 0.375</text>
<text text-anchor="start" x="22.5" y="-268.3" font-family="Helvetica,sans-Serif" font-size="14.00">samples = 6</text>
<text text-anchor="start" x="13" y="-253.3" font-family="Helvetica,sans-Serif" font-size="14.00">value = [0, 2, 6]</text>
<text text-anchor="start" x="8" y="-238.3" font-family="Helvetica,sans-Serif" font-size="14.00">class = 贝尔摩德</text>
</g>
<!-- 3&#45;&gt;4 -->
<g id="edge4" class="edge"><title>3&#45;&gt;4</title>
<path fill="none" stroke="black" d="M148.815,-341.907C135.091,-330.101 120.115,-317.217 106.437,-305.45"/>
<polygon fill="black" stroke="black" points="108.416,-302.535 98.553,-298.667 103.851,-307.842 108.416,-302.535"/>
</g>
<!-- 5 -->
<g id="node6" class="node"><title>5</title>
<path fill="#8139e5" stroke="black" d="M246,-298.5C246,-298.5 150,-298.5 150,-298.5 144,-298.5 138,-292.5 138,-286.5 138,-286.5 138,-242.5 138,-242.5 138,-236.5 144,-230.5 150,-230.5 150,-230.5 246,-230.5 246,-230.5 252,-230.5 258,-236.5 258,-242.5 258,-242.5 258,-286.5 258,-286.5 258,-292.5 252,-298.5 246,-298.5"/>
<text text-anchor="start" x="170" y="-283.3" font-family="Helvetica,sans-Serif" font-size="14.00">gini = 0.0</text>
<text text-anchor="start" x="157" y="-268.3" font-family="Helvetica,sans-Serif" font-size="14.00">samples = 16</text>
<text text-anchor="start" x="147.5" y="-253.3" font-family="Helvetica,sans-Serif" font-size="14.00">value = [0, 0, 29]</text>
<text text-anchor="start" x="146" y="-238.3" font-family="Helvetica,sans-Serif" font-size="14.00">class = 贝尔摩德</text>
</g>
<!-- 3&#45;&gt;5 -->
<g id="edge5" class="edge"><title>3&#45;&gt;5</title>
<path fill="none" stroke="black" d="M196.694,-341.907C196.877,-331.204 197.075,-319.615 197.26,-308.776"/>
<polygon fill="black" stroke="black" points="200.762,-308.725 197.433,-298.667 193.763,-308.606 200.762,-308.725"/>
</g>
<!-- 7 -->
<g id="node8" class="node"><title>7</title>
<path fill="#39e581" stroke="black" d="M378,-298.5C378,-298.5 292,-298.5 292,-298.5 286,-298.5 280,-292.5 280,-286.5 280,-286.5 280,-242.5 280,-242.5 280,-236.5 286,-230.5 292,-230.5 292,-230.5 378,-230.5 378,-230.5 384,-230.5 390,-236.5 390,-242.5 390,-242.5 390,-286.5 390,-286.5 390,-292.5 384,-298.5 378,-298.5"/>
<text text-anchor="start" x="307" y="-283.3" font-family="Helvetica,sans-Serif" font-size="14.00">gini = 0.0</text>
<text text-anchor="start" x="297.5" y="-268.3" font-family="Helvetica,sans-Serif" font-size="14.00">samples = 5</text>
<text text-anchor="start" x="288" y="-253.3" font-family="Helvetica,sans-Serif" font-size="14.00">value = [0, 8, 0]</text>
<text text-anchor="start" x="297" y="-238.3" font-family="Helvetica,sans-Serif" font-size="14.00">class = 雪梨</text>
</g>
<!-- 6&#45;&gt;7 -->
<g id="edge7" class="edge"><title>6&#45;&gt;7</title>
<path fill="none" stroke="black" d="M336.306,-341.907C336.123,-331.204 335.925,-319.615 335.74,-308.776"/>
<polygon fill="black" stroke="black" points="339.237,-308.606 335.567,-298.667 332.238,-308.725 339.237,-308.606"/>
</g>
<!-- 8 -->
<g id="node9" class="node"><title>8</title>
<path fill="#e78c4a" stroke="black" d="M513.5,-306C513.5,-306 420.5,-306 420.5,-306 414.5,-306 408.5,-300 408.5,-294 408.5,-294 408.5,-235 408.5,-235 408.5,-229 414.5,-223 420.5,-223 420.5,-223 513.5,-223 513.5,-223 519.5,-223 525.5,-229 525.5,-235 525.5,-235 525.5,-294 525.5,-294 525.5,-300 519.5,-306 513.5,-306"/>
<text text-anchor="start" x="427.5" y="-290.8" font-family="Helvetica,sans-Serif" font-size="14.00">酒精 ≤ 13.69</text>
<text text-anchor="start" x="431.5" y="-275.8" font-family="Helvetica,sans-Serif" font-size="14.00">gini = 0.145</text>
<text text-anchor="start" x="426" y="-260.8" font-family="Helvetica,sans-Serif" font-size="14.00">samples = 30</text>
<text text-anchor="start" x="416.5" y="-245.8" font-family="Helvetica,sans-Serif" font-size="14.00">value = [47, 4, 0]</text>
<text text-anchor="start" x="429" y="-230.8" font-family="Helvetica,sans-Serif" font-size="14.00">class = 琴酒</text>
</g>
<!-- 6&#45;&gt;8 -->
<g id="edge8" class="edge"><title>6&#45;&gt;8</title>
<path fill="none" stroke="black" d="M382.103,-341.907C392.489,-332.56 403.625,-322.538 414.301,-312.929"/>
<polygon fill="black" stroke="black" points="416.885,-315.312 421.977,-306.021 412.203,-310.109 416.885,-315.312"/>
</g>
<!-- 9 -->
<g id="node10" class="node"><title>9</title>
<path fill="#ea9c63" stroke="black" d="M445.5,-187C445.5,-187 352.5,-187 352.5,-187 346.5,-187 340.5,-181 340.5,-175 340.5,-175 340.5,-116 340.5,-116 340.5,-110 346.5,-104 352.5,-104 352.5,-104 445.5,-104 445.5,-104 451.5,-104 457.5,-110 457.5,-116 457.5,-116 457.5,-175 457.5,-175 457.5,-181 451.5,-187 445.5,-187"/>
<text text-anchor="start" x="352.5" y="-171.8" font-family="Helvetica,sans-Serif" font-size="14.00">苹果酸 ≤ 1.685</text>
<text text-anchor="start" x="363.5" y="-156.8" font-family="Helvetica,sans-Serif" font-size="14.00">gini = 0.287</text>
<text text-anchor="start" x="358" y="-141.8" font-family="Helvetica,sans-Serif" font-size="14.00">samples = 15</text>
<text text-anchor="start" x="348.5" y="-126.8" font-family="Helvetica,sans-Serif" font-size="14.00">value = [19, 4, 0]</text>
<text text-anchor="start" x="361" y="-111.8" font-family="Helvetica,sans-Serif" font-size="14.00">class = 琴酒</text>
</g>
<!-- 8&#45;&gt;9 -->
<g id="edge9" class="edge"><title>8&#45;&gt;9</title>
<path fill="none" stroke="black" d="M443.408,-222.907C438.344,-214.195 432.94,-204.897 427.707,-195.893"/>
<polygon fill="black" stroke="black" points="430.602,-193.908 422.551,-187.021 424.549,-197.425 430.602,-193.908"/>
</g>
<!-- 12 -->
<g id="node13" class="node"><title>12</title>
<path fill="#e58139" stroke="black" d="M580.5,-179.5C580.5,-179.5 487.5,-179.5 487.5,-179.5 481.5,-179.5 475.5,-173.5 475.5,-167.5 475.5,-167.5 475.5,-123.5 475.5,-123.5 475.5,-117.5 481.5,-111.5 487.5,-111.5 487.5,-111.5 580.5,-111.5 580.5,-111.5 586.5,-111.5 592.5,-117.5 592.5,-123.5 592.5,-123.5 592.5,-167.5 592.5,-167.5 592.5,-173.5 586.5,-179.5 580.5,-179.5"/>
<text text-anchor="start" x="506" y="-164.3" font-family="Helvetica,sans-Serif" font-size="14.00">gini = 0.0</text>
<text text-anchor="start" x="493" y="-149.3" font-family="Helvetica,sans-Serif" font-size="14.00">samples = 15</text>
<text text-anchor="start" x="483.5" y="-134.3" font-family="Helvetica,sans-Serif" font-size="14.00">value = [28, 0, 0]</text>
<text text-anchor="start" x="496" y="-119.3" font-family="Helvetica,sans-Serif" font-size="14.00">class = 琴酒</text>
</g>
<!-- 8&#45;&gt;12 -->
<g id="edge12" class="edge"><title>8&#45;&gt;12</title>
<path fill="none" stroke="black" d="M490.245,-222.907C496.627,-211.763 503.559,-199.658 509.984,-188.439"/>
<polygon fill="black" stroke="black" points="513.075,-190.084 515.007,-179.667 507,-186.606 513.075,-190.084"/>
</g>
<!-- 10 -->
<g id="node11" class="node"><title>10</title>
<path fill="#fae6d7" stroke="black" d="M376,-68C376,-68 290,-68 290,-68 284,-68 278,-62 278,-56 278,-56 278,-12 278,-12 278,-6 284,-0 290,-0 290,-0 376,-0 376,-0 382,-0 388,-6 388,-12 388,-12 388,-56 388,-56 388,-62 382,-68 376,-68"/>
<text text-anchor="start" x="297.5" y="-52.8" font-family="Helvetica,sans-Serif" font-size="14.00">gini = 0.494</text>
<text text-anchor="start" x="295.5" y="-37.8" font-family="Helvetica,sans-Serif" font-size="14.00">samples = 6</text>
<text text-anchor="start" x="286" y="-22.8" font-family="Helvetica,sans-Serif" font-size="14.00">value = [5, 4, 0]</text>
<text text-anchor="start" x="295" y="-7.8" font-family="Helvetica,sans-Serif" font-size="14.00">class = 琴酒</text>
</g>
<!-- 9&#45;&gt;10 -->
<g id="edge10" class="edge"><title>9&#45;&gt;10</title>
<path fill="none" stroke="black" d="M374.424,-103.726C369.146,-94.9703 363.561,-85.7032 358.258,-76.9051"/>
<polygon fill="black" stroke="black" points="361.231,-75.0574 353.071,-68.2996 355.236,-78.671 361.231,-75.0574"/>
</g>
<!-- 11 -->
<g id="node12" class="node"><title>11</title>
<path fill="#e58139" stroke="black" d="M511.5,-68C511.5,-68 418.5,-68 418.5,-68 412.5,-68 406.5,-62 406.5,-56 406.5,-56 406.5,-12 406.5,-12 406.5,-6 412.5,-0 418.5,-0 418.5,-0 511.5,-0 511.5,-0 517.5,-0 523.5,-6 523.5,-12 523.5,-12 523.5,-56 523.5,-56 523.5,-62 517.5,-68 511.5,-68"/>
<text text-anchor="start" x="437" y="-52.8" font-family="Helvetica,sans-Serif" font-size="14.00">gini = 0.0</text>
<text text-anchor="start" x="427.5" y="-37.8" font-family="Helvetica,sans-Serif" font-size="14.00">samples = 9</text>
<text text-anchor="start" x="414.5" y="-22.8" font-family="Helvetica,sans-Serif" font-size="14.00">value = [14, 0, 0]</text>
<text text-anchor="start" x="427" y="-7.8" font-family="Helvetica,sans-Serif" font-size="14.00">class = 琴酒</text>
</g>
<!-- 9&#45;&gt;11 -->
<g id="edge11" class="edge"><title>9&#45;&gt;11</title>
<path fill="none" stroke="black" d="M423.576,-103.726C428.854,-94.9703 434.439,-85.7032 439.742,-76.9051"/>
<polygon fill="black" stroke="black" points="442.764,-78.671 444.929,-68.2996 436.769,-75.0574 442.764,-78.671"/>
</g>
</g>
</svg>
