<?xml version="1.0" encoding="UTF-8" standalone="no"?>
<!DOCTYPE svg PUBLIC "-//W3C//DTD SVG 1.1//EN"
 "http://www.w3.org/Graphics/SVG/1.1/DTD/svg11.dtd">
<!-- Generated by graphviz version 2.38.0 (20140413.2041)
 -->
<!-- Title: Tree Pages: 1 -->
<svg width="667pt" height="552pt"
 viewBox="0.00 0.00 666.50 552.00" xmlns="http://www.w3.org/2000/svg" xmlns:xlink="http://www.w3.org/1999/xlink">
<g id="graph0" class="graph" transform="scale(1 1) rotate(0) translate(4 548)">
<title>Tree</title>
<polygon fill="white" stroke="none" points="-4,4 -4,-548 662.5,-548 662.5,4 -4,4"/>
<!-- 0 -->
<g id="node1" class="node"><title>0</title>
<path fill="#e5fcee" stroke="black" d="M455.5,-544C455.5,-544 347.5,-544 347.5,-544 341.5,-544 335.5,-538 335.5,-532 335.5,-532 335.5,-473 335.5,-473 335.5,-467 341.5,-461 347.5,-461 347.5,-461 455.5,-461 455.5,-461 461.5,-461 467.5,-467 467.5,-473 467.5,-473 467.5,-532 467.5,-532 467.5,-538 461.5,-544 455.5,-544"/>
<text text-anchor="start" x="355" y="-528.8" font-family="Helvetica,sans-Serif" font-size="14.00">脯氨酸 ≤ 860.0</text>
<text text-anchor="start" x="366" y="-513.8" font-family="Helvetica,sans-Serif" font-size="14.00">gini = 0.652</text>
<text text-anchor="start" x="360.5" y="-498.8" font-family="Helvetica,sans-Serif" font-size="14.00">samples = 74</text>
<text text-anchor="start" x="343.5" y="-483.8" font-family="Helvetica,sans-Serif" font-size="14.00">value = [31, 52, 41]</text>
<text text-anchor="start" x="363.5" y="-468.8" font-family="Helvetica,sans-Serif" font-size="14.00">class = 雪梨</text>
</g>
<!-- 1 -->
<g id="node2" class="node"><title>1</title>
<path fill="#e1fbec" stroke="black" d="M383,-425C383,-425 282,-425 282,-425 276,-425 270,-419 270,-413 270,-413 270,-354 270,-354 270,-348 276,-342 282,-342 282,-342 383,-342 383,-342 389,-342 395,-348 395,-354 395,-354 395,-413 395,-413 395,-419 389,-425 383,-425"/>
<text text-anchor="start" x="282.5" y="-409.8" font-family="Helvetica,sans-Serif" font-size="14.00">颜色强度 ≤ 3.95</text>
<text text-anchor="start" x="297" y="-394.8" font-family="Helvetica,sans-Serif" font-size="14.00">gini = 0.536</text>
<text text-anchor="start" x="291.5" y="-379.8" font-family="Helvetica,sans-Serif" font-size="14.00">samples = 54</text>
<text text-anchor="start" x="278" y="-364.8" font-family="Helvetica,sans-Serif" font-size="14.00">value = [4, 49, 41]</text>
<text text-anchor="start" x="294.5" y="-349.8" font-family="Helvetica,sans-Serif" font-size="14.00">class = 雪梨</text>
</g>
<!-- 0&#45;&gt;1 -->
<g id="edge1" class="edge"><title>0&#45;&gt;1</title>
<path fill="none" stroke="black" d="M377.561,-460.907C372.423,-452.195 366.939,-442.897 361.629,-433.893"/>
<polygon fill="black" stroke="black" points="364.492,-431.857 356.397,-425.021 358.462,-435.412 364.492,-431.857"/>
<text text-anchor="middle" x="350.15" y="-445.528" font-family="Helvetica,sans-Serif" font-size="14.00">True</text>
</g>
<!-- 10 -->
<g id="node11" class="node"><title>10</title>
<path fill="#e88f4f" stroke="black" d="M518,-425C518,-425 425,-425 425,-425 419,-425 413,-419 413,-413 413,-413 413,-354 413,-354 413,-348 419,-342 425,-342 425,-342 518,-342 518,-342 524,-342 530,-348 530,-354 530,-354 530,-413 530,-413 530,-419 524,-425 518,-425"/>
<text text-anchor="start" x="421.5" y="-409.8" font-family="Helvetica,sans-Serif" font-size="14.00">灰的碱性 ≤ 18.9</text>
<text text-anchor="start" x="439.5" y="-394.8" font-family="Helvetica,sans-Serif" font-size="14.00">gini = 0.18</text>
<text text-anchor="start" x="430.5" y="-379.8" font-family="Helvetica,sans-Serif" font-size="14.00">samples = 20</text>
<text text-anchor="start" x="421" y="-364.8" font-family="Helvetica,sans-Serif" font-size="14.00">value = [27, 3, 0]</text>
<text text-anchor="start" x="433.5" y="-349.8" font-family="Helvetica,sans-Serif" font-size="14.00">class = 琴酒</text>
</g>
<!-- 0&#45;&gt;10 -->
<g id="edge10" class="edge"><title>0&#45;&gt;10</title>
<path fill="none" stroke="black" d="M425.786,-460.907C431.053,-452.105 436.678,-442.703 442.117,-433.612"/>
<polygon fill="black" stroke="black" points="445.126,-435.399 447.257,-425.021 439.119,-431.805 445.126,-435.399"/>
<text text-anchor="middle" x="453.351" y="-445.567" font-family="Helvetica,sans-Serif" font-size="14.00">False</text>
</g>
<!-- 2 -->
<g id="node3" class="node"><title>2</title>
<path fill="#3ee684" stroke="black" d="M243,-306C243,-306 130,-306 130,-306 124,-306 118,-300 118,-294 118,-294 118,-235 118,-235 118,-229 124,-223 130,-223 130,-223 243,-223 243,-223 249,-223 255,-229 255,-235 255,-235 255,-294 255,-294 255,-300 249,-306 243,-306"/>
<text text-anchor="start" x="126" y="-290.8" font-family="Helvetica,sans-Serif" font-size="14.00">稀释葡萄酒 ≤ 3.195</text>
<text text-anchor="start" x="151" y="-275.8" font-family="Helvetica,sans-Serif" font-size="14.00">gini = 0.045</text>
<text text-anchor="start" x="145.5" y="-260.8" font-family="Helvetica,sans-Serif" font-size="14.00">samples = 25</text>
<text text-anchor="start" x="136" y="-245.8" font-family="Helvetica,sans-Serif" font-size="14.00">value = [1, 42, 0]</text>
<text text-anchor="start" x="148.5" y="-230.8" font-family="Helvetica,sans-Serif" font-size="14.00">class = 雪梨</text>
</g>
<!-- 1&#45;&gt;2 -->
<g id="edge2" class="edge"><title>1&#45;&gt;2</title>
<path fill="none" stroke="black" d="M281.846,-341.907C269.955,-332.379 257.189,-322.148 244.987,-312.37"/>
<polygon fill="black" stroke="black" points="247.057,-309.543 237.064,-306.021 242.679,-315.006 247.057,-309.543"/>
</g>
<!-- 5 -->
<g id="node6" class="node"><title>5</title>
<path fill="#9e66eb" stroke="black" d="M381.5,-306C381.5,-306 285.5,-306 285.5,-306 279.5,-306 273.5,-300 273.5,-294 273.5,-294 273.5,-235 273.5,-235 273.5,-229 279.5,-223 285.5,-223 285.5,-223 381.5,-223 381.5,-223 387.5,-223 393.5,-229 393.5,-235 393.5,-235 393.5,-294 393.5,-294 393.5,-300 387.5,-306 381.5,-306"/>
<text text-anchor="start" x="298" y="-290.8" font-family="Helvetica,sans-Serif" font-size="14.00">色调 ≤ 0.92</text>
<text text-anchor="start" x="298" y="-275.8" font-family="Helvetica,sans-Serif" font-size="14.00">gini = 0.331</text>
<text text-anchor="start" x="292.5" y="-260.8" font-family="Helvetica,sans-Serif" font-size="14.00">samples = 29</text>
<text text-anchor="start" x="283" y="-245.8" font-family="Helvetica,sans-Serif" font-size="14.00">value = [3, 7, 41]</text>
<text text-anchor="start" x="281.5" y="-230.8" font-family="Helvetica,sans-Serif" font-size="14.00">class = 贝尔摩德</text>
</g>
<!-- 1&#45;&gt;5 -->
<g id="edge5" class="edge"><title>1&#45;&gt;5</title>
<path fill="none" stroke="black" d="M332.847,-341.907C332.918,-333.649 332.993,-324.864 333.066,-316.302"/>
<polygon fill="black" stroke="black" points="336.568,-316.05 333.154,-306.021 329.568,-315.99 336.568,-316.05"/>
</g>
<!-- 3 -->
<g id="node4" class="node"><title>3</title>
<path fill="#39e581" stroke="black" d="M105,-179.5C105,-179.5 12,-179.5 12,-179.5 6,-179.5 -7.10543e-15,-173.5 -7.10543e-15,-167.5 -7.10543e-15,-167.5 -7.10543e-15,-123.5 -7.10543e-15,-123.5 -7.10543e-15,-117.5 6,-111.5 12,-111.5 12,-111.5 105,-111.5 105,-111.5 111,-111.5 117,-117.5 117,-123.5 117,-123.5 117,-167.5 117,-167.5 117,-173.5 111,-179.5 105,-179.5"/>
<text text-anchor="start" x="30.5" y="-164.3" font-family="Helvetica,sans-Serif" font-size="14.00">gini = 0.0</text>
<text text-anchor="start" x="17.5" y="-149.3" font-family="Helvetica,sans-Serif" font-size="14.00">samples = 20</text>
<text text-anchor="start" x="8" y="-134.3" font-family="Helvetica,sans-Serif" font-size="14.00">value = [0, 36, 0]</text>
<text text-anchor="start" x="20.5" y="-119.3" font-family="Helvetica,sans-Serif" font-size="14.00">class = 雪梨</text>
</g>
<!-- 2&#45;&gt;3 -->
<g id="edge3" class="edge"><title>2&#45;&gt;3</title>
<path fill="none" stroke="black" d="M142.091,-222.907C129.174,-211.101 115.079,-198.217 102.205,-186.45"/>
<polygon fill="black" stroke="black" points="104.528,-183.83 94.7852,-179.667 99.8049,-188.997 104.528,-183.83"/>
</g>
<!-- 4 -->
<g id="node5" class="node"><title>4</title>
<path fill="#5ae996" stroke="black" d="M233.5,-179.5C233.5,-179.5 147.5,-179.5 147.5,-179.5 141.5,-179.5 135.5,-173.5 135.5,-167.5 135.5,-167.5 135.5,-123.5 135.5,-123.5 135.5,-117.5 141.5,-111.5 147.5,-111.5 147.5,-111.5 233.5,-111.5 233.5,-111.5 239.5,-111.5 245.5,-117.5 245.5,-123.5 245.5,-123.5 245.5,-167.5 245.5,-167.5 245.5,-173.5 239.5,-179.5 233.5,-179.5"/>
<text text-anchor="start" x="155" y="-164.3" font-family="Helvetica,sans-Serif" font-size="14.00">gini = 0.245</text>
<text text-anchor="start" x="153" y="-149.3" font-family="Helvetica,sans-Serif" font-size="14.00">samples = 5</text>
<text text-anchor="start" x="143.5" y="-134.3" font-family="Helvetica,sans-Serif" font-size="14.00">value = [1, 6, 0]</text>
<text text-anchor="start" x="152.5" y="-119.3" font-family="Helvetica,sans-Serif" font-size="14.00">class = 雪梨</text>
</g>
<!-- 2&#45;&gt;4 -->
<g id="edge4" class="edge"><title>2&#45;&gt;4</title>
<path fill="none" stroke="black" d="M187.888,-222.907C188.254,-212.204 188.65,-200.615 189.02,-189.776"/>
<polygon fill="black" stroke="black" points="192.522,-189.781 189.366,-179.667 185.526,-189.541 192.522,-189.781"/>
</g>
<!-- 6 -->
<g id="node7" class="node"><title>6</title>
<path fill="#8743e6" stroke="black" d="M374.5,-187C374.5,-187 278.5,-187 278.5,-187 272.5,-187 266.5,-181 266.5,-175 266.5,-175 266.5,-116 266.5,-116 266.5,-110 272.5,-104 278.5,-104 278.5,-104 374.5,-104 374.5,-104 380.5,-104 386.5,-110 386.5,-116 386.5,-116 386.5,-175 386.5,-175 386.5,-181 380.5,-187 374.5,-187"/>
<text text-anchor="start" x="276.5" y="-171.8" font-family="Helvetica,sans-Serif" font-size="14.00">颜色强度 ≤ 4.66</text>
<text text-anchor="start" x="291" y="-156.8" font-family="Helvetica,sans-Serif" font-size="14.00">gini = 0.091</text>
<text text-anchor="start" x="285.5" y="-141.8" font-family="Helvetica,sans-Serif" font-size="14.00">samples = 22</text>
<text text-anchor="start" x="276" y="-126.8" font-family="Helvetica,sans-Serif" font-size="14.00">value = [2, 0, 40]</text>
<text text-anchor="start" x="274.5" y="-111.8" font-family="Helvetica,sans-Serif" font-size="14.00">class = 贝尔摩德</text>
</g>
<!-- 5&#45;&gt;6 -->
<g id="edge6" class="edge"><title>5&#45;&gt;6</title>
<path fill="none" stroke="black" d="M331.071,-222.907C330.572,-214.558 330.04,-205.671 329.523,-197.02"/>
<polygon fill="black" stroke="black" points="333.015,-196.794 328.924,-187.021 326.028,-197.212 333.015,-196.794"/>
</g>
<!-- 9 -->
<g id="node10" class="node"><title>9</title>
<path fill="#6aeca0" stroke="black" d="M502.5,-179.5C502.5,-179.5 416.5,-179.5 416.5,-179.5 410.5,-179.5 404.5,-173.5 404.5,-167.5 404.5,-167.5 404.5,-123.5 404.5,-123.5 404.5,-117.5 410.5,-111.5 416.5,-111.5 416.5,-111.5 502.5,-111.5 502.5,-111.5 508.5,-111.5 514.5,-117.5 514.5,-123.5 514.5,-123.5 514.5,-167.5 514.5,-167.5 514.5,-173.5 508.5,-179.5 502.5,-179.5"/>
<text text-anchor="start" x="427.5" y="-164.3" font-family="Helvetica,sans-Serif" font-size="14.00">gini = 0.37</text>
<text text-anchor="start" x="422" y="-149.3" font-family="Helvetica,sans-Serif" font-size="14.00">samples = 7</text>
<text text-anchor="start" x="412.5" y="-134.3" font-family="Helvetica,sans-Serif" font-size="14.00">value = [1, 7, 1]</text>
<text text-anchor="start" x="421.5" y="-119.3" font-family="Helvetica,sans-Serif" font-size="14.00">class = 雪梨</text>
</g>
<!-- 5&#45;&gt;9 -->
<g id="edge9" class="edge"><title>5&#45;&gt;9</title>
<path fill="none" stroke="black" d="M377.215,-222.907C389.811,-211.211 403.546,-198.457 416.122,-186.78"/>
<polygon fill="black" stroke="black" points="418.835,-189.036 423.782,-179.667 414.072,-183.907 418.835,-189.036"/>
</g>
<!-- 7 -->
<g id="node8" class="node"><title>7</title>
<path fill="#b388ef" stroke="black" d="M305.5,-68C305.5,-68 209.5,-68 209.5,-68 203.5,-68 197.5,-62 197.5,-56 197.5,-56 197.5,-12 197.5,-12 197.5,-6 203.5,-0 209.5,-0 209.5,-0 305.5,-0 305.5,-0 311.5,-0 317.5,-6 317.5,-12 317.5,-12 317.5,-56 317.5,-56 317.5,-62 311.5,-68 305.5,-68"/>
<text text-anchor="start" x="222" y="-52.8" font-family="Helvetica,sans-Serif" font-size="14.00">gini = 0.408</text>
<text text-anchor="start" x="220" y="-37.8" font-family="Helvetica,sans-Serif" font-size="14.00">samples = 4</text>
<text text-anchor="start" x="210.5" y="-22.8" font-family="Helvetica,sans-Serif" font-size="14.00">value = [2, 0, 5]</text>
<text text-anchor="start" x="205.5" y="-7.8" font-family="Helvetica,sans-Serif" font-size="14.00">class = 贝尔摩德</text>
</g>
<!-- 6&#45;&gt;7 -->
<g id="edge7" class="edge"><title>6&#45;&gt;7</title>
<path fill="none" stroke="black" d="M300.807,-103.726C295.289,-94.9703 289.45,-85.7032 283.906,-76.9051"/>
<polygon fill="black" stroke="black" points="286.776,-74.8941 278.483,-68.2996 280.853,-78.6259 286.776,-74.8941"/>
</g>
<!-- 8 -->
<g id="node9" class="node"><title>8</title>
<path fill="#8139e5" stroke="black" d="M443.5,-68C443.5,-68 347.5,-68 347.5,-68 341.5,-68 335.5,-62 335.5,-56 335.5,-56 335.5,-12 335.5,-12 335.5,-6 341.5,-0 347.5,-0 347.5,-0 443.5,-0 443.5,-0 449.5,-0 455.5,-6 455.5,-12 455.5,-12 455.5,-56 455.5,-56 455.5,-62 449.5,-68 443.5,-68"/>
<text text-anchor="start" x="367.5" y="-52.8" font-family="Helvetica,sans-Serif" font-size="14.00">gini = 0.0</text>
<text text-anchor="start" x="354.5" y="-37.8" font-family="Helvetica,sans-Serif" font-size="14.00">samples = 18</text>
<text text-anchor="start" x="345" y="-22.8" font-family="Helvetica,sans-Serif" font-size="14.00">value = [0, 0, 35]</text>
<text text-anchor="start" x="343.5" y="-7.8" font-family="Helvetica,sans-Serif" font-size="14.00">class = 贝尔摩德</text>
</g>
<!-- 6&#45;&gt;8 -->
<g id="edge8" class="edge"><title>6&#45;&gt;8</title>
<path fill="none" stroke="black" d="M352.193,-103.726C357.711,-94.9703 363.55,-85.7032 369.094,-76.9051"/>
<polygon fill="black" stroke="black" points="372.147,-78.6259 374.517,-68.2996 366.224,-74.8941 372.147,-78.6259"/>
</g>
<!-- 11 -->
<g id="node12" class="node"><title>11</title>
<path fill="#e58139" stroke="black" d="M518,-298.5C518,-298.5 425,-298.5 425,-298.5 419,-298.5 413,-292.5 413,-286.5 413,-286.5 413,-242.5 413,-242.5 413,-236.5 419,-230.5 425,-230.5 425,-230.5 518,-230.5 518,-230.5 524,-230.5 530,-236.5 530,-242.5 530,-242.5 530,-286.5 530,-286.5 530,-292.5 524,-298.5 518,-298.5"/>
<text text-anchor="start" x="443.5" y="-283.3" font-family="Helvetica,sans-Serif" font-size="14.00">gini = 0.0</text>
<text text-anchor="start" x="430.5" y="-268.3" font-family="Helvetica,sans-Serif" font-size="14.00">samples = 15</text>
<text text-anchor="start" x="421" y="-253.3" font-family="Helvetica,sans-Serif" font-size="14.00">value = [23, 0, 0]</text>
<text text-anchor="start" x="433.5" y="-238.3" font-family="Helvetica,sans-Serif" font-size="14.00">class = 琴酒</text>
</g>
<!-- 10&#45;&gt;11 -->
<g id="edge11" class="edge"><title>10&#45;&gt;11</title>
<path fill="none" stroke="black" d="M471.5,-341.907C471.5,-331.204 471.5,-319.615 471.5,-308.776"/>
<polygon fill="black" stroke="black" points="475,-308.667 471.5,-298.667 468,-308.667 475,-308.667"/>
</g>
<!-- 12 -->
<g id="node13" class="node"><title>12</title>
<path fill="#f8e0ce" stroke="black" d="M646.5,-298.5C646.5,-298.5 560.5,-298.5 560.5,-298.5 554.5,-298.5 548.5,-292.5 548.5,-286.5 548.5,-286.5 548.5,-242.5 548.5,-242.5 548.5,-236.5 554.5,-230.5 560.5,-230.5 560.5,-230.5 646.5,-230.5 646.5,-230.5 652.5,-230.5 658.5,-236.5 658.5,-242.5 658.5,-242.5 658.5,-286.5 658.5,-286.5 658.5,-292.5 652.5,-298.5 646.5,-298.5"/>
<text text-anchor="start" x="571.5" y="-283.3" font-family="Helvetica,sans-Serif" font-size="14.00">gini = 0.49</text>
<text text-anchor="start" x="566" y="-268.3" font-family="Helvetica,sans-Serif" font-size="14.00">samples = 5</text>
<text text-anchor="start" x="556.5" y="-253.3" font-family="Helvetica,sans-Serif" font-size="14.00">value = [4, 3, 0]</text>
<text text-anchor="start" x="565.5" y="-238.3" font-family="Helvetica,sans-Serif" font-size="14.00">class = 琴酒</text>
</g>
<!-- 10&#45;&gt;12 -->
<g id="edge12" class="edge"><title>10&#45;&gt;12</title>
<path fill="none" stroke="black" d="M517.297,-341.907C530.617,-330.101 545.153,-317.217 558.429,-305.45"/>
<polygon fill="black" stroke="black" points="560.919,-307.919 566.081,-298.667 556.276,-302.681 560.919,-307.919"/>
</g>
</g>
</svg>
