<?xml version="1.0" encoding="UTF-8" standalone="no"?>
<!DOCTYPE svg PUBLIC "-//W3C//DTD SVG 1.1//EN"
 "http://www.w3.org/Graphics/SVG/1.1/DTD/svg11.dtd">
<!-- Generated by graphviz version 2.38.0 (20140413.2041)
 -->
<!-- Title: Tree Pages: 1 -->
<svg width="603pt" height="552pt"
 viewBox="0.00 0.00 603.00 552.00" xmlns="http://www.w3.org/2000/svg" xmlns:xlink="http://www.w3.org/1999/xlink">
<g id="graph0" class="graph" transform="scale(1 1) rotate(0) translate(4 548)">
<title>Tree</title>
<polygon fill="white" stroke="none" points="-4,4 -4,-548 599,-548 599,4 -4,4"/>
<!-- 0 -->
<g id="node1" class="node"><title>0</title>
<path fill="#fdfffd" stroke="black" d="M315.5,-544C315.5,-544 207.5,-544 207.5,-544 201.5,-544 195.5,-538 195.5,-532 195.5,-532 195.5,-473 195.5,-473 195.5,-467 201.5,-461 207.5,-461 207.5,-461 315.5,-461 315.5,-461 321.5,-461 327.5,-467 327.5,-473 327.5,-473 327.5,-532 327.5,-532 327.5,-538 321.5,-544 315.5,-544"/>
<text text-anchor="start" x="226" y="-528.8" font-family="Helvetica,sans-Serif" font-size="14.00">色调 ≤ 0.78</text>
<text text-anchor="start" x="226" y="-513.8" font-family="Helvetica,sans-Serif" font-size="14.00">gini = 0.665</text>
<text text-anchor="start" x="220.5" y="-498.8" font-family="Helvetica,sans-Serif" font-size="14.00">samples = 79</text>
<text text-anchor="start" x="203.5" y="-483.8" font-family="Helvetica,sans-Serif" font-size="14.00">value = [43, 44, 37]</text>
<text text-anchor="start" x="223.5" y="-468.8" font-family="Helvetica,sans-Serif" font-size="14.00">class = 雪梨</text>
</g>
<!-- 1 -->
<g id="node2" class="node"><title>1</title>
<path fill="#8139e5" stroke="black" d="M239.5,-417.5C239.5,-417.5 143.5,-417.5 143.5,-417.5 137.5,-417.5 131.5,-411.5 131.5,-405.5 131.5,-405.5 131.5,-361.5 131.5,-361.5 131.5,-355.5 137.5,-349.5 143.5,-349.5 143.5,-349.5 239.5,-349.5 239.5,-349.5 245.5,-349.5 251.5,-355.5 251.5,-361.5 251.5,-361.5 251.5,-405.5 251.5,-405.5 251.5,-411.5 245.5,-417.5 239.5,-417.5"/>
<text text-anchor="start" x="163.5" y="-402.3" font-family="Helvetica,sans-Serif" font-size="14.00">gini = 0.0</text>
<text text-anchor="start" x="150.5" y="-387.3" font-family="Helvetica,sans-Serif" font-size="14.00">samples = 17</text>
<text text-anchor="start" x="141" y="-372.3" font-family="Helvetica,sans-Serif" font-size="14.00">value = [0, 0, 29]</text>
<text text-anchor="start" x="139.5" y="-357.3" font-family="Helvetica,sans-Serif" font-size="14.00">class = 贝尔摩德</text>
</g>
<!-- 0&#45;&gt;1 -->
<g id="edge1" class="edge"><title>0&#45;&gt;1</title>
<path fill="none" stroke="black" d="M237.214,-460.907C230.546,-449.763 223.304,-437.658 216.592,-426.439"/>
<polygon fill="black" stroke="black" points="219.481,-424.451 211.343,-417.667 213.474,-428.045 219.481,-424.451"/>
<text text-anchor="middle" x="205.25" y="-438.213" font-family="Helvetica,sans-Serif" font-size="14.00">True</text>
</g>
<!-- 2 -->
<g id="node3" class="node"><title>2</title>
<path fill="#fbfefd" stroke="black" d="M383,-425C383,-425 282,-425 282,-425 276,-425 270,-419 270,-413 270,-413 270,-354 270,-354 270,-348 276,-342 282,-342 282,-342 383,-342 383,-342 389,-342 395,-348 395,-354 395,-354 395,-413 395,-413 395,-419 389,-425 383,-425"/>
<text text-anchor="start" x="286" y="-409.8" font-family="Helvetica,sans-Serif" font-size="14.00">脯氨酸 ≤ 760.0</text>
<text text-anchor="start" x="297" y="-394.8" font-family="Helvetica,sans-Serif" font-size="14.00">gini = 0.574</text>
<text text-anchor="start" x="291.5" y="-379.8" font-family="Helvetica,sans-Serif" font-size="14.00">samples = 62</text>
<text text-anchor="start" x="278" y="-364.8" font-family="Helvetica,sans-Serif" font-size="14.00">value = [43, 44, 8]</text>
<text text-anchor="start" x="294.5" y="-349.8" font-family="Helvetica,sans-Serif" font-size="14.00">class = 雪梨</text>
</g>
<!-- 0&#45;&gt;2 -->
<g id="edge2" class="edge"><title>0&#45;&gt;2</title>
<path fill="none" stroke="black" d="M286.133,-460.907C291.475,-452.105 297.18,-442.703 302.697,-433.612"/>
<polygon fill="black" stroke="black" points="305.715,-435.386 307.91,-425.021 299.73,-431.754 305.715,-435.386"/>
<text text-anchor="middle" x="313.852" y="-445.604" font-family="Helvetica,sans-Serif" font-size="14.00">False</text>
</g>
<!-- 3 -->
<g id="node4" class="node"><title>3</title>
<path fill="#62ea9b" stroke="black" d="M320.5,-306C320.5,-306 192.5,-306 192.5,-306 186.5,-306 180.5,-300 180.5,-294 180.5,-294 180.5,-235 180.5,-235 180.5,-229 186.5,-223 192.5,-223 192.5,-223 320.5,-223 320.5,-223 326.5,-223 332.5,-229 332.5,-235 332.5,-235 332.5,-294 332.5,-294 332.5,-300 326.5,-306 320.5,-306"/>
<text text-anchor="start" x="188.5" y="-290.8" font-family="Helvetica,sans-Serif" font-size="14.00">非黄烷类分类 ≤ 0.525</text>
<text text-anchor="start" x="221" y="-275.8" font-family="Helvetica,sans-Serif" font-size="14.00">gini = 0.292</text>
<text text-anchor="start" x="215.5" y="-260.8" font-family="Helvetica,sans-Serif" font-size="14.00">samples = 34</text>
<text text-anchor="start" x="206" y="-245.8" font-family="Helvetica,sans-Serif" font-size="14.00">value = [1, 43, 8]</text>
<text text-anchor="start" x="218.5" y="-230.8" font-family="Helvetica,sans-Serif" font-size="14.00">class = 雪梨</text>
</g>
<!-- 2&#45;&gt;3 -->
<g id="edge3" class="edge"><title>2&#45;&gt;3</title>
<path fill="none" stroke="black" d="M306.132,-341.907C300.414,-333.105 294.307,-323.703 288.402,-314.612"/>
<polygon fill="black" stroke="black" points="291.204,-312.5 282.821,-306.021 285.333,-316.313 291.204,-312.5"/>
</g>
<!-- 8 -->
<g id="node9" class="node"><title>8</title>
<path fill="#e6843e" stroke="black" d="M456,-306C456,-306 363,-306 363,-306 357,-306 351,-300 351,-294 351,-294 351,-235 351,-235 351,-229 357,-223 363,-223 363,-223 456,-223 456,-223 462,-223 468,-229 468,-235 468,-235 468,-294 468,-294 468,-300 462,-306 456,-306"/>
<text text-anchor="start" x="367" y="-290.8" font-family="Helvetica,sans-Serif" font-size="14.00">类黄素 ≤ 2.66</text>
<text text-anchor="start" x="374" y="-275.8" font-family="Helvetica,sans-Serif" font-size="14.00">gini = 0.045</text>
<text text-anchor="start" x="368.5" y="-260.8" font-family="Helvetica,sans-Serif" font-size="14.00">samples = 28</text>
<text text-anchor="start" x="359" y="-245.8" font-family="Helvetica,sans-Serif" font-size="14.00">value = [42, 1, 0]</text>
<text text-anchor="start" x="371.5" y="-230.8" font-family="Helvetica,sans-Serif" font-size="14.00">class = 琴酒</text>
</g>
<!-- 2&#45;&gt;8 -->
<g id="edge8" class="edge"><title>2&#45;&gt;8</title>
<path fill="none" stroke="black" d="M359.215,-341.907C365.008,-333.105 371.195,-323.703 377.178,-314.612"/>
<polygon fill="black" stroke="black" points="380.259,-316.298 382.832,-306.021 374.411,-312.45 380.259,-316.298"/>
</g>
<!-- 4 -->
<g id="node5" class="node"><title>4</title>
<path fill="#4de88e" stroke="black" d="M171,-187C171,-187 78,-187 78,-187 72,-187 66,-181 66,-175 66,-175 66,-116 66,-116 66,-110 72,-104 78,-104 78,-104 171,-104 171,-104 177,-104 183,-110 183,-116 183,-116 183,-175 183,-175 183,-181 177,-187 171,-187"/>
<text text-anchor="start" x="78" y="-171.8" font-family="Helvetica,sans-Serif" font-size="14.00">苹果酸 ≤ 3.565</text>
<text text-anchor="start" x="89" y="-156.8" font-family="Helvetica,sans-Serif" font-size="14.00">gini = 0.172</text>
<text text-anchor="start" x="83.5" y="-141.8" font-family="Helvetica,sans-Serif" font-size="14.00">samples = 29</text>
<text text-anchor="start" x="74" y="-126.8" font-family="Helvetica,sans-Serif" font-size="14.00">value = [1, 39, 3]</text>
<text text-anchor="start" x="86.5" y="-111.8" font-family="Helvetica,sans-Serif" font-size="14.00">class = 雪梨</text>
</g>
<!-- 3&#45;&gt;4 -->
<g id="edge4" class="edge"><title>3&#45;&gt;4</title>
<path fill="none" stroke="black" d="M210.703,-222.907C200.158,-213.56 188.85,-203.538 178.009,-193.929"/>
<polygon fill="black" stroke="black" points="180.021,-191.035 170.216,-187.021 175.378,-196.273 180.021,-191.035"/>
</g>
<!-- 7 -->
<g id="node8" class="node"><title>7</title>
<path fill="#e6d7fa" stroke="black" d="M309.5,-179.5C309.5,-179.5 213.5,-179.5 213.5,-179.5 207.5,-179.5 201.5,-173.5 201.5,-167.5 201.5,-167.5 201.5,-123.5 201.5,-123.5 201.5,-117.5 207.5,-111.5 213.5,-111.5 213.5,-111.5 309.5,-111.5 309.5,-111.5 315.5,-111.5 321.5,-117.5 321.5,-123.5 321.5,-123.5 321.5,-167.5 321.5,-167.5 321.5,-173.5 315.5,-179.5 309.5,-179.5"/>
<text text-anchor="start" x="226" y="-164.3" font-family="Helvetica,sans-Serif" font-size="14.00">gini = 0.494</text>
<text text-anchor="start" x="224" y="-149.3" font-family="Helvetica,sans-Serif" font-size="14.00">samples = 5</text>
<text text-anchor="start" x="214.5" y="-134.3" font-family="Helvetica,sans-Serif" font-size="14.00">value = [0, 4, 5]</text>
<text text-anchor="start" x="209.5" y="-119.3" font-family="Helvetica,sans-Serif" font-size="14.00">class = 贝尔摩德</text>
</g>
<!-- 3&#45;&gt;7 -->
<g id="edge7" class="edge"><title>3&#45;&gt;7</title>
<path fill="none" stroke="black" d="M258.235,-222.907C258.692,-212.204 259.187,-200.615 259.651,-189.776"/>
<polygon fill="black" stroke="black" points="263.152,-189.807 260.083,-179.667 256.159,-189.508 263.152,-189.807"/>
</g>
<!-- 5 -->
<g id="node6" class="node"><title>5</title>
<path fill="#39e581" stroke="black" d="M105,-68C105,-68 12,-68 12,-68 6,-68 -7.10543e-15,-62 -7.10543e-15,-56 -7.10543e-15,-56 -7.10543e-15,-12 -7.10543e-15,-12 -7.10543e-15,-6 6,-0 12,-0 12,-0 105,-0 105,-0 111,-0 117,-6 117,-12 117,-12 117,-56 117,-56 117,-62 111,-68 105,-68"/>
<text text-anchor="start" x="30.5" y="-52.8" font-family="Helvetica,sans-Serif" font-size="14.00">gini = 0.0</text>
<text text-anchor="start" x="17.5" y="-37.8" font-family="Helvetica,sans-Serif" font-size="14.00">samples = 24</text>
<text text-anchor="start" x="8" y="-22.8" font-family="Helvetica,sans-Serif" font-size="14.00">value = [0, 36, 0]</text>
<text text-anchor="start" x="20.5" y="-7.8" font-family="Helvetica,sans-Serif" font-size="14.00">class = 雪梨</text>
</g>
<!-- 4&#45;&gt;5 -->
<g id="edge5" class="edge"><title>4&#45;&gt;5</title>
<path fill="none" stroke="black" d="M99.924,-103.726C94.6465,-94.9703 89.0608,-85.7032 83.7578,-76.9051"/>
<polygon fill="black" stroke="black" points="86.7308,-75.0574 78.571,-68.2996 80.7356,-78.671 86.7308,-75.0574"/>
</g>
<!-- 6 -->
<g id="node7" class="node"><title>6</title>
<path fill="#ffffff" stroke="black" d="M233.5,-68C233.5,-68 147.5,-68 147.5,-68 141.5,-68 135.5,-62 135.5,-56 135.5,-56 135.5,-12 135.5,-12 135.5,-6 141.5,-0 147.5,-0 147.5,-0 233.5,-0 233.5,-0 239.5,-0 245.5,-6 245.5,-12 245.5,-12 245.5,-56 245.5,-56 245.5,-62 239.5,-68 233.5,-68"/>
<text text-anchor="start" x="155" y="-52.8" font-family="Helvetica,sans-Serif" font-size="14.00">gini = 0.612</text>
<text text-anchor="start" x="153" y="-37.8" font-family="Helvetica,sans-Serif" font-size="14.00">samples = 5</text>
<text text-anchor="start" x="143.5" y="-22.8" font-family="Helvetica,sans-Serif" font-size="14.00">value = [1, 3, 3]</text>
<text text-anchor="start" x="152.5" y="-7.8" font-family="Helvetica,sans-Serif" font-size="14.00">class = 雪梨</text>
</g>
<!-- 4&#45;&gt;6 -->
<g id="edge6" class="edge"><title>4&#45;&gt;6</title>
<path fill="none" stroke="black" d="M149.076,-103.726C154.354,-94.9703 159.939,-85.7032 165.242,-76.9051"/>
<polygon fill="black" stroke="black" points="168.264,-78.671 170.429,-68.2996 162.269,-75.0574 168.264,-78.671"/>
</g>
<!-- 9 -->
<g id="node10" class="node"><title>9</title>
<path fill="#e9965a" stroke="black" d="M447.5,-179.5C447.5,-179.5 361.5,-179.5 361.5,-179.5 355.5,-179.5 349.5,-173.5 349.5,-167.5 349.5,-167.5 349.5,-123.5 349.5,-123.5 349.5,-117.5 355.5,-111.5 361.5,-111.5 361.5,-111.5 447.5,-111.5 447.5,-111.5 453.5,-111.5 459.5,-117.5 459.5,-123.5 459.5,-123.5 459.5,-167.5 459.5,-167.5 459.5,-173.5 453.5,-179.5 447.5,-179.5"/>
<text text-anchor="start" x="369" y="-164.3" font-family="Helvetica,sans-Serif" font-size="14.00">gini = 0.245</text>
<text text-anchor="start" x="367" y="-149.3" font-family="Helvetica,sans-Serif" font-size="14.00">samples = 5</text>
<text text-anchor="start" x="357.5" y="-134.3" font-family="Helvetica,sans-Serif" font-size="14.00">value = [6, 1, 0]</text>
<text text-anchor="start" x="366.5" y="-119.3" font-family="Helvetica,sans-Serif" font-size="14.00">class = 琴酒</text>
</g>
<!-- 8&#45;&gt;9 -->
<g id="edge9" class="edge"><title>8&#45;&gt;9</title>
<path fill="none" stroke="black" d="M407.765,-222.907C407.308,-212.204 406.813,-200.615 406.349,-189.776"/>
<polygon fill="black" stroke="black" points="409.841,-189.508 405.917,-179.667 402.848,-189.807 409.841,-189.508"/>
</g>
<!-- 10 -->
<g id="node11" class="node"><title>10</title>
<path fill="#e58139" stroke="black" d="M583,-179.5C583,-179.5 490,-179.5 490,-179.5 484,-179.5 478,-173.5 478,-167.5 478,-167.5 478,-123.5 478,-123.5 478,-117.5 484,-111.5 490,-111.5 490,-111.5 583,-111.5 583,-111.5 589,-111.5 595,-117.5 595,-123.5 595,-123.5 595,-167.5 595,-167.5 595,-173.5 589,-179.5 583,-179.5"/>
<text text-anchor="start" x="508.5" y="-164.3" font-family="Helvetica,sans-Serif" font-size="14.00">gini = 0.0</text>
<text text-anchor="start" x="495.5" y="-149.3" font-family="Helvetica,sans-Serif" font-size="14.00">samples = 23</text>
<text text-anchor="start" x="486" y="-134.3" font-family="Helvetica,sans-Serif" font-size="14.00">value = [36, 0, 0]</text>
<text text-anchor="start" x="498.5" y="-119.3" font-family="Helvetica,sans-Serif" font-size="14.00">class = 琴酒</text>
</g>
<!-- 8&#45;&gt;10 -->
<g id="edge10" class="edge"><title>8&#45;&gt;10</title>
<path fill="none" stroke="black" d="M453.562,-222.907C466.378,-211.101 480.363,-198.217 493.136,-186.45"/>
<polygon fill="black" stroke="black" points="495.515,-189.017 500.498,-179.667 490.772,-183.868 495.515,-189.017"/>
</g>
</g>
</svg>
