<?xml version="1.0" encoding="UTF-8" standalone="no"?>
<!DOCTYPE svg PUBLIC "-//W3C//DTD SVG 1.1//EN"
 "http://www.w3.org/Graphics/SVG/1.1/DTD/svg11.dtd">
<!-- Generated by graphviz version 2.38.0 (20140413.2041)
 -->
<!-- Title: Tree Pages: 1 -->
<svg width="794pt" height="552pt"
 viewBox="0.00 0.00 793.50 552.00" xmlns="http://www.w3.org/2000/svg" xmlns:xlink="http://www.w3.org/1999/xlink">
<g id="graph0" class="graph" transform="scale(1 1) rotate(0) translate(4 548)">
<title>Tree</title>
<polygon fill="white" stroke="none" points="-4,4 -4,-548 789.5,-548 789.5,4 -4,4"/>
<!-- 0 -->
<g id="node1" class="node"><title>0</title>
<path fill="#e2fbec" stroke="black" d="M351,-544C351,-544 243,-544 243,-544 237,-544 231,-538 231,-532 231,-532 231,-473 231,-473 231,-467 237,-461 243,-461 243,-461 351,-461 351,-461 357,-461 363,-467 363,-473 363,-473 363,-532 363,-532 363,-538 357,-544 351,-544"/>
<text text-anchor="start" x="254" y="-528.8" font-family="Helvetica,sans-Serif" font-size="14.00">酒精 ≤ 12.755</text>
<text text-anchor="start" x="261.5" y="-513.8" font-family="Helvetica,sans-Serif" font-size="14.00">gini = 0.639</text>
<text text-anchor="start" x="256" y="-498.8" font-family="Helvetica,sans-Serif" font-size="14.00">samples = 77</text>
<text text-anchor="start" x="239" y="-483.8" font-family="Helvetica,sans-Serif" font-size="14.00">value = [43, 55, 26]</text>
<text text-anchor="start" x="259" y="-468.8" font-family="Helvetica,sans-Serif" font-size="14.00">class = 雪梨</text>
</g>
<!-- 1 -->
<g id="node2" class="node"><title>1</title>
<path fill="#56e994" stroke="black" d="M243.5,-425C243.5,-425 150.5,-425 150.5,-425 144.5,-425 138.5,-419 138.5,-413 138.5,-413 138.5,-354 138.5,-354 138.5,-348 144.5,-342 150.5,-342 150.5,-342 243.5,-342 243.5,-342 249.5,-342 255.5,-348 255.5,-354 255.5,-354 255.5,-413 255.5,-413 255.5,-419 249.5,-425 243.5,-425"/>
<text text-anchor="start" x="157.5" y="-409.8" font-family="Helvetica,sans-Serif" font-size="14.00">酒精 ≤ 12.23</text>
<text text-anchor="start" x="161.5" y="-394.8" font-family="Helvetica,sans-Serif" font-size="14.00">gini = 0.226</text>
<text text-anchor="start" x="156" y="-379.8" font-family="Helvetica,sans-Serif" font-size="14.00">samples = 29</text>
<text text-anchor="start" x="146.5" y="-364.8" font-family="Helvetica,sans-Serif" font-size="14.00">value = [0, 47, 7]</text>
<text text-anchor="start" x="159" y="-349.8" font-family="Helvetica,sans-Serif" font-size="14.00">class = 雪梨</text>
</g>
<!-- 0&#45;&gt;1 -->
<g id="edge1" class="edge"><title>0&#45;&gt;1</title>
<path fill="none" stroke="black" d="M262.305,-460.907C254.549,-451.832 246.249,-442.121 238.256,-432.769"/>
<polygon fill="black" stroke="black" points="240.791,-430.349 231.633,-425.021 235.47,-434.897 240.791,-430.349"/>
<text text-anchor="middle" x="229.681" y="-446.244" font-family="Helvetica,sans-Serif" font-size="14.00">True</text>
</g>
<!-- 6 -->
<g id="node7" class="node"><title>6</title>
<path fill="#f3c4a2" stroke="black" d="M447.5,-425C447.5,-425 346.5,-425 346.5,-425 340.5,-425 334.5,-419 334.5,-413 334.5,-413 334.5,-354 334.5,-354 334.5,-348 340.5,-342 346.5,-342 346.5,-342 447.5,-342 447.5,-342 453.5,-342 459.5,-348 459.5,-354 459.5,-354 459.5,-413 459.5,-413 459.5,-419 453.5,-425 447.5,-425"/>
<text text-anchor="start" x="354.5" y="-409.8" font-family="Helvetica,sans-Serif" font-size="14.00">类黄素 ≤ 2.11</text>
<text text-anchor="start" x="361.5" y="-394.8" font-family="Helvetica,sans-Serif" font-size="14.00">gini = 0.536</text>
<text text-anchor="start" x="356" y="-379.8" font-family="Helvetica,sans-Serif" font-size="14.00">samples = 48</text>
<text text-anchor="start" x="342.5" y="-364.8" font-family="Helvetica,sans-Serif" font-size="14.00">value = [43, 8, 19]</text>
<text text-anchor="start" x="359" y="-349.8" font-family="Helvetica,sans-Serif" font-size="14.00">class = 琴酒</text>
</g>
<!-- 0&#45;&gt;6 -->
<g id="edge6" class="edge"><title>0&#45;&gt;6</title>
<path fill="none" stroke="black" d="M331.695,-460.907C339.451,-451.832 347.751,-442.121 355.744,-432.769"/>
<polygon fill="black" stroke="black" points="358.53,-434.897 362.367,-425.021 353.209,-430.349 358.53,-434.897"/>
<text text-anchor="middle" x="364.319" y="-446.244" font-family="Helvetica,sans-Serif" font-size="14.00">False</text>
</g>
<!-- 2 -->
<g id="node3" class="node"><title>2</title>
<path fill="#39e581" stroke="black" d="M108.5,-298.5C108.5,-298.5 15.5,-298.5 15.5,-298.5 9.5,-298.5 3.5,-292.5 3.5,-286.5 3.5,-286.5 3.5,-242.5 3.5,-242.5 3.5,-236.5 9.5,-230.5 15.5,-230.5 15.5,-230.5 108.5,-230.5 108.5,-230.5 114.5,-230.5 120.5,-236.5 120.5,-242.5 120.5,-242.5 120.5,-286.5 120.5,-286.5 120.5,-292.5 114.5,-298.5 108.5,-298.5"/>
<text text-anchor="start" x="34" y="-283.3" font-family="Helvetica,sans-Serif" font-size="14.00">gini = 0.0</text>
<text text-anchor="start" x="21" y="-268.3" font-family="Helvetica,sans-Serif" font-size="14.00">samples = 15</text>
<text text-anchor="start" x="11.5" y="-253.3" font-family="Helvetica,sans-Serif" font-size="14.00">value = [0, 25, 0]</text>
<text text-anchor="start" x="24" y="-238.3" font-family="Helvetica,sans-Serif" font-size="14.00">class = 雪梨</text>
</g>
<!-- 1&#45;&gt;2 -->
<g id="edge2" class="edge"><title>1&#45;&gt;2</title>
<path fill="none" stroke="black" d="M150.162,-341.907C136.539,-330.101 121.673,-317.217 108.096,-305.45"/>
<polygon fill="black" stroke="black" points="110.119,-302.571 100.27,-298.667 105.534,-307.861 110.119,-302.571"/>
</g>
<!-- 3 -->
<g id="node4" class="node"><title>3</title>
<path fill="#78eda9" stroke="black" d="M243.5,-306C243.5,-306 150.5,-306 150.5,-306 144.5,-306 138.5,-300 138.5,-294 138.5,-294 138.5,-235 138.5,-235 138.5,-229 144.5,-223 150.5,-223 150.5,-223 243.5,-223 243.5,-223 249.5,-223 255.5,-229 255.5,-235 255.5,-235 255.5,-294 255.5,-294 255.5,-300 249.5,-306 243.5,-306"/>
<text text-anchor="start" x="154.5" y="-290.8" font-family="Helvetica,sans-Serif" font-size="14.00">类黄素 ≤ 1.14</text>
<text text-anchor="start" x="161.5" y="-275.8" font-family="Helvetica,sans-Serif" font-size="14.00">gini = 0.366</text>
<text text-anchor="start" x="156" y="-260.8" font-family="Helvetica,sans-Serif" font-size="14.00">samples = 14</text>
<text text-anchor="start" x="146.5" y="-245.8" font-family="Helvetica,sans-Serif" font-size="14.00">value = [0, 22, 7]</text>
<text text-anchor="start" x="159" y="-230.8" font-family="Helvetica,sans-Serif" font-size="14.00">class = 雪梨</text>
</g>
<!-- 1&#45;&gt;3 -->
<g id="edge3" class="edge"><title>1&#45;&gt;3</title>
<path fill="none" stroke="black" d="M197,-341.907C197,-333.649 197,-324.864 197,-316.302"/>
<polygon fill="black" stroke="black" points="200.5,-316.021 197,-306.021 193.5,-316.021 200.5,-316.021"/>
</g>
<!-- 4 -->
<g id="node5" class="node"><title>4</title>
<path fill="#8139e5" stroke="black" d="M108,-179.5C108,-179.5 12,-179.5 12,-179.5 6,-179.5 7.10543e-15,-173.5 7.10543e-15,-167.5 7.10543e-15,-167.5 7.10543e-15,-123.5 7.10543e-15,-123.5 7.10543e-15,-117.5 6,-111.5 12,-111.5 12,-111.5 108,-111.5 108,-111.5 114,-111.5 120,-117.5 120,-123.5 120,-123.5 120,-167.5 120,-167.5 120,-173.5 114,-179.5 108,-179.5"/>
<text text-anchor="start" x="32" y="-164.3" font-family="Helvetica,sans-Serif" font-size="14.00">gini = 0.0</text>
<text text-anchor="start" x="22.5" y="-149.3" font-family="Helvetica,sans-Serif" font-size="14.00">samples = 4</text>
<text text-anchor="start" x="13" y="-134.3" font-family="Helvetica,sans-Serif" font-size="14.00">value = [0, 0, 7]</text>
<text text-anchor="start" x="8" y="-119.3" font-family="Helvetica,sans-Serif" font-size="14.00">class = 贝尔摩德</text>
</g>
<!-- 3&#45;&gt;4 -->
<g id="edge4" class="edge"><title>3&#45;&gt;4</title>
<path fill="none" stroke="black" d="M149.469,-222.907C135.643,-211.101 120.557,-198.217 106.779,-186.45"/>
<polygon fill="black" stroke="black" points="108.714,-183.5 98.8365,-179.667 104.168,-188.823 108.714,-183.5"/>
</g>
<!-- 5 -->
<g id="node6" class="node"><title>5</title>
<path fill="#39e581" stroke="black" d="M243.5,-179.5C243.5,-179.5 150.5,-179.5 150.5,-179.5 144.5,-179.5 138.5,-173.5 138.5,-167.5 138.5,-167.5 138.5,-123.5 138.5,-123.5 138.5,-117.5 144.5,-111.5 150.5,-111.5 150.5,-111.5 243.5,-111.5 243.5,-111.5 249.5,-111.5 255.5,-117.5 255.5,-123.5 255.5,-123.5 255.5,-167.5 255.5,-167.5 255.5,-173.5 249.5,-179.5 243.5,-179.5"/>
<text text-anchor="start" x="169" y="-164.3" font-family="Helvetica,sans-Serif" font-size="14.00">gini = 0.0</text>
<text text-anchor="start" x="156" y="-149.3" font-family="Helvetica,sans-Serif" font-size="14.00">samples = 10</text>
<text text-anchor="start" x="146.5" y="-134.3" font-family="Helvetica,sans-Serif" font-size="14.00">value = [0, 22, 0]</text>
<text text-anchor="start" x="159" y="-119.3" font-family="Helvetica,sans-Serif" font-size="14.00">class = 雪梨</text>
</g>
<!-- 3&#45;&gt;5 -->
<g id="edge5" class="edge"><title>3&#45;&gt;5</title>
<path fill="none" stroke="black" d="M197,-222.907C197,-212.204 197,-200.615 197,-189.776"/>
<polygon fill="black" stroke="black" points="200.5,-189.667 197,-179.667 193.5,-189.667 200.5,-189.667"/>
</g>
<!-- 7 -->
<g id="node8" class="node"><title>7</title>
<path fill="#af82ef" stroke="black" d="M445,-306C445,-306 349,-306 349,-306 343,-306 337,-300 337,-294 337,-294 337,-235 337,-235 337,-229 343,-223 349,-223 349,-223 445,-223 445,-223 451,-223 457,-229 457,-235 457,-235 457,-294 457,-294 457,-300 451,-306 445,-306"/>
<text text-anchor="start" x="357.5" y="-290.8" font-family="Helvetica,sans-Serif" font-size="14.00">色调 ≤ 0.935</text>
<text text-anchor="start" x="361.5" y="-275.8" font-family="Helvetica,sans-Serif" font-size="14.00">gini = 0.393</text>
<text text-anchor="start" x="356" y="-260.8" font-family="Helvetica,sans-Serif" font-size="14.00">samples = 22</text>
<text text-anchor="start" x="346.5" y="-245.8" font-family="Helvetica,sans-Serif" font-size="14.00">value = [0, 7, 19]</text>
<text text-anchor="start" x="345" y="-230.8" font-family="Helvetica,sans-Serif" font-size="14.00">class = 贝尔摩德</text>
</g>
<!-- 6&#45;&gt;7 -->
<g id="edge7" class="edge"><title>6&#45;&gt;7</title>
<path fill="none" stroke="black" d="M397,-341.907C397,-333.649 397,-324.864 397,-316.302"/>
<polygon fill="black" stroke="black" points="400.5,-316.021 397,-306.021 393.5,-316.021 400.5,-316.021"/>
</g>
<!-- 12 -->
<g id="node13" class="node"><title>12</title>
<path fill="#e6843e" stroke="black" d="M641.5,-306C641.5,-306 548.5,-306 548.5,-306 542.5,-306 536.5,-300 536.5,-294 536.5,-294 536.5,-235 536.5,-235 536.5,-229 542.5,-223 548.5,-223 548.5,-223 641.5,-223 641.5,-223 647.5,-223 653.5,-229 653.5,-235 653.5,-235 653.5,-294 653.5,-294 653.5,-300 647.5,-306 641.5,-306"/>
<text text-anchor="start" x="548.5" y="-290.8" font-family="Helvetica,sans-Serif" font-size="14.00">苹果酸 ≤ 1.655</text>
<text text-anchor="start" x="559.5" y="-275.8" font-family="Helvetica,sans-Serif" font-size="14.00">gini = 0.044</text>
<text text-anchor="start" x="554" y="-260.8" font-family="Helvetica,sans-Serif" font-size="14.00">samples = 26</text>
<text text-anchor="start" x="544.5" y="-245.8" font-family="Helvetica,sans-Serif" font-size="14.00">value = [43, 1, 0]</text>
<text text-anchor="start" x="557" y="-230.8" font-family="Helvetica,sans-Serif" font-size="14.00">class = 琴酒</text>
</g>
<!-- 6&#45;&gt;12 -->
<g id="edge12" class="edge"><title>6&#45;&gt;12</title>
<path fill="none" stroke="black" d="M459.648,-345.48C481.353,-332.655 505.764,-318.23 527.818,-305.199"/>
<polygon fill="black" stroke="black" points="529.635,-308.19 536.464,-300.089 526.074,-302.164 529.635,-308.19"/>
</g>
<!-- 8 -->
<g id="node9" class="node"><title>8</title>
<path fill="#8844e6" stroke="black" d="M382,-187C382,-187 286,-187 286,-187 280,-187 274,-181 274,-175 274,-175 274,-116 274,-116 274,-110 280,-104 286,-104 286,-104 382,-104 382,-104 388,-104 394,-110 394,-116 394,-116 394,-175 394,-175 394,-181 388,-187 382,-187"/>
<text text-anchor="start" x="287.5" y="-171.8" font-family="Helvetica,sans-Serif" font-size="14.00">花青素 ≤ 1.325</text>
<text text-anchor="start" x="306" y="-156.8" font-family="Helvetica,sans-Serif" font-size="14.00">gini = 0.1</text>
<text text-anchor="start" x="293" y="-141.8" font-family="Helvetica,sans-Serif" font-size="14.00">samples = 17</text>
<text text-anchor="start" x="283.5" y="-126.8" font-family="Helvetica,sans-Serif" font-size="14.00">value = [0, 1, 18]</text>
<text text-anchor="start" x="282" y="-111.8" font-family="Helvetica,sans-Serif" font-size="14.00">class = 贝尔摩德</text>
</g>
<!-- 7&#45;&gt;8 -->
<g id="edge8" class="edge"><title>7&#45;&gt;8</title>
<path fill="none" stroke="black" d="M375.142,-222.907C370.451,-214.195 365.444,-204.897 360.596,-195.893"/>
<polygon fill="black" stroke="black" points="363.642,-194.166 355.819,-187.021 357.478,-197.485 363.642,-194.166"/>
</g>
<!-- 11 -->
<g id="node12" class="node"><title>11</title>
<path fill="#5ae996" stroke="black" d="M510,-179.5C510,-179.5 424,-179.5 424,-179.5 418,-179.5 412,-173.5 412,-167.5 412,-167.5 412,-123.5 412,-123.5 412,-117.5 418,-111.5 424,-111.5 424,-111.5 510,-111.5 510,-111.5 516,-111.5 522,-117.5 522,-123.5 522,-123.5 522,-167.5 522,-167.5 522,-173.5 516,-179.5 510,-179.5"/>
<text text-anchor="start" x="431.5" y="-164.3" font-family="Helvetica,sans-Serif" font-size="14.00">gini = 0.245</text>
<text text-anchor="start" x="429.5" y="-149.3" font-family="Helvetica,sans-Serif" font-size="14.00">samples = 5</text>
<text text-anchor="start" x="420" y="-134.3" font-family="Helvetica,sans-Serif" font-size="14.00">value = [0, 6, 1]</text>
<text text-anchor="start" x="429" y="-119.3" font-family="Helvetica,sans-Serif" font-size="14.00">class = 雪梨</text>
</g>
<!-- 7&#45;&gt;11 -->
<g id="edge11" class="edge"><title>7&#45;&gt;11</title>
<path fill="none" stroke="black" d="M421.286,-222.907C427.954,-211.763 435.196,-199.658 441.908,-188.439"/>
<polygon fill="black" stroke="black" points="445.026,-190.045 447.157,-179.667 439.019,-186.451 445.026,-190.045"/>
</g>
<!-- 9 -->
<g id="node10" class="node"><title>9</title>
<path fill="#8139e5" stroke="black" d="M313,-68C313,-68 217,-68 217,-68 211,-68 205,-62 205,-56 205,-56 205,-12 205,-12 205,-6 211,-0 217,-0 217,-0 313,-0 313,-0 319,-0 325,-6 325,-12 325,-12 325,-56 325,-56 325,-62 319,-68 313,-68"/>
<text text-anchor="start" x="237" y="-52.8" font-family="Helvetica,sans-Serif" font-size="14.00">gini = 0.0</text>
<text text-anchor="start" x="224" y="-37.8" font-family="Helvetica,sans-Serif" font-size="14.00">samples = 11</text>
<text text-anchor="start" x="214.5" y="-22.8" font-family="Helvetica,sans-Serif" font-size="14.00">value = [0, 0, 12]</text>
<text text-anchor="start" x="213" y="-7.8" font-family="Helvetica,sans-Serif" font-size="14.00">class = 贝尔摩德</text>
</g>
<!-- 8&#45;&gt;9 -->
<g id="edge9" class="edge"><title>8&#45;&gt;9</title>
<path fill="none" stroke="black" d="M308.307,-103.726C302.789,-94.9703 296.95,-85.7032 291.406,-76.9051"/>
<polygon fill="black" stroke="black" points="294.276,-74.8941 285.983,-68.2996 288.353,-78.6259 294.276,-74.8941"/>
</g>
<!-- 10 -->
<g id="node11" class="node"><title>10</title>
<path fill="#965ae9" stroke="black" d="M451,-68C451,-68 355,-68 355,-68 349,-68 343,-62 343,-56 343,-56 343,-12 343,-12 343,-6 349,-0 355,-0 355,-0 451,-0 451,-0 457,-0 463,-6 463,-12 463,-12 463,-56 463,-56 463,-62 457,-68 451,-68"/>
<text text-anchor="start" x="367.5" y="-52.8" font-family="Helvetica,sans-Serif" font-size="14.00">gini = 0.245</text>
<text text-anchor="start" x="365.5" y="-37.8" font-family="Helvetica,sans-Serif" font-size="14.00">samples = 6</text>
<text text-anchor="start" x="356" y="-22.8" font-family="Helvetica,sans-Serif" font-size="14.00">value = [0, 1, 6]</text>
<text text-anchor="start" x="351" y="-7.8" font-family="Helvetica,sans-Serif" font-size="14.00">class = 贝尔摩德</text>
</g>
<!-- 8&#45;&gt;10 -->
<g id="edge10" class="edge"><title>8&#45;&gt;10</title>
<path fill="none" stroke="black" d="M359.693,-103.726C365.211,-94.9703 371.05,-85.7032 376.594,-76.9051"/>
<polygon fill="black" stroke="black" points="379.647,-78.6259 382.017,-68.2996 373.724,-74.8941 379.647,-78.6259"/>
</g>
<!-- 13 -->
<g id="node14" class="node"><title>13</title>
<path fill="#e9965a" stroke="black" d="M638,-179.5C638,-179.5 552,-179.5 552,-179.5 546,-179.5 540,-173.5 540,-167.5 540,-167.5 540,-123.5 540,-123.5 540,-117.5 546,-111.5 552,-111.5 552,-111.5 638,-111.5 638,-111.5 644,-111.5 650,-117.5 650,-123.5 650,-123.5 650,-167.5 650,-167.5 650,-173.5 644,-179.5 638,-179.5"/>
<text text-anchor="start" x="559.5" y="-164.3" font-family="Helvetica,sans-Serif" font-size="14.00">gini = 0.245</text>
<text text-anchor="start" x="557.5" y="-149.3" font-family="Helvetica,sans-Serif" font-size="14.00">samples = 7</text>
<text text-anchor="start" x="548" y="-134.3" font-family="Helvetica,sans-Serif" font-size="14.00">value = [6, 1, 0]</text>
<text text-anchor="start" x="557" y="-119.3" font-family="Helvetica,sans-Serif" font-size="14.00">class = 琴酒</text>
</g>
<!-- 12&#45;&gt;13 -->
<g id="edge13" class="edge"><title>12&#45;&gt;13</title>
<path fill="none" stroke="black" d="M595,-222.907C595,-212.204 595,-200.615 595,-189.776"/>
<polygon fill="black" stroke="black" points="598.5,-189.667 595,-179.667 591.5,-189.667 598.5,-189.667"/>
</g>
<!-- 14 -->
<g id="node15" class="node"><title>14</title>
<path fill="#e58139" stroke="black" d="M773.5,-179.5C773.5,-179.5 680.5,-179.5 680.5,-179.5 674.5,-179.5 668.5,-173.5 668.5,-167.5 668.5,-167.5 668.5,-123.5 668.5,-123.5 668.5,-117.5 674.5,-111.5 680.5,-111.5 680.5,-111.5 773.5,-111.5 773.5,-111.5 779.5,-111.5 785.5,-117.5 785.5,-123.5 785.5,-123.5 785.5,-167.5 785.5,-167.5 785.5,-173.5 779.5,-179.5 773.5,-179.5"/>
<text text-anchor="start" x="699" y="-164.3" font-family="Helvetica,sans-Serif" font-size="14.00">gini = 0.0</text>
<text text-anchor="start" x="686" y="-149.3" font-family="Helvetica,sans-Serif" font-size="14.00">samples = 19</text>
<text text-anchor="start" x="676.5" y="-134.3" font-family="Helvetica,sans-Serif" font-size="14.00">value = [37, 0, 0]</text>
<text text-anchor="start" x="689" y="-119.3" font-family="Helvetica,sans-Serif" font-size="14.00">class = 琴酒</text>
</g>
<!-- 12&#45;&gt;14 -->
<g id="edge14" class="edge"><title>12&#45;&gt;14</title>
<path fill="none" stroke="black" d="M640.797,-222.907C654.117,-211.101 668.653,-198.217 681.929,-186.45"/>
<polygon fill="black" stroke="black" points="684.419,-188.919 689.581,-179.667 679.776,-183.681 684.419,-188.919"/>
</g>
</g>
</svg>
