<?xml version="1.0" encoding="UTF-8" standalone="no"?>
<!DOCTYPE svg PUBLIC "-//W3C//DTD SVG 1.1//EN"
 "http://www.w3.org/Graphics/SVG/1.1/DTD/svg11.dtd">
<!-- Generated by graphviz version 2.38.0 (20140413.2041)
 -->
<!-- Title: Tree Pages: 1 -->
<svg width="796pt" height="433pt"
 viewBox="0.00 0.00 796.00 433.00" xmlns="http://www.w3.org/2000/svg" xmlns:xlink="http://www.w3.org/1999/xlink">
<g id="graph0" class="graph" transform="scale(1 1) rotate(0) translate(4 429)">
<title>Tree</title>
<polygon fill="white" stroke="none" points="-4,4 -4,-429 792,-429 792,4 -4,4"/>
<!-- 0 -->
<g id="node1" class="node"><title>0</title>
<path fill="#cef8e0" stroke="black" d="M350.5,-425C350.5,-425 242.5,-425 242.5,-425 236.5,-425 230.5,-419 230.5,-413 230.5,-413 230.5,-354 230.5,-354 230.5,-348 236.5,-342 242.5,-342 242.5,-342 350.5,-342 350.5,-342 356.5,-342 362.5,-348 362.5,-354 362.5,-354 362.5,-413 362.5,-413 362.5,-419 356.5,-425 350.5,-425"/>
<text text-anchor="start" x="243" y="-409.8" font-family="Helvetica,sans-Serif" font-size="14.00">颜色强度 ≤ 3.925</text>
<text text-anchor="start" x="261" y="-394.8" font-family="Helvetica,sans-Serif" font-size="14.00">gini = 0.638</text>
<text text-anchor="start" x="255.5" y="-379.8" font-family="Helvetica,sans-Serif" font-size="14.00">samples = 81</text>
<text text-anchor="start" x="238.5" y="-364.8" font-family="Helvetica,sans-Serif" font-size="14.00">value = [36, 58, 30]</text>
<text text-anchor="start" x="258.5" y="-349.8" font-family="Helvetica,sans-Serif" font-size="14.00">class = 雪梨</text>
</g>
<!-- 1 -->
<g id="node2" class="node"><title>1</title>
<path fill="#4de88e" stroke="black" d="M240,-306C240,-306 147,-306 147,-306 141,-306 135,-300 135,-294 135,-294 135,-235 135,-235 135,-229 141,-223 147,-223 147,-223 240,-223 240,-223 246,-223 252,-229 252,-235 252,-235 252,-294 252,-294 252,-300 246,-306 240,-306"/>
<text text-anchor="start" x="165" y="-290.8" font-family="Helvetica,sans-Serif" font-size="14.00">镁 ≤ 95.0</text>
<text text-anchor="start" x="158" y="-275.8" font-family="Helvetica,sans-Serif" font-size="14.00">gini = 0.168</text>
<text text-anchor="start" x="152.5" y="-260.8" font-family="Helvetica,sans-Serif" font-size="14.00">samples = 35</text>
<text text-anchor="start" x="143" y="-245.8" font-family="Helvetica,sans-Serif" font-size="14.00">value = [5, 49, 0]</text>
<text text-anchor="start" x="155.5" y="-230.8" font-family="Helvetica,sans-Serif" font-size="14.00">class = 雪梨</text>
</g>
<!-- 0&#45;&gt;1 -->
<g id="edge1" class="edge"><title>0&#45;&gt;1</title>
<path fill="none" stroke="black" d="M260.765,-341.907C252.775,-332.832 244.226,-323.121 235.994,-313.769"/>
<polygon fill="black" stroke="black" points="238.407,-311.214 229.172,-306.021 233.153,-315.839 238.407,-311.214"/>
<text text-anchor="middle" x="227.584" y="-327.27" font-family="Helvetica,sans-Serif" font-size="14.00">True</text>
</g>
<!-- 6 -->
<g id="node7" class="node"><title>6</title>
<path fill="#fefcfa" stroke="black" d="M456,-306C456,-306 343,-306 343,-306 337,-306 331,-300 331,-294 331,-294 331,-235 331,-235 331,-229 337,-223 343,-223 343,-223 456,-223 456,-223 462,-223 468,-229 468,-235 468,-235 468,-294 468,-294 468,-300 462,-306 456,-306"/>
<text text-anchor="start" x="339" y="-290.8" font-family="Helvetica,sans-Serif" font-size="14.00">稀释葡萄酒 ≤ 2.475</text>
<text text-anchor="start" x="364" y="-275.8" font-family="Helvetica,sans-Serif" font-size="14.00">gini = 0.604</text>
<text text-anchor="start" x="358.5" y="-260.8" font-family="Helvetica,sans-Serif" font-size="14.00">samples = 46</text>
<text text-anchor="start" x="345" y="-245.8" font-family="Helvetica,sans-Serif" font-size="14.00">value = [31, 9, 30]</text>
<text text-anchor="start" x="361.5" y="-230.8" font-family="Helvetica,sans-Serif" font-size="14.00">class = 琴酒</text>
</g>
<!-- 0&#45;&gt;6 -->
<g id="edge6" class="edge"><title>0&#45;&gt;6</title>
<path fill="none" stroke="black" d="M332.235,-341.907C340.225,-332.832 348.774,-323.121 357.006,-313.769"/>
<polygon fill="black" stroke="black" points="359.847,-315.839 363.828,-306.021 354.593,-311.214 359.847,-315.839"/>
<text text-anchor="middle" x="365.416" y="-327.27" font-family="Helvetica,sans-Serif" font-size="14.00">False</text>
</g>
<!-- 2 -->
<g id="node3" class="node"><title>2</title>
<path fill="#39e581" stroke="black" d="M105,-179.5C105,-179.5 12,-179.5 12,-179.5 6,-179.5 -7.10543e-15,-173.5 -7.10543e-15,-167.5 -7.10543e-15,-167.5 -7.10543e-15,-123.5 -7.10543e-15,-123.5 -7.10543e-15,-117.5 6,-111.5 12,-111.5 12,-111.5 105,-111.5 105,-111.5 111,-111.5 117,-117.5 117,-123.5 117,-123.5 117,-167.5 117,-167.5 117,-173.5 111,-179.5 105,-179.5"/>
<text text-anchor="start" x="30.5" y="-164.3" font-family="Helvetica,sans-Serif" font-size="14.00">gini = 0.0</text>
<text text-anchor="start" x="17.5" y="-149.3" font-family="Helvetica,sans-Serif" font-size="14.00">samples = 19</text>
<text text-anchor="start" x="8" y="-134.3" font-family="Helvetica,sans-Serif" font-size="14.00">value = [0, 30, 0]</text>
<text text-anchor="start" x="20.5" y="-119.3" font-family="Helvetica,sans-Serif" font-size="14.00">class = 雪梨</text>
</g>
<!-- 1&#45;&gt;2 -->
<g id="edge2" class="edge"><title>1&#45;&gt;2</title>
<path fill="none" stroke="black" d="M146.662,-222.907C133.039,-211.101 118.173,-198.217 104.596,-186.45"/>
<polygon fill="black" stroke="black" points="106.619,-183.571 96.7695,-179.667 102.034,-188.861 106.619,-183.571"/>
</g>
<!-- 3 -->
<g id="node4" class="node"><title>3</title>
<path fill="#6deca2" stroke="black" d="M240,-187C240,-187 147,-187 147,-187 141,-187 135,-181 135,-175 135,-175 135,-116 135,-116 135,-110 141,-104 147,-104 147,-104 240,-104 240,-104 246,-104 252,-110 252,-116 252,-116 252,-175 252,-175 252,-181 246,-187 240,-187"/>
<text text-anchor="start" x="150.5" y="-171.8" font-family="Helvetica,sans-Serif" font-size="14.00">酒精 ≤ 12.445</text>
<text text-anchor="start" x="161.5" y="-156.8" font-family="Helvetica,sans-Serif" font-size="14.00">gini = 0.33</text>
<text text-anchor="start" x="152.5" y="-141.8" font-family="Helvetica,sans-Serif" font-size="14.00">samples = 16</text>
<text text-anchor="start" x="143" y="-126.8" font-family="Helvetica,sans-Serif" font-size="14.00">value = [5, 19, 0]</text>
<text text-anchor="start" x="155.5" y="-111.8" font-family="Helvetica,sans-Serif" font-size="14.00">class = 雪梨</text>
</g>
<!-- 1&#45;&gt;3 -->
<g id="edge3" class="edge"><title>1&#45;&gt;3</title>
<path fill="none" stroke="black" d="M193.5,-222.907C193.5,-214.649 193.5,-205.864 193.5,-197.302"/>
<polygon fill="black" stroke="black" points="197,-197.021 193.5,-187.021 190,-197.021 197,-197.021"/>
</g>
<!-- 4 -->
<g id="node5" class="node"><title>4</title>
<path fill="#39e581" stroke="black" d="M108,-68C108,-68 15,-68 15,-68 9,-68 3,-62 3,-56 3,-56 3,-12 3,-12 3,-6 9,-0 15,-0 15,-0 108,-0 108,-0 114,-0 120,-6 120,-12 120,-12 120,-56 120,-56 120,-62 114,-68 108,-68"/>
<text text-anchor="start" x="33.5" y="-52.8" font-family="Helvetica,sans-Serif" font-size="14.00">gini = 0.0</text>
<text text-anchor="start" x="20.5" y="-37.8" font-family="Helvetica,sans-Serif" font-size="14.00">samples = 10</text>
<text text-anchor="start" x="11" y="-22.8" font-family="Helvetica,sans-Serif" font-size="14.00">value = [0, 16, 0]</text>
<text text-anchor="start" x="23.5" y="-7.8" font-family="Helvetica,sans-Serif" font-size="14.00">class = 雪梨</text>
</g>
<!-- 3&#45;&gt;4 -->
<g id="edge4" class="edge"><title>3&#45;&gt;4</title>
<path fill="none" stroke="black" d="M144.348,-103.726C132.913,-94.2406 120.755,-84.1551 109.377,-74.7159"/>
<polygon fill="black" stroke="black" points="111.573,-71.9905 101.642,-68.2996 107.104,-77.3781 111.573,-71.9905"/>
</g>
<!-- 5 -->
<g id="node6" class="node"><title>5</title>
<path fill="#f5cdb0" stroke="black" d="M236.5,-68C236.5,-68 150.5,-68 150.5,-68 144.5,-68 138.5,-62 138.5,-56 138.5,-56 138.5,-12 138.5,-12 138.5,-6 144.5,-0 150.5,-0 150.5,-0 236.5,-0 236.5,-0 242.5,-0 248.5,-6 248.5,-12 248.5,-12 248.5,-56 248.5,-56 248.5,-62 242.5,-68 236.5,-68"/>
<text text-anchor="start" x="158" y="-52.8" font-family="Helvetica,sans-Serif" font-size="14.00">gini = 0.469</text>
<text text-anchor="start" x="156" y="-37.8" font-family="Helvetica,sans-Serif" font-size="14.00">samples = 6</text>
<text text-anchor="start" x="146.5" y="-22.8" font-family="Helvetica,sans-Serif" font-size="14.00">value = [5, 3, 0]</text>
<text text-anchor="start" x="155.5" y="-7.8" font-family="Helvetica,sans-Serif" font-size="14.00">class = 琴酒</text>
</g>
<!-- 3&#45;&gt;5 -->
<g id="edge5" class="edge"><title>3&#45;&gt;5</title>
<path fill="none" stroke="black" d="M193.5,-103.726C193.5,-95.5175 193.5,-86.8595 193.5,-78.56"/>
<polygon fill="black" stroke="black" points="197,-78.2996 193.5,-68.2996 190,-78.2996 197,-78.2996"/>
</g>
<!-- 7 -->
<g id="node8" class="node"><title>7</title>
<path fill="#8e4de8" stroke="black" d="M447.5,-187C447.5,-187 351.5,-187 351.5,-187 345.5,-187 339.5,-181 339.5,-175 339.5,-175 339.5,-116 339.5,-116 339.5,-110 345.5,-104 351.5,-104 351.5,-104 447.5,-104 447.5,-104 453.5,-104 459.5,-110 459.5,-116 459.5,-116 459.5,-175 459.5,-175 459.5,-181 453.5,-187 447.5,-187"/>
<text text-anchor="start" x="360" y="-171.8" font-family="Helvetica,sans-Serif" font-size="14.00">色调 ≤ 0.825</text>
<text text-anchor="start" x="364" y="-156.8" font-family="Helvetica,sans-Serif" font-size="14.00">gini = 0.165</text>
<text text-anchor="start" x="358.5" y="-141.8" font-family="Helvetica,sans-Serif" font-size="14.00">samples = 22</text>
<text text-anchor="start" x="349" y="-126.8" font-family="Helvetica,sans-Serif" font-size="14.00">value = [0, 3, 30]</text>
<text text-anchor="start" x="347.5" y="-111.8" font-family="Helvetica,sans-Serif" font-size="14.00">class = 贝尔摩德</text>
</g>
<!-- 6&#45;&gt;7 -->
<g id="edge7" class="edge"><title>6&#45;&gt;7</title>
<path fill="none" stroke="black" d="M399.5,-222.907C399.5,-214.649 399.5,-205.864 399.5,-197.302"/>
<polygon fill="black" stroke="black" points="403,-197.021 399.5,-187.021 396,-197.021 403,-197.021"/>
</g>
<!-- 10 -->
<g id="node11" class="node"><title>10</title>
<path fill="#ea995f" stroke="black" d="M644,-187C644,-187 551,-187 551,-187 545,-187 539,-181 539,-175 539,-175 539,-116 539,-116 539,-110 545,-104 551,-104 551,-104 644,-104 644,-104 650,-104 656,-110 656,-116 656,-116 656,-175 656,-175 656,-181 650,-187 644,-187"/>
<text text-anchor="start" x="558" y="-171.8" font-family="Helvetica,sans-Serif" font-size="14.00">酒精 ≤ 13.22</text>
<text text-anchor="start" x="562" y="-156.8" font-family="Helvetica,sans-Serif" font-size="14.00">gini = 0.272</text>
<text text-anchor="start" x="556.5" y="-141.8" font-family="Helvetica,sans-Serif" font-size="14.00">samples = 24</text>
<text text-anchor="start" x="547" y="-126.8" font-family="Helvetica,sans-Serif" font-size="14.00">value = [31, 6, 0]</text>
<text text-anchor="start" x="559.5" y="-111.8" font-family="Helvetica,sans-Serif" font-size="14.00">class = 琴酒</text>
</g>
<!-- 6&#45;&gt;10 -->
<g id="edge10" class="edge"><title>6&#45;&gt;10</title>
<path fill="none" stroke="black" d="M468.195,-222.907C488.238,-211.064 510.115,-198.137 530.078,-186.34"/>
<polygon fill="black" stroke="black" points="531.974,-189.285 538.803,-181.185 528.413,-183.259 531.974,-189.285"/>
</g>
<!-- 8 -->
<g id="node9" class="node"><title>8</title>
<path fill="#8139e5" stroke="black" d="M374.5,-68C374.5,-68 278.5,-68 278.5,-68 272.5,-68 266.5,-62 266.5,-56 266.5,-56 266.5,-12 266.5,-12 266.5,-6 272.5,-0 278.5,-0 278.5,-0 374.5,-0 374.5,-0 380.5,-0 386.5,-6 386.5,-12 386.5,-12 386.5,-56 386.5,-56 386.5,-62 380.5,-68 374.5,-68"/>
<text text-anchor="start" x="298.5" y="-52.8" font-family="Helvetica,sans-Serif" font-size="14.00">gini = 0.0</text>
<text text-anchor="start" x="285.5" y="-37.8" font-family="Helvetica,sans-Serif" font-size="14.00">samples = 18</text>
<text text-anchor="start" x="276" y="-22.8" font-family="Helvetica,sans-Serif" font-size="14.00">value = [0, 0, 25]</text>
<text text-anchor="start" x="274.5" y="-7.8" font-family="Helvetica,sans-Serif" font-size="14.00">class = 贝尔摩德</text>
</g>
<!-- 7&#45;&gt;8 -->
<g id="edge8" class="edge"><title>7&#45;&gt;8</title>
<path fill="none" stroke="black" d="M372.317,-103.726C366.419,-94.879 360.173,-85.51 354.254,-76.6303"/>
<polygon fill="black" stroke="black" points="357.159,-74.6787 348.7,-68.2996 351.335,-78.5616 357.159,-74.6787"/>
</g>
<!-- 9 -->
<g id="node10" class="node"><title>9</title>
<path fill="#cdb0f5" stroke="black" d="M512.5,-68C512.5,-68 416.5,-68 416.5,-68 410.5,-68 404.5,-62 404.5,-56 404.5,-56 404.5,-12 404.5,-12 404.5,-6 410.5,-0 416.5,-0 416.5,-0 512.5,-0 512.5,-0 518.5,-0 524.5,-6 524.5,-12 524.5,-12 524.5,-56 524.5,-56 524.5,-62 518.5,-68 512.5,-68"/>
<text text-anchor="start" x="429" y="-52.8" font-family="Helvetica,sans-Serif" font-size="14.00">gini = 0.469</text>
<text text-anchor="start" x="427" y="-37.8" font-family="Helvetica,sans-Serif" font-size="14.00">samples = 4</text>
<text text-anchor="start" x="417.5" y="-22.8" font-family="Helvetica,sans-Serif" font-size="14.00">value = [0, 3, 5]</text>
<text text-anchor="start" x="412.5" y="-7.8" font-family="Helvetica,sans-Serif" font-size="14.00">class = 贝尔摩德</text>
</g>
<!-- 7&#45;&gt;9 -->
<g id="edge9" class="edge"><title>7&#45;&gt;9</title>
<path fill="none" stroke="black" d="M423.704,-103.726C428.901,-94.9703 434.402,-85.7032 439.625,-76.9051"/>
<polygon fill="black" stroke="black" points="442.638,-78.6853 444.733,-68.2996 436.619,-75.1121 442.638,-78.6853"/>
</g>
<!-- 11 -->
<g id="node12" class="node"><title>11</title>
<path fill="#7beeab" stroke="black" d="M640.5,-68C640.5,-68 554.5,-68 554.5,-68 548.5,-68 542.5,-62 542.5,-56 542.5,-56 542.5,-12 542.5,-12 542.5,-6 548.5,-0 554.5,-0 554.5,-0 640.5,-0 640.5,-0 646.5,-0 652.5,-6 652.5,-12 652.5,-12 652.5,-56 652.5,-56 652.5,-62 646.5,-68 640.5,-68"/>
<text text-anchor="start" x="562" y="-52.8" font-family="Helvetica,sans-Serif" font-size="14.00">gini = 0.375</text>
<text text-anchor="start" x="560" y="-37.8" font-family="Helvetica,sans-Serif" font-size="14.00">samples = 5</text>
<text text-anchor="start" x="550.5" y="-22.8" font-family="Helvetica,sans-Serif" font-size="14.00">value = [2, 6, 0]</text>
<text text-anchor="start" x="559.5" y="-7.8" font-family="Helvetica,sans-Serif" font-size="14.00">class = 雪梨</text>
</g>
<!-- 10&#45;&gt;11 -->
<g id="edge11" class="edge"><title>10&#45;&gt;11</title>
<path fill="none" stroke="black" d="M597.5,-103.726C597.5,-95.5175 597.5,-86.8595 597.5,-78.56"/>
<polygon fill="black" stroke="black" points="601,-78.2996 597.5,-68.2996 594,-78.2996 601,-78.2996"/>
</g>
<!-- 12 -->
<g id="node13" class="node"><title>12</title>
<path fill="#e58139" stroke="black" d="M776,-68C776,-68 683,-68 683,-68 677,-68 671,-62 671,-56 671,-56 671,-12 671,-12 671,-6 677,-0 683,-0 683,-0 776,-0 776,-0 782,-0 788,-6 788,-12 788,-12 788,-56 788,-56 788,-62 782,-68 776,-68"/>
<text text-anchor="start" x="701.5" y="-52.8" font-family="Helvetica,sans-Serif" font-size="14.00">gini = 0.0</text>
<text text-anchor="start" x="688.5" y="-37.8" font-family="Helvetica,sans-Serif" font-size="14.00">samples = 19</text>
<text text-anchor="start" x="679" y="-22.8" font-family="Helvetica,sans-Serif" font-size="14.00">value = [29, 0, 0]</text>
<text text-anchor="start" x="691.5" y="-7.8" font-family="Helvetica,sans-Serif" font-size="14.00">class = 琴酒</text>
</g>
<!-- 10&#45;&gt;12 -->
<g id="edge12" class="edge"><title>10&#45;&gt;12</title>
<path fill="none" stroke="black" d="M646.652,-103.726C658.087,-94.2406 670.245,-84.1551 681.623,-74.7159"/>
<polygon fill="black" stroke="black" points="683.896,-77.3781 689.358,-68.2996 679.427,-71.9905 683.896,-77.3781"/>
</g>
</g>
</svg>
